<?xml version="1.0" standalone="no"?>
<!DOCTYPE svg PUBLIC "-//W3C//DTD SVG 20010904//EN"
 "http://www.w3.org/TR/2001/REC-SVG-20010904/DTD/svg10.dtd">
<svg version="1.0" xmlns="http://www.w3.org/2000/svg"
 width="220.000000pt" height="165.000000pt" viewBox="0 0 220.000000 165.000000"
 preserveAspectRatio="xMidYMid meet">
<metadata>
Created by potrace 1.16, written by Peter Selinger 2001-2019
</metadata>
<g transform="translate(0.000000,165.000000) scale(0.100000,-0.100000)"
fill="#000000" stroke="none">
<path d="M997 1350 c-111 -28 -225 -113 -284 -211 -84 -141 -83 -332 4 -472
l23 -37 -19 -75 c-12 -46 -15 -75 -9 -75 6 0 42 9 79 20 l68 21 41 -21 c192
-98 439 -41 566 133 174 236 93 558 -171 684 -68 32 -87 36 -168 39 -51 2
-109 -1 -130 -6z m275 -87 c84 -39 147 -103 190 -191 31 -62 33 -74 33 -167 0
-88 -3 -107 -27 -158 -38 -80 -117 -160 -197 -200 -61 -30 -73 -32 -166 -32
-91 0 -106 3 -165 31 -63 29 -68 30 -110 18 -24 -7 -46 -11 -48 -9 -3 2 1 25
7 51 10 38 9 49 -2 63 -30 34 -68 124 -75 179 -25 192 80 366 261 433 40 15
73 19 142 17 77 -3 100 -8 157 -35z"/>
<path d="M930 1040 c0 -11 5 -20 10 -20 6 0 10 -37 10 -90 0 -53 -4 -90 -10
-90 -5 0 -10 -9 -10 -20 0 -17 7 -20 50 -20 43 0 50 3 50 20 0 11 -4 20 -10
20 -6 0 -10 43 -10 110 l0 110 -40 0 c-33 0 -40 -3 -40 -20z"/>
<path d="M1102 1024 c-14 -10 -22 -25 -22 -45 0 -17 -9 -42 -20 -56 -45 -58
-12 -123 63 -123 24 0 48 5 54 11 8 8 13 8 17 0 4 -6 23 -11 42 -11 26 0 34 4
34 18 0 9 -10 22 -22 27 -23 10 -27 46 -7 53 5 2 9 12 9 23 0 14 -7 19 -28 19
-15 0 -33 -5 -39 -11 -8 -8 -15 -4 -27 12 -18 26 -21 49 -6 49 6 0 10 -7 10
-15 0 -9 9 -15 25 -15 22 0 25 4 25 34 0 26 -5 35 -22 40 -37 10 -62 7 -86
-10z"/>
<path d="M797 970 c-32 -26 -42 -78 -23 -124 16 -39 40 -49 102 -44 34 3 39 6
39 27 0 22 -4 25 -40 25 -40 1 -40 1 -40 41 0 34 3 40 23 43 15 2 22 -2 22
-12 0 -10 9 -16 25 -16 21 0 25 5 25 30 0 19 -7 33 -19 40 -31 16 -86 12 -114
-10z"/>
<path d="M1313 978 c-49 -24 -56 -125 -11 -162 18 -14 34 -17 75 -14 61 5 69
10 55 34 -7 12 -22 18 -48 18 -61 1 -55 26 6 26 l53 0 -6 38 c-10 62 -65 88
-124 60z"/>
<path d="M1788 390 c-3 -9 -79 -12 -293 -14 l-290 -1 -3 -26 c-4 -30 12 -39
51 -32 18 4 27 12 27 24 0 11 5 19 10 19 6 0 10 -9 10 -19 0 -21 16 -37 22
-22 1 4 12 5 23 0 17 -6 17 -8 3 -8 -21 -1 -24 -21 -4 -21 8 0 21 6 28 13 16
16 53 16 70 -1 17 -17 35 -15 51 8 8 11 17 17 21 12 4 -4 21 -7 37 -7 21 0 29
5 29 17 0 9 5 20 10 23 6 3 10 -3 10 -14 0 -12 5 -21 10 -21 6 0 10 9 10 20 0
11 5 20 10 20 6 0 10 -9 10 -19 0 -11 5 -23 10 -26 6 -3 10 -1 10 6 0 8 4 8
13 1 19 -16 67 -3 67 19 0 26 18 24 22 -3 2 -15 10 -22 29 -22 23 -1 25 2 24
31 -1 35 -20 64 -27 43z"/>
<path d="M397 373 c-9 -9 -9 -53 1 -54 4 -1 33 -2 65 -3 48 -2 57 1 57 15 0
10 5 21 10 24 6 3 10 -3 10 -14 0 -12 5 -21 10 -21 6 0 10 9 10 20 0 25 20 27
20 3 1 -19 22 -53 34 -53 3 0 6 7 6 15 0 8 3 14 8 14 22 -4 32 3 33 24 1 21 1
21 8 -3 6 -21 12 -25 51 -25 44 0 45 1 47 33 1 25 -3 32 -17 32 -13 0 -20 -9
-23 -27 l-4 -28 -2 28 c-1 32 -20 27 -22 -6 -1 -20 -2 -20 -8 3 -7 25 -8 25
-122 27 -108 2 -115 1 -124 -19 -12 -27 -35 -35 -35 -13 0 11 5 15 15 11 9 -3
15 0 15 9 0 15 -31 21 -43 8z"/>
<path d="M1745 264 c-33 -51 -21 -59 97 -62 l107 -3 4 28 4 28 2 -27 c1 -27 3
-28 51 -28 43 0 50 3 50 20 0 11 5 20 10 20 6 0 10 -8 10 -18 0 -14 8 -19 30
-20 17 0 30 4 30 9 0 5 -4 9 -10 9 -5 0 -10 7 -10 15 0 8 5 15 11 15 6 0 4 7
-5 15 -18 18 -26 19 -26 3 0 -9 -17 -12 -59 -10 -55 3 -60 2 -64 -20 -3 -16
-5 -12 -6 13 -1 31 -4 35 -23 34 -13 -2 -22 -8 -20 -14 1 -6 -7 -11 -18 -11
-14 0 -20 -7 -21 -22 -1 -22 -1 -22 -8 2 l-7 25 -8 -25 c-8 -25 -9 -25 -13 -2
-3 14 -12 22 -24 22 -10 0 -19 5 -19 10 0 6 -4 10 -10 10 -5 0 -10 -7 -10 -16
0 -8 -5 -12 -10 -9 -6 4 -8 10 -5 15 3 5 1 11 -4 14 -5 3 -16 -6 -26 -20z"/>
<path d="M1668 269 c-3 -8 -91 -11 -296 -10 l-293 0 3 -27 c3 -24 8 -27 41
-29 30 -1 37 3 37 17 0 11 5 22 10 25 6 4 10 -5 10 -19 0 -16 6 -26 15 -26 8
0 15 -4 15 -10 0 -14 37 -12 47 3 11 16 73 16 73 0 0 -17 39 -17 46 0 3 9 16
12 34 9 19 -3 30 0 30 8 0 7 -7 10 -15 7 -8 -4 -17 -2 -20 3 -4 6 3 10 14 10
12 0 22 6 22 13 1 6 5 -1 9 -18 6 -23 8 -25 9 -8 2 31 21 39 21 9 0 -14 5 -26
10 -26 6 0 10 9 10 19 0 11 5 23 10 26 6 3 10 -4 10 -18 0 -22 4 -24 50 -26
44 -1 50 1 50 18 0 11 5 23 10 26 6 4 10 -5 10 -19 0 -22 5 -26 29 -26 26 0
28 3 25 33 -1 17 -3 35 -3 40 -1 11 -19 8 -23 -4z"/>
<path d="M536 245 c-13 -34 4 -45 70 -45 57 0 64 2 64 19 0 11 5 23 10 26 6 4
10 -5 10 -19 0 -14 5 -26 10 -26 6 0 10 9 10 20 0 11 5 20 10 20 6 0 10 -7 10
-16 0 -8 7 -23 16 -31 13 -14 17 -14 24 -3 6 10 28 13 79 12 l70 -3 -1 31 c-1
23 -6 30 -21 30 -14 0 -18 -5 -14 -20 3 -11 1 -20 -4 -20 -5 0 -9 9 -9 20 0
11 -4 20 -10 20 -5 0 -10 -9 -10 -20 0 -11 -4 -20 -10 -20 -5 0 -10 9 -10 20
0 19 -7 20 -114 20 -105 0 -114 -1 -119 -20 -3 -12 -14 -20 -27 -20 -13 0 -20
5 -17 13 2 6 11 11 21 9 9 -2 16 2 16 8 0 16 -47 12 -54 -5z"/>
</g>
</svg>
