<?xml version="1.0" standalone="no"?>
<!DOCTYPE svg PUBLIC "-//W3C//DTD SVG 20010904//EN"
 "http://www.w3.org/TR/2001/REC-SVG-20010904/DTD/svg10.dtd">
<svg version="1.0" xmlns="http://www.w3.org/2000/svg"
 width="200.000000pt" height="140.000000pt" viewBox="0 0 2048.000000 1989.000000"
 preserveAspectRatio="xMidYMid meet">
<metadata>
Created by potrace 1.16, written by Peter Selinger 2001-2019
</metadata>
<g transform="translate(0.000000,1989.000000) scale(0.100000,-0.100000)"
fill="#000000" stroke="none">
<path d="M9120 17149 c-281 -49 -570 -160 -752 -289 -318 -226 -574 -629 -668
-1050 -11 -50 -22 -114 -24 -143 -2 -28 -13 -130 -25 -225 -36 -302 -44 -546
-38 -1119 4 -293 4 -533 2 -533 -3 0 -72 36 -154 80 -161 86 -249 124 -381
164 -651 197 -1337 54 -1820 -379 -274 -245 -454 -550 -538 -910 -33 -138 -43
-228 -43 -375 -1 -280 51 -491 189 -765 113 -225 204 -338 517 -650 133 -132
324 -330 425 -440 101 -110 204 -221 228 -247 l45 -47 -27 -109 c-33 -136 -56
-300 -56 -412 0 -248 69 -502 181 -668 43 -63 151 -174 219 -226 173 -133 367
-207 670 -257 149 -24 204 -46 262 -104 50 -50 72 -110 66 -179 -6 -77 -41
-126 -115 -163 -55 -26 -65 -28 -183 -27 -105 1 -139 5 -215 28 -172 51 -386
174 -550 315 -38 33 -70 59 -71 58 -4 -4 -276 -782 -335 -957 -32 -96 -63
-183 -70 -194 -6 -11 -7 -22 -2 -27 5 -5 81 -34 169 -64 499 -171 915 -246
1283 -232 86 4 174 9 196 12 144 22 372 93 495 155 99 50 238 148 317 224 43
41 86 76 95 78 11 2 36 -23 76 -77 33 -44 82 -105 108 -136 27 -30 97 -118
157 -195 59 -76 196 -254 305 -395 108 -141 294 -383 412 -539 118 -156 245
-322 282 -369 37 -47 115 -148 174 -224 115 -150 145 -174 202 -158 50 15 58
23 117 110 61 92 269 360 419 541 53 63 131 160 174 215 43 55 98 120 121 144
23 24 146 169 273 322 l231 279 326 0 326 0 32 73 c18 39 96 214 174 387 78
173 208 465 290 649 81 184 153 339 158 344 17 17 21 5 46 -111 180 -850 599
-1625 1150 -2124 652 -592 1449 -831 2203 -662 728 163 1435 644 1921 1307 23
31 39 57 36 57 -3 0 -47 -29 -98 -63 -374 -257 -843 -447 -1267 -513 -160 -25
-532 -26 -675 -1 -342 60 -585 166 -875 380 -169 125 -399 373 -539 580 -113
168 -296 521 -411 797 -154 365 -368 1024 -469 1445 -18 72 -34 136 -37 144
-9 27 404 428 811 785 l180 159 6 -1154 c5 -1034 7 -1163 23 -1239 36 -184 78
-301 165 -465 262 -498 799 -775 1503 -775 331 0 584 53 821 171 142 70 238
140 353 254 230 229 377 546 430 923 20 142 30 1258 19 2205 l-7 687 -649 0
-649 0 -3 -1337 c-2 -1253 -4 -1342 -21 -1398 -35 -117 -103 -199 -188 -224
-74 -23 -178 -25 -242 -7 -208 61 -256 210 -241 746 4 140 4 697 0 1238 l-8
982 -656 -4 c-361 -3 -720 -8 -798 -11 -128 -5 -150 -4 -215 16 -135 40 -265
117 -354 211 -93 97 -124 178 -124 325 0 189 48 327 151 438 84 90 180 138
338 171 333 70 505 121 557 166 46 40 61 92 41 140 -19 46 -46 64 -136 88
-175 49 -536 234 -753 387 -215 151 -425 320 -638 513 -197 178 -346 284 -530
376 -131 65 -286 117 -410 139 -261 45 -733 23 -959 -44 -33 -10 -35 -9 -138
87 -205 189 -233 235 -241 403 -13 273 150 479 461 584 135 45 297 73 590 101
102 10 158 85 122 165 -24 51 -54 70 -136 80 -121 15 -253 71 -487 206 -302
174 -708 491 -1203 942 -166 151 -170 154 -222 190 -64 44 -251 132 -358 169
-47 17 -139 43 -205 58 -109 26 -138 28 -349 30 -126 2 -255 -2 -285 -7z m420
-234 c131 -12 341 -68 455 -122 130 -60 259 -152 395 -279 435 -406 836 -717
1271 -988 l62 -39 -84 -23 c-265 -72 -405 -160 -536 -338 -167 -227 -210 -463
-129 -698 37 -106 81 -171 196 -291 58 -61 100 -112 95 -114 -27 -9 -258 -166
-325 -220 -87 -70 -189 -175 -275 -283 -33 -41 -67 -83 -75 -92 -30 -33 -115
-184 -151 -268 -129 -299 -180 -577 -158 -867 15 -200 65 -419 126 -553 14
-30 27 -63 29 -73 9 -49 155 -295 236 -399 l30 -38 -346 0 -346 0 0 -35 c0
-28 -5 -36 -23 -40 -12 -3 -295 -4 -627 -3 -593 4 -606 4 -679 26 -164 50
-276 138 -358 282 -41 73 -55 132 -60 260 -9 217 39 375 143 469 124 113 327
178 682 218 65 7 103 46 109 109 5 46 2 54 -26 86 -33 38 -57 50 -138 68 -94
21 -334 178 -543 355 -47 40 -175 159 -285 265 -110 106 -230 217 -266 247
l-66 55 -7 171 c-14 396 -18 982 -7 1217 30 659 114 1023 305 1309 183 274
379 430 671 534 254 91 444 115 705 92z m2972 -2984 c289 -58 498 -176 810
-458 223 -202 398 -346 523 -433 220 -152 390 -258 542 -336 l102 -52 -77 -17
c-294 -63 -382 -106 -523 -254 -98 -103 -152 -195 -195 -336 -25 -83 -28 -104
-28 -270 -1 -174 0 -182 27 -249 89 -224 258 -382 522 -491 127 -52 204 -67
380 -74 l160 -6 -221 -192 c-289 -250 -536 -475 -706 -642 -76 -74 -141 -132
-144 -128 -18 17 -133 583 -194 947 -22 135 -43 255 -46 268 l-4 22 -695 0
c-652 0 -694 -1 -699 -17 -3 -10 -10 -54 -16 -98 -6 -44 -54 -359 -106 -700
-52 -341 -104 -685 -115 -765 -20 -145 -37 -226 -44 -218 -6 6 -335 1768 -335
1793 0 3 -91 5 -202 5 l-203 0 -75 86 c-190 218 -344 517 -400 781 -27 125
-38 394 -21 514 65 456 328 857 741 1128 90 60 165 96 268 130 152 51 242 66
487 85 117 9 392 -4 487 -23z m-5837 -72 c50 -5 110 -12 135 -14 150 -12 392
-102 600 -225 167 -98 353 -245 550 -435 69 -66 172 -165 230 -220 108 -103
300 -261 403 -330 31 -21 57 -41 57 -45 0 -3 -21 -12 -47 -18 -64 -17 -231
-101 -308 -157 -35 -25 -84 -68 -109 -97 -44 -50 -103 -149 -111 -185 -2 -10
-13 -53 -24 -96 -68 -261 -34 -568 84 -753 116 -181 308 -304 552 -353 95 -20
135 -21 691 -21 513 0 591 -2 596 -15 3 -8 -26 -331 -64 -717 -79 -792 -172
-1743 -195 -1983 -8 -88 -38 -389 -65 -668 -28 -279 -50 -515 -50 -523 0 -12
75 -14 535 -14 294 0 535 3 535 8 0 4 12 79 25 167 14 88 46 300 71 470 68
471 125 838 131 848 3 5 10 2 16 -8 5 -10 98 -281 207 -604 109 -322 203 -599
209 -615 11 -27 8 -33 -51 -105 -132 -161 -273 -327 -305 -360 -19 -19 -78
-89 -131 -155 -53 -67 -103 -127 -110 -135 -40 -42 -492 -602 -611 -758 -21
-28 -22 -28 -36 -8 -18 25 -212 277 -320 416 -44 56 -170 220 -279 363 -187
245 -507 660 -745 966 -58 74 -120 150 -138 169 -18 19 -33 43 -33 53 0 10 13
44 29 76 127 252 155 645 72 982 -79 314 -272 560 -549 700 -108 54 -162 72
-367 125 -296 75 -431 140 -482 230 -44 78 -20 197 49 243 36 24 50 26 132 26
232 1 483 -98 746 -292 16 -12 20 -7 43 55 14 37 101 273 193 523 92 250 169
460 171 467 6 16 -258 144 -422 206 -261 98 -486 146 -730 154 -202 6 -335 -9
-480 -54 -290 -91 -561 -311 -733 -593 -21 -36 -46 -65 -55 -65 -8 0 -103 95
-210 210 -106 116 -289 305 -406 420 -117 116 -245 251 -285 300 -152 187
-248 362 -309 565 -48 158 -61 269 -54 443 15 345 137 647 370 918 141 164
379 333 588 419 79 33 294 94 307 87 4 -2 48 2 97 8 115 16 275 18 390 4z"/>
<path d="M9893 16223 c-72 -39 -130 -94 -153 -147 -67 -150 -5 -320 144 -396
60 -30 78 -35 140 -35 92 1 159 30 221 96 64 68 87 124 87 210 0 115 -55 210
-154 264 -45 25 -66 30 -143 32 -82 3 -94 1 -142 -24z"/>
<path d="M12758 13357 c-144 -55 -222 -160 -222 -302 0 -118 63 -217 176 -277
36 -19 59 -23 133 -23 81 0 95 3 143 29 226 126 217 445 -17 554 -65 30 -160
38 -213 19z"/>
<path d="M7102 13242 c-172 -62 -261 -259 -185 -413 59 -119 157 -179 292
-179 176 0 311 144 298 320 -13 199 -220 337 -405 272z"/>
<path d="M3610 11233 c-528 -80 -961 -506 -1109 -1091 -78 -306 -63 -652 39
-896 106 -254 330 -456 628 -565 91 -34 219 -64 357 -86 136 -21 186 -39 238
-85 124 -110 111 -286 -26 -357 -41 -21 -70 -27 -140 -31 -253 -13 -538 106
-803 336 l-81 70 -36 -102 c-191 -538 -378 -1079 -374 -1082 10 -8 254 -92
374 -128 431 -128 843 -188 1136 -166 558 42 1003 315 1219 745 134 266 171
604 103 943 -79 392 -321 686 -676 819 -50 19 -168 54 -262 77 -250 64 -353
106 -429 174 -47 43 -68 85 -68 140 0 83 43 152 108 173 51 17 231 5 327 -21
162 -44 337 -129 468 -229 l63 -47 44 120 c23 67 112 307 196 535 85 228 153
415 151 417 -17 15 -281 138 -376 175 -389 153 -762 210 -1071 162z"/>
<path d="M11905 5063 c-87 -12 -210 -48 -285 -85 -154 -74 -270 -216 -316
-389 -24 -88 -24 -273 0 -354 26 -90 82 -182 155 -258 89 -93 269 -203 429
-263 313 -118 426 -280 322 -462 -113 -196 -450 -202 -781 -12 -48 28 -94 50
-103 50 -57 0 -79 -54 -80 -190 0 -125 8 -163 46 -200 55 -56 214 -124 361
-155 95 -21 373 -20 474 1 356 73 567 288 604 613 16 137 1 237 -49 344 -89
186 -208 280 -551 432 -176 78 -249 123 -308 187 -67 74 -79 159 -34 246 23
46 53 73 111 103 41 22 57 24 170 24 119 -1 130 -3 224 -37 54 -21 125 -53
158 -73 33 -19 72 -35 87 -35 49 0 56 20 59 176 4 132 2 146 -17 178 -24 38
-122 94 -211 120 -127 38 -342 56 -465 39z"/>
<path d="M6710 5034 c-61 -12 -90 -26 -95 -47 -3 -12 -4 -510 -3 -1107 l3
-1085 40 -20 c33 -16 62 -19 165 -20 149 0 215 10 241 36 19 19 19 46 19 1100
0 685 -4 1087 -10 1099 -5 10 -24 23 -42 30 -33 12 -272 23 -318 14z"/>
<path d="M7416 5032 c-16 -4 -38 -19 -48 -33 -19 -25 -19 -29 -5 -85 9 -33 83
-257 165 -499 82 -242 198 -586 258 -765 60 -179 150 -444 199 -590 l90 -265
40 -20 c37 -18 59 -20 265 -20 244 1 268 5 297 53 17 28 136 375 223 652 23
74 48 149 56 165 20 44 304 885 299 885 -2 0 21 71 51 158 112 316 114 340 32
363 -56 15 -324 8 -355 -9 -31 -17 -43 -45 -87 -197 -49 -167 -101 -336 -221
-715 -123 -389 -194 -616 -234 -755 -32 -108 -38 -123 -44 -114 -2 2 -38 114
-81 249 -43 135 -113 357 -157 493 -43 136 -81 258 -83 270 -4 23 -43 145
-168 530 -59 181 -76 221 -97 235 -21 14 -55 17 -196 19 -93 1 -183 -1 -199
-5z"/>
<path d="M13633 5029 c-23 -5 -46 -16 -52 -22 -6 -7 -50 -128 -100 -268 -49
-140 -128 -363 -175 -497 -47 -133 -94 -271 -105 -305 -21 -67 -176 -511 -291
-832 -41 -114 -74 -224 -77 -256 -5 -54 -4 -58 23 -75 24 -17 49 -19 189 -19
133 0 165 3 192 17 36 20 40 28 134 316 l63 192 420 -2 421 -3 48 -140 c26
-77 50 -152 52 -166 3 -14 17 -62 32 -105 38 -109 39 -109 273 -109 288 0 281
-19 144 380 -179 522 -351 1013 -364 1040 -14 29 -81 226 -86 251 -4 22 -89
267 -150 434 -67 182 -51 174 -334 177 -118 1 -234 -3 -257 -8z m284 -656 c35
-104 101 -303 147 -443 46 -140 87 -263 91 -272 7 -17 -12 -18 -305 -18 -246
0 -311 3 -307 13 2 6 15 46 27 87 49 159 273 820 279 820 3 0 34 -84 68 -187z"/>
<path d="M2410 5012 c-74 -37 -70 34 -70 -1115 0 -1160 -5 -1083 76 -1119 46
-20 58 -20 438 -15 403 5 470 11 633 52 192 49 330 123 447 240 135 134 199
262 258 514 15 66 21 135 25 301 6 236 -4 328 -53 487 -13 46 -24 85 -24 88 1
11 -55 114 -93 170 -129 190 -305 304 -570 369 -152 38 -272 46 -671 46 -324
0 -365 -2 -396 -18z m869 -376 c87 -22 167 -67 255 -141 58 -50 81 -78 113
-141 73 -140 94 -242 94 -449 0 -284 -65 -482 -196 -597 -156 -137 -259 -168
-556 -168 l-179 0 0 761 0 762 203 -6 c136 -4 223 -10 266 -21z"/>
<path d="M4660 5012 c-75 -40 -70 36 -70 -1140 0 -678 4 -1060 10 -1072 18
-33 76 -44 230 -45 125 0 150 3 185 20 l40 20 5 445 5 445 110 0 c93 -1 117
-4 156 -23 90 -44 159 -134 229 -302 18 -41 43 -100 57 -130 25 -55 57 -135
128 -325 21 -55 45 -108 54 -118 11 -11 45 -22 87 -29 79 -12 315 -5 356 11
50 19 48 87 -6 205 -30 66 -126 294 -155 371 -44 114 -119 260 -165 320 -42
57 -145 145 -170 145 -6 0 30 20 81 45 98 48 191 125 244 202 73 105 109 345
76 500 -38 175 -132 294 -297 375 -176 87 -263 98 -775 98 -350 0 -383 -1
-415 -18z m750 -352 c173 -28 270 -135 270 -299 0 -91 -23 -152 -78 -206 -88
-88 -186 -115 -409 -115 l-133 0 0 315 0 315 143 0 c78 0 171 -5 207 -10z"/>
<path d="M9740 5012 c-19 -10 -43 -34 -53 -53 -16 -32 -17 -98 -15 -1074 3
-985 4 -1041 21 -1067 40 -58 42 -58 687 -58 571 0 591 1 609 19 27 27 33 71
29 193 -2 78 -7 111 -21 131 l-17 27 -420 0 -420 0 0 315 0 315 355 0 355 0
17 27 c15 22 18 49 18 153 0 83 -4 132 -13 147 l-13 23 -357 2 -357 3 -3 272
-2 273 417 2 418 3 19 38 c27 56 27 227 0 283 l-19 39 -600 3 c-566 2 -602 1
-635 -16z"/>
<path d="M15259 5010 c-68 -36 -64 35 -67 -1129 -2 -919 -1 -1057 12 -1077 25
-37 79 -49 226 -49 139 0 196 11 222 42 10 13 14 108 18 442 l5 426 360 5
c198 3 361 7 362 8 25 37 39 195 24 276 -19 102 8 96 -398 96 l-353 0 0 295 0
295 366 0 c242 0 372 4 386 11 34 18 48 70 48 181 0 116 -12 173 -40 188 -12
6 -219 10 -577 10 -526 -1 -560 -2 -594 -20z"/>
<path d="M16915 5016 c-16 -7 -39 -23 -50 -36 -20 -22 -20 -38 -23 -1074 l-2
-1053 23 -34 c40 -60 38 -59 689 -57 l591 3 20 27 c16 21 21 47 25 125 5 103
-7 171 -34 198 -13 13 -69 15 -430 15 l-414 0 0 315 0 315 355 0 354 0 17 33
c22 40 25 223 5 280 l-13 37 -359 0 -359 0 0 275 0 275 409 0 c455 0 431 -4
451 68 13 48 13 186 -1 237 -6 22 -18 46 -27 53 -24 18 -1184 17 -1227 -2z"/>
</g>
</svg>
