<?xml version="1.0" standalone="no"?>
<!DOCTYPE svg PUBLIC "-//W3C//DTD SVG 20010904//EN"
 "http://www.w3.org/TR/2001/REC-SVG-20010904/DTD/svg10.dtd">
<svg version="1.0" xmlns="http://www.w3.org/2000/svg"
 width="140.000000pt" height="140.000000pt" viewBox="0 0 799.000000 799.000000"
 preserveAspectRatio="xMidYMid meet">
<metadata>
Created by potrace 1.16, written by Peter Selinger 2001-2019
</metadata>
<g transform="translate(0.000000,799.000000) scale(0.100000,-0.100000)"
fill="#000000" stroke="none">
<path d="M3905 7350 c-33 -4 -91 -15 -128 -24 -91 -21 -182 -20 -297 4 -107
22 -269 26 -352 9 -76 -16 -170 -61 -247 -118 -94 -70 -161 -101 -254 -118
-214 -39 -361 -107 -473 -218 -79 -78 -123 -149 -159 -256 -31 -89 -54 -114
-168 -181 -168 -99 -265 -210 -321 -368 -29 -81 -30 -92 -30 -250 0 -129 3
-179 18 -229 39 -142 115 -270 222 -377 35 -35 68 -74 75 -86 8 -16 13 -86 14
-218 1 -181 3 -200 27 -272 69 -207 199 -349 410 -448 111 -52 207 -77 363
-96 244 -29 264 -33 271 -58 7 -30 -12 -169 -38 -276 -37 -151 -104 -304 -173
-395 l-37 -48 108 6 c132 7 203 25 311 78 186 90 312 224 502 532 71 113 75
118 135 146 33 16 108 41 166 56 125 32 163 51 230 110 91 81 159 107 327 125
247 26 440 121 563 275 45 57 56 65 101 74 27 6 117 11 198 11 242 0 407 41
569 141 224 137 350 365 352 632 0 46 8 91 25 140 75 213 48 356 -100 526 -37
42 -71 93 -81 120 -9 25 -36 87 -60 138 -57 117 -114 178 -221 232 -74 37 -85
46 -136 119 -67 96 -125 148 -217 196 -70 37 -185 66 -261 66 -54 0 -96 19
-164 74 -66 55 -148 98 -230 122 -49 14 -83 16 -186 11 -124 -6 -126 -6 -180
22 -126 66 -312 94 -474 71z m-530 -160 c130 -19 193 -46 261 -114 108 -108
149 -229 146 -430 -2 -100 2 -136 14 -162 26 -55 99 -60 123 -7 19 42 33 190
25 273 -13 144 -49 250 -123 360 -17 24 -27 48 -23 51 12 12 192 39 257 39 85
0 166 -23 263 -76 77 -42 88 -45 135 -40 29 3 88 8 133 12 181 14 313 -71 344
-223 19 -92 -12 -253 -71 -363 -41 -76 -137 -183 -158 -175 -77 30 -384 115
-413 115 -56 0 -89 -46 -74 -105 8 -33 35 -45 129 -62 177 -30 307 -118 478
-321 19 -23 37 -32 73 -37 54 -9 61 -3 71 57 7 41 0 56 -77 155 l-49 62 76
110 c100 145 137 229 170 381 45 210 31 185 111 184 116 -1 223 -71 293 -190
54 -93 96 -131 169 -155 35 -12 80 -35 99 -53 33 -28 93 -134 93 -163 0 -6
-26 -14 -62 -17 -155 -16 -263 -60 -380 -155 -71 -57 -77 -65 -84 -108 -9 -63
2 -77 64 -81 46 -3 55 0 89 31 45 40 175 108 252 131 111 33 207 11 281 -63
83 -83 101 -195 54 -338 -15 -47 -29 -121 -35 -187 -18 -207 -60 -309 -173
-422 -115 -115 -292 -190 -504 -214 -104 -12 -233 -1 -280 24 -66 34 -155 164
-196 286 -20 63 -46 197 -46 244 0 10 28 12 124 8 115 -4 127 -3 160 17 38 24
51 50 42 85 -8 31 -43 43 -143 50 -190 14 -326 83 -510 258 -66 62 -91 70
-123 38 -25 -25 -27 -95 -5 -128 9 -12 70 -68 137 -123 136 -115 152 -140 162
-255 13 -156 84 -360 166 -478 39 -57 39 -100 2 -152 -105 -143 -289 -225
-513 -228 -101 -1 -107 0 -142 27 -73 55 -173 318 -193 509 l-7 56 75 79 c80
84 153 185 163 226 7 25 -8 65 -29 79 -20 14 -63 8 -89 -12 -14 -11 -39 -44
-56 -74 -49 -87 -119 -130 -278 -171 -88 -22 -102 -29 -135 -66 -21 -23 -38
-47 -38 -54 0 -6 25 -24 55 -40 51 -25 59 -27 108 -17 35 7 54 7 58 0 4 -6 9
-39 13 -74 7 -71 67 -242 140 -400 26 -57 46 -116 46 -135 0 -39 -29 -91 -63
-113 -40 -27 -160 -63 -263 -81 -103 -17 -138 -31 -165 -61 -9 -11 -58 -81
-109 -157 -149 -223 -292 -395 -389 -465 -49 -36 -88 -43 -76 -14 16 37 36
122 55 232 31 174 40 209 72 284 20 45 28 76 23 93 -8 33 -59 53 -139 53 -72
0 -76 4 -76 91 0 117 81 244 198 310 76 43 92 58 92 85 0 69 -51 104 -117 81
-120 -41 -216 -129 -273 -249 -37 -79 -70 -204 -70 -266 0 -35 -16 -42 -105
-42 -256 0 -550 215 -637 468 -19 57 -23 87 -23 197 0 166 10 187 93 211 150
42 235 70 366 120 77 30 144 54 148 54 3 0 38 -42 77 -94 94 -125 130 -156
181 -156 27 0 47 7 60 20 35 35 25 63 -56 153 -60 67 -113 163 -142 257 -23
77 -31 131 -37 265 -3 87 -7 102 -26 117 -30 25 -75 23 -103 -5 -30 -30 -43
-159 -25 -246 16 -74 6 -107 -43 -153 -99 -92 -289 -160 -448 -162 -87 -1 -99
1 -142 27 -85 50 -175 181 -214 313 -24 79 -24 228 0 309 46 154 157 296 285
364 l65 34 25 -33 c109 -144 184 -207 299 -251 143 -55 438 -6 492 83 24 40
25 66 3 90 -21 23 -59 23 -203 -2 -135 -23 -237 -26 -284 -6 -77 32 -143 114
-172 211 -31 110 -1 203 103 316 113 122 230 174 452 199 99 11 151 32 191 75
76 83 201 147 324 165 73 11 74 11 151 0z"/>
<path d="M3140 6248 c-24 -26 -26 -80 -4 -103 20 -20 79 -49 212 -105 86 -36
102 -47 102 -66 0 -34 -39 -152 -71 -215 -35 -71 -134 -196 -189 -240 -50 -40
-70 -76 -70 -122 0 -37 25 -67 56 -67 32 0 85 39 175 129 85 84 88 90 190 297
l104 211 155 39 155 39 22 45 c12 25 22 47 23 50 0 3 -20 16 -44 30 -45 24
-45 24 -99 7 -176 -56 -377 -33 -567 63 -72 36 -121 39 -150 8z"/>
<path d="M4669 3047 c-151 -51 -231 -167 -216 -312 13 -124 82 -197 286 -305
159 -83 201 -120 201 -175 0 -50 -43 -95 -98 -102 -58 -8 -157 20 -221 62 -27
18 -55 36 -60 39 -5 3 -40 -35 -76 -85 l-68 -92 24 -19 c46 -35 144 -78 214
-93 237 -50 445 23 510 179 25 60 30 145 11 211 -26 89 -98 154 -256 235 -172
87 -199 105 -216 146 -20 48 -4 98 39 120 59 31 170 15 254 -37 19 -12 38 -18
42 -13 25 27 111 153 111 162 0 20 -85 62 -165 82 -108 28 -229 27 -316 -3z"/>
<path d="M2520 2505 l0 -545 335 0 335 0 0 105 0 105 -210 0 -210 0 0 125 0
125 175 0 175 0 0 100 0 100 -175 0 -175 0 0 115 0 115 195 0 195 0 0 100 0
100 -320 0 -320 0 0 -545z"/>
<path d="M3380 2679 c0 -412 6 -458 69 -556 84 -130 203 -179 414 -171 109 4
120 6 191 41 83 42 132 91 170 172 40 85 46 148 46 522 l0 353 -125 0 -125 0
0 -357 c0 -226 -4 -373 -11 -398 -25 -94 -122 -141 -236 -115 -68 15 -115 56
-132 115 -7 26 -11 169 -11 398 l0 357 -125 0 -125 0 0 -361z"/>
<path d="M2550 1236 l0 -546 120 0 120 0 2 285 3 284 144 -155 c79 -85 147
-154 151 -152 4 2 67 68 140 148 73 80 137 147 141 148 5 2 9 -122 9 -277 l0
-281 115 0 115 0 0 545 c0 300 -2 545 -3 545 -2 0 -117 -121 -256 -270 -139
-148 -256 -270 -260 -270 -3 0 -123 120 -266 268 -142 147 -262 269 -267 270
-4 2 -8 -242 -8 -542z"/>
<path d="M5420 1745 c-192 -44 -346 -191 -396 -380 -8 -27 -14 -93 -14 -145 0
-169 44 -284 150 -391 105 -106 215 -149 385 -149 176 0 274 39 381 152 35 38
64 72 64 76 -1 4 -37 33 -81 66 l-80 59 -17 -24 c-51 -75 -130 -119 -227 -127
-167 -13 -303 94 -335 264 -39 207 85 386 278 402 87 7 183 -20 233 -65 45
-41 49 -40 133 45 58 59 58 60 41 85 -25 39 -115 96 -186 118 -86 27 -243 34
-329 14z"/>
<path d="M3940 1220 l0 -530 120 0 120 0 0 225 0 225 185 0 185 0 0 -225 0
-225 120 0 120 0 0 530 0 530 -120 0 -120 0 0 -210 0 -210 -185 0 -185 0 0
210 0 210 -120 0 -120 0 0 -530z"/>
</g>
</svg>
