<svg xmlns="http://www.w3.org/2000/svg" viewBox="0 0 1287.07 1013.42"><defs><style>.cls-1,.cls-5{isolation:isolate;}.cls-2,.cls-7,.cls-8{fill:none;}.cls-3,.cls-5{fill:#fff;}.cls-4{fill:#ff1f2c;}.cls-6{opacity:0.75;mix-blend-mode:multiply;}.cls-10,.cls-7{stroke:#000;}.cls-7,.cls-8{stroke-linejoin:round;stroke-width:16px;}.cls-8{stroke:#fff;}.cls-9{fill:#edbfff;}.cls-10{font-size:70px;stroke-miterlimit:10;font-family:StencilStd, Stencil Std;letter-spacing:-0.01em;}.cls-11{letter-spacing:-0.03em;}.cls-12{letter-spacing:-0.01em;}</style></defs><g class="cls-1"><g id="Layer_1" data-name="Layer 1"><text x="-72.32" y="-13.4"/><line class="cls-2" x1="218.68" y1="222.6" x2="250.68" y2="238.6"/><path class="cls-3" d="M359.58,221.42l.72,1.88a27.23,27.23,0,0,0,8.7,11.78h0a28,28,0,0,0-8.83,12.11l-.59,1.56-.59-1.56a28.11,28.11,0,0,0-8.83-12.11h0A28.08,28.08,0,0,0,359,223Z" transform="translate(-72.32 -13.4)"/><path class="cls-3" d="M464.87,264.85,466,267.7a41.22,41.22,0,0,0,13.14,17.78h0a42.46,42.46,0,0,0-13.34,18.28l-.89,2.35-.88-2.35a42.46,42.46,0,0,0-13.34-18.28h0A42.43,42.43,0,0,0,464,267.21Z" transform="translate(-72.32 -13.4)"/><path class="cls-3" d="M352.48,299.72l1.22,3.21a46.42,46.42,0,0,0,14.79,20h0a47.86,47.86,0,0,0-15,20.58l-1,2.65-1-2.65a47.8,47.8,0,0,0-15-20.58h0a47.71,47.71,0,0,0,15-20.57Z" transform="translate(-72.32 -13.4)"/><text x="-72.32" y="-13.4"/><path class="cls-4" d="M761.05,31.39l-2.72-18c0,.58-.3,7,0,0l-2.73,18C717,202.28,321.77,297.24,326.87,621.73c2.23,141.42,107.32,256.1,239.71,256.1,59.88,0,142.79-28.65,184.81-67.44-17.86,108.86-135.2,178-135.2,178H905.54S799,916,779.15,810.39C820.31,846,893,877.83,950.08,877.83c132.38,0,237.47-114.68,239.7-256.1C1194.88,297.24,799.66,202.28,761.05,31.39Z" transform="translate(-72.32 -13.4)"/><g class="cls-1"><path id="path2832-1" d="M1150.74,258.94c-51.57-14-105.38-25.37-158.83-21.1C832.7,250.57,819.62,318.62,862.44,469.46c34.89,122.91,137.7,167.41,249.62,155.46,51.59-5.51,91.1-38.14,114.6-87.1,24.81-51.67,46.06-107.28,51.45-164.6,7.21-76.76-71.18-99-127.37-114.28Z" transform="translate(-72.32 -13.4)"/><path d="M1077.67,628.79c-45.1,0-86.19-9.94-120.29-29.29-47.54-27-80.13-70.54-96.87-129.5-13-45.73-19.61-79.85-20.87-107.38-1.42-31.1,4.09-55.14,16.86-73.51,21.3-30.66,64.28-47.59,135.25-53.26,55.59-4.44,111.83,8.2,159.51,21.16h0c54.28,14.75,136.29,37,128.84,116.4-4.61,49-21,101.51-51.63,165.28-24.75,51.53-66,82.86-116.2,88.22A324.6,324.6,0,0,1,1077.67,628.79ZM1015,238.94q-11.49,0-23,.9c-69.69,5.57-111.72,22-132.29,51.55-23.1,33.25-21.77,84.68,4.58,177.52,16.44,57.91,48.4,100.68,95,127.11,41.91,23.78,94.64,33.08,152.5,26.91,48.75-5.2,88.89-35.73,113-86,30.41-63.34,46.7-115.42,51.25-163.93,3.13-33.22-9.64-58.85-39-78.34-26-17.29-61.21-26.85-86.87-33.82h0C1109.46,249.79,1062.41,238.94,1015,238.94Z" transform="translate(-72.32 -13.4)"/></g><g class="cls-1"><path id="path2832" d="M429,150.12c53.42,1.27,108.24,5.74,158.25,25.07,149,57.6,142.1,126.55,58,258.92C576.81,542,465.58,555.3,361.71,511.94c-47.88-20-76.44-62.54-85-116.16-9.05-56.6-13.55-116-2.37-172.44,15-75.63,96.46-74.61,154.67-73.22Z" transform="translate(-72.32 -13.4)"/><path d="M469.27,537c-34.71,0-71.42-7.8-108.33-23.22-46.57-19.44-77.19-61.24-86.21-117.69-11.17-69.85-11.92-124.87-2.36-173.14,15.48-78.19,100.44-76.17,156.67-74.83C478.44,149.3,536,153.21,588,173.33c66.41,25.67,102.78,54.15,114.45,89.61,7,21.25,5.42,45.87-4.8,75.26-9.06,26-25.15,56.85-50.63,97-32.86,51.74-76.52,84.2-129.77,96.5A212.66,212.66,0,0,1,469.27,537ZM405.34,151.76c-22.36,0-47.55,1.35-69.3,8-33.72,10.31-53.27,31.23-59.75,64-9.46,47.79-8.7,102.36,2.39,171.73,8.79,55,38.55,95.74,83.8,114.63C398.9,525.3,435.09,533,469.26,533a208.81,208.81,0,0,0,47.06-5.22c52.19-12,95-43.93,127.29-94.74,51.73-81.48,67.67-130.39,55-168.85-11.27-34.23-46.89-61.92-112.1-87.13C535.08,157.17,478,153.29,429,152.12,421.7,152,413.72,151.76,405.34,151.76Z" transform="translate(-72.32 -13.4)"/></g><path id="path2830" d="M1133.16,219.78c-93.83-13-188.77,5.48-282.61,4.73-39.17-.32-78.93-4.79-116.69-15.29-50.19-14-97.18-38.51-147.15-53.71C542,141.92,496.85,127.94,450.93,121c-80.24-12.21-161.87,3.61-242.74,6.79-3.62,24.85-12.94,56.07-3.72,75.24,9.52,19.79,27.61,39.24,29.37,64.43a978,978,0,0,0,28.75,176.82c7.26,28.06,25.56,49.55,47.14,65.66,52,38.79,118.08,53,181.37,52.4,90.13-.86,148.33-65.24,196.67-141.45,18.48-31.15,25.57-69.17,48-96.84,13.29-16.43,37-5.25,54.73-2.73S818.6,357.79,821,379.76c8.56,77.76,29.45,162,88.25,210.63,87.8,72.65,241.17,83.78,319.07-12.84,30.49-37.82,44.55-87,63.65-132.11,11.62-27.43,23.25-60.46,52.1-72.27,11.65-4.77,7.8-31.12,11.52-45.56,4.05-15.75,9.43-29.4-11.2-35.62-36-10.83-69.24-32.69-106.07-43.82C1203.43,237.63,1169.6,224.81,1133.16,219.78Z" transform="translate(-72.32 -13.4)"/><path id="svg_2" data-name="svg 2" class="cls-5" d="M396.57,196.92C387,198,377.1,199,367.64,199.23c-28.2.7-28.93-2.42-17.7-9.92,9.16-6.12,28.62-9.07,48.37-9.42,9.11-.16,15.41,1.06,18.46,3.19,3.21,2.24,5.7,4.71,5.31,7.38-.53,3.58-15.09,5.28-25.51,6.46Z" transform="translate(-72.32 -13.4)"/><path id="svg_3" data-name="svg 3" class="cls-5" d="M986.2,276.44c-10.56,1.11-21.48,2.15-31.92,2.56-31.09,1.24-31.85-1.3-19.35-7.73,10.18-5.23,31.66-8.11,53.44-8.86,10-.35,17,.51,20.29,2.19,3.51,1.77,6.21,3.73,5.74,5.93-.63,3-16.7,4.69-28.2,5.91Z" transform="translate(-72.32 -13.4)"/><g class="cls-6"><ellipse class="cls-7" cx="345.01" cy="413.31" rx="71.5" ry="70.69"/><path d="M474.23,286.45a3.78,3.78,0,0,0-.53-.83h0l-22.52-27.7a4,4,0,0,0-1.84-1.3h0l-.14-.05a4,4,0,0,0-1.24-.16H387.23a4.14,4.14,0,0,0-1.21.15l-.2.07a4,4,0,0,0-1.82,1.29l-22.52,27.7h0a3.84,3.84,0,0,0-.53.84,4,4,0,0,0,.57,4.27l53,62.57.09.09a3.84,3.84,0,0,0,.46.44l.12.1a3.86,3.86,0,0,0,.65.39l.17.07a3.58,3.58,0,0,0,.58.19l.2.05a4.15,4.15,0,0,0,.78.09h0a4,4,0,0,0,.78-.09l.21-.05a3.93,3.93,0,0,0,.58-.19l.16-.07a3.86,3.86,0,0,0,.65-.39,1.27,1.27,0,0,0,.13-.11,4.6,4.6,0,0,0,.46-.43s.06-.05.08-.09l53-62.57A4,4,0,0,0,474.23,286.45Zm-24.54-17.72,12.52,15.4H445Zm-47.63,23.4h31.08l-15.55,46.06Zm40.43-27.73-5,14.74L425.87,264.4Zm-11.22,19.73H403.74l13.85-17.31Zm-22-19.73L397.62,279l-4.91-14.57Zm-23.77,4.33,4.73,15.4H373Zm8.1,23.4,13.49,40-33.89-40Zm34.46,40,13.5-40H462Z" transform="translate(-72.32 -13.4)"/></g><ellipse class="cls-8" cx="339.01" cy="406.31" rx="71.5" ry="70.69"/><path class="cls-9" d="M468.23,279.45a3.78,3.78,0,0,0-.53-.83h0l-22.52-27.7a4,4,0,0,0-1.84-1.3h0l-.14-.05a4,4,0,0,0-1.24-.16H411.61s0,0,0,0H381.23a4.14,4.14,0,0,0-1.21.15l-.2.07a4,4,0,0,0-1.82,1.29l-22.52,27.7h0a3.84,3.84,0,0,0-.53.84,4,4,0,0,0,.57,4.27l53,62.57.09.09a3.84,3.84,0,0,0,.46.44l.12.1a3.86,3.86,0,0,0,.65.39l.17.07a3.58,3.58,0,0,0,.58.19l.2.05a4.15,4.15,0,0,0,.78.09h0a4,4,0,0,0,.78-.09l.21-.05a3.93,3.93,0,0,0,.58-.19l.16-.07a3.86,3.86,0,0,0,.65-.39,1.27,1.27,0,0,0,.13-.11,4.6,4.6,0,0,0,.46-.43s.06-.05.08-.09l53-62.57A4,4,0,0,0,468.23,279.45Zm-24.54-17.72,12.52,15.4H439Zm-47.63,23.4h31.08l-15.55,46.06Zm40.43-27.73-5,14.74L419.87,257.4Zm-11.22,19.73H397.74l13.85-17.31Zm-22-19.73L391.62,272l-4.91-14.57Zm-23.77,4.33,4.73,15.4H367Zm8.1,23.4,13.49,40-33.89-40Zm34.46,40,13.5-40H456Z" transform="translate(-72.32 -13.4)"/><rect class="cls-3" x="801.81" y="49.28" width="134.23" height="134.23" rx="11.84" transform="translate(-73.71 -2.47) rotate(-0.72)"/><path class="cls-4" d="M920.19,149.28A13.82,13.82,0,1,1,903,140,13.82,13.82,0,0,1,920.19,149.28ZM904,65.41a13.82,13.82,0,1,0,15.58,11.8A13.83,13.83,0,0,0,904,65.41Zm-37.05,37a13.82,13.82,0,1,0,15.58,11.8A13.83,13.83,0,0,0,866.92,102.4Zm-37-36.06a13.82,13.82,0,1,0,15.58,11.8A13.83,13.83,0,0,0,829.94,66.34Zm.92,73a13.82,13.82,0,1,0,15.58,11.8A13.83,13.83,0,0,0,830.86,139.38Z" transform="translate(-72.32 -13.4)"/><line class="cls-2" x1="522.51" y1="223" x2="1079.51" y2="223"/><text class="cls-10" transform="translate(372.31 777.87) rotate(-4.16) scale(0.87 1)">THE U<tspan class="cls-11" x="225.47" y="0">LT</tspan><tspan x="309.96" y="0">IM</tspan><tspan class="cls-11" x="401.38" y="0">AT</tspan><tspan class="cls-12" x="492.72" y="0">E HEIST</tspan></text><g class="cls-6"><path d="M594.21,417.71a46.3,46.3,0,0,1-3.17,18,35.51,35.51,0,0,1-8.45,12.5,34,34,0,0,1-12,7.3,40.05,40.05,0,0,1-13.55,2.38H544.93v45.41H517.3V378.64H556a48.89,48.89,0,0,1,13.46,1.94A34.45,34.45,0,0,1,581.8,387a32.31,32.31,0,0,1,9,12.06Q594.2,406.62,594.21,417.71Zm-26.4.53q0-8.44-4-12.14a14.06,14.06,0,0,0-9.86-3.7h-9V435h9a13,13,0,0,0,9.86-4.31Q567.81,426.33,567.81,418.24Zm39.6,85V378.64H667.6v24.82H634.33v24.46H665v23.23H634.33V477.9h35.38v25.35Zm129.09,0-16.66-49.63H711.6v49.63H684.49V378.64h39.86q18.09,0,28.1,9.42t10,28.07a44.46,44.46,0,0,1-1.58,12.32,34.31,34.31,0,0,1-4.12,9.33,26.25,26.25,0,0,1-5.7,6.33,21.9,21.9,0,0,1-6.14,3.52l21.24,55.62Zm-1.67-85.54a19.3,19.3,0,0,0-1.32-7.74,12.75,12.75,0,0,0-3.43-4.75,11.35,11.35,0,0,0-4.67-2.38,21.33,21.33,0,0,0-5-.62h-8.8v31.51h8.27a15.71,15.71,0,0,0,10.47-3.79Q734.83,426.16,734.83,417.71Zm98.38,85.54-5.1-22.71h-28L795,503.25H766.86l30.27-124.61h35.38L862.6,503.25Zm-18.66-97.51h-.7l-10.56,53h21.3Zm93.29-3.16V503.25H880.21V402.58H857.33V378.64h73.39v23.94Zm32,100.67V378.64H968.2V503.25Zm139.39-62.66a102.32,102.32,0,0,1-3.35,27,64.94,64.94,0,0,1-9.5,20.85,43.67,43.67,0,0,1-15.05,13.38,44.38,44.38,0,0,1-39.95,0,43.67,43.67,0,0,1-15-13.38,64.94,64.94,0,0,1-9.5-20.85,111.37,111.37,0,0,1-.09-53.86,62.82,62.82,0,0,1,9.42-20.59,41.69,41.69,0,0,1,35.2-17.86,42.29,42.29,0,0,1,20,4.66,43.13,43.13,0,0,1,15.05,13.2,64.16,64.16,0,0,1,9.5,20.59A100.35,100.35,0,0,1,1079.26,440.59Zm-28.87,0a86.6,86.6,0,0,0-1.23-15,48.41,48.41,0,0,0-3.61-12.05,22.52,22.52,0,0,0-5.89-8,12.59,12.59,0,0,0-8.27-2.9,12.91,12.91,0,0,0-8.36,2.9,22,22,0,0,0-6,8,46.47,46.47,0,0,0-3.52,12.05,93.27,93.27,0,0,0-1.14,15,94.78,94.78,0,0,0,1.14,15.14,46.49,46.49,0,0,0,3.52,12.14,22.82,22.82,0,0,0,6,8.1,12.72,12.72,0,0,0,8.36,3,12.41,12.41,0,0,0,8.27-3,23.36,23.36,0,0,0,5.89-8.1,48.39,48.39,0,0,0,3.61-12.14A88,88,0,0,0,1050.39,440.59Zm98,62.66-28.87-75.86H1119l.71,75.86h-25.17V378.64h31l28.68,76.91h.53l-.53-76.91h24.29V503.25Zm-600.5,48.29v25.52h29.74v24.11H548.11V650.8H519.59V526.2h60.72v25.34Zm98,99.26-16.67-49.63H621V650.8H593.86V526.2h39.87q18.07,0,28.09,9.41t10,28.07A44.36,44.36,0,0,1,670.25,576a34,34,0,0,1-4.12,9.33,25.9,25.9,0,0,1-5.7,6.34,22.41,22.41,0,0,1-6.14,3.52l21.24,55.61Zm-1.68-85.53a19.39,19.39,0,0,0-1.32-7.75,12.8,12.8,0,0,0-3.43-4.75,11.6,11.6,0,0,0-4.67-2.38,21.85,21.85,0,0,0-5-.61H621v31.5h8.27a15.75,15.75,0,0,0,10.47-3.78Q644.21,573.72,644.2,565.27ZM778,588.15a102.24,102.24,0,0,1-3.35,27,65,65,0,0,1-9.5,20.86,43.53,43.53,0,0,1-15.05,13.37,44.29,44.29,0,0,1-39.95,0A43.53,43.53,0,0,1,695.06,636a65,65,0,0,1-9.5-20.86,111.33,111.33,0,0,1-.09-53.85,62.88,62.88,0,0,1,9.42-20.6,41.69,41.69,0,0,1,35.2-17.86,42.41,42.41,0,0,1,20,4.66,43.23,43.23,0,0,1,15.05,13.2,64.22,64.22,0,0,1,9.5,20.6A100.3,100.3,0,0,1,778,588.15Zm-28.87,0a86.51,86.51,0,0,0-1.23-15A48.49,48.49,0,0,0,744.25,561a22.52,22.52,0,0,0-5.89-8,12.64,12.64,0,0,0-8.27-2.9,13,13,0,0,0-8.36,2.9,22,22,0,0,0-6,8,46.55,46.55,0,0,0-3.52,12.06,93.18,93.18,0,0,0-1.14,15,94.74,94.74,0,0,0,1.14,15.13,46.45,46.45,0,0,0,3.52,12.15,22.78,22.78,0,0,0,6,8.09,12.67,12.67,0,0,0,8.36,3,12.36,12.36,0,0,0,8.27-3,23.32,23.32,0,0,0,5.89-8.09,48.35,48.35,0,0,0,3.61-12.15A88,88,0,0,0,749.09,588.15Zm95.75-32.21a22.4,22.4,0,0,0-7.39-5.72,20.13,20.13,0,0,0-8.8-2,13.43,13.43,0,0,0-8.54,3q-3.78,3-3.78,9.88a11.22,11.22,0,0,0,3.87,9.07,61.75,61.75,0,0,0,11.44,7.14c2.83,1.42,5.82,3.09,8.94,5a41.19,41.19,0,0,1,8.6,7.14,36.18,36.18,0,0,1,6.47,10.13,35,35,0,0,1,2.56,14A45.78,45.78,0,0,1,855,631.32,35.64,35.64,0,0,1,846.43,644,36.11,36.11,0,0,1,834,651.59a42.89,42.89,0,0,1-14.64,2.56,48.71,48.71,0,0,1-20.51-4.23,50.49,50.49,0,0,1-14.87-9.85L798.38,619a32.18,32.18,0,0,0,9.32,6.77,24.47,24.47,0,0,0,10.74,2.56,12.05,12.05,0,0,0,8.62-3.35q3.53-3.34,3.52-9.33a12.22,12.22,0,0,0-4.22-9.77A63,63,0,0,0,814,598.18a78.05,78.05,0,0,1-9.59-5.46,35.47,35.47,0,0,1-7.92-7.21,31.88,31.88,0,0,1-5.37-9.86,41.23,41.23,0,0,1-1.94-13.37,42.71,42.71,0,0,1,3.43-17.87,35,35,0,0,1,9-12.23,36.83,36.83,0,0,1,12.32-7,42.26,42.26,0,0,1,13.64-2.29,47.9,47.9,0,0,1,18.3,3.32,38.61,38.61,0,0,1,13.56,9.09Zm84.83,94.86V598.71h-29V650.8h-28V526.2h28v47.16h29V526.2h28V650.8Z" transform="translate(-72.32 -13.4)"/></g><path class="cls-3" d="M582.21,408.71a46.3,46.3,0,0,1-3.17,18,35.51,35.51,0,0,1-8.45,12.5,34,34,0,0,1-12,7.3,40.05,40.05,0,0,1-13.55,2.38H532.93v45.41H505.3V369.64H544a48.89,48.89,0,0,1,13.46,1.94A34.45,34.45,0,0,1,569.8,378a32.31,32.31,0,0,1,9,12.06Q582.2,397.62,582.21,408.71Zm-26.4.53q0-8.44-4-12.14a14.06,14.06,0,0,0-9.86-3.7h-9V426h9a13,13,0,0,0,9.86-4.31Q555.81,417.33,555.81,409.24Zm39.6,85V369.64H655.6v24.82H622.33v24.46H653v23.23H622.33V468.9h35.38v25.35Zm129.09,0-16.66-49.63H699.6v49.63H672.49V369.64h39.86q18.09,0,28.1,9.42t10,28.07a44.46,44.46,0,0,1-1.58,12.32,34.31,34.31,0,0,1-4.12,9.33,26.25,26.25,0,0,1-5.7,6.33,21.9,21.9,0,0,1-6.14,3.52l21.24,55.62Zm-1.67-85.54a19.3,19.3,0,0,0-1.32-7.74,12.75,12.75,0,0,0-3.43-4.75,11.35,11.35,0,0,0-4.67-2.38,21.33,21.33,0,0,0-5-.62h-8.8v31.51h8.27a15.71,15.71,0,0,0,10.47-3.79Q722.83,417.16,722.83,408.71Zm98.38,85.54-5.1-22.71h-28L783,494.25H754.86l30.27-124.61h35.38L850.6,494.25Zm-18.66-97.51h-.7l-10.56,53h21.3Zm93.29-3.16V494.25H868.21V393.58H845.33V369.64h73.39v23.94Zm32,100.67V369.64H956.2V494.25Zm139.39-62.66a102.32,102.32,0,0,1-3.35,27,64.94,64.94,0,0,1-9.5,20.85,43.67,43.67,0,0,1-15.05,13.38,44.38,44.38,0,0,1-39.95,0,43.67,43.67,0,0,1-15-13.38,64.94,64.94,0,0,1-9.5-20.85,111.37,111.37,0,0,1-.09-53.86,62.82,62.82,0,0,1,9.42-20.59,41.69,41.69,0,0,1,35.2-17.86,42.29,42.29,0,0,1,20,4.66,43.13,43.13,0,0,1,15.05,13.2,64.16,64.16,0,0,1,9.5,20.59A100.35,100.35,0,0,1,1067.26,431.59Zm-28.87,0a86.6,86.6,0,0,0-1.23-15,48.41,48.41,0,0,0-3.61-12.05,22.52,22.52,0,0,0-5.89-8,12.59,12.59,0,0,0-8.27-2.9,12.91,12.91,0,0,0-8.36,2.9,22,22,0,0,0-6,8,46.47,46.47,0,0,0-3.52,12.05,93.27,93.27,0,0,0-1.14,15,94.78,94.78,0,0,0,1.14,15.14,46.49,46.49,0,0,0,3.52,12.14,22.82,22.82,0,0,0,6,8.1,12.72,12.72,0,0,0,8.36,3,12.41,12.41,0,0,0,8.27-3,23.36,23.36,0,0,0,5.89-8.1,48.39,48.39,0,0,0,3.61-12.14A88,88,0,0,0,1038.39,431.59Zm98,62.66-28.87-75.86H1107l.71,75.86h-25.17V369.64h31l28.68,76.91h.53l-.53-76.91h24.29V494.25Zm-600.5,48.29v25.52h29.74v24.11H536.11V641.8H507.59V517.2h60.72v25.34Zm98,99.26-16.67-49.63H609V641.8H581.86V517.2h39.87q18.07,0,28.09,9.41t10,28.07A44.36,44.36,0,0,1,658.25,567a34,34,0,0,1-4.12,9.33,25.9,25.9,0,0,1-5.7,6.34,22.41,22.41,0,0,1-6.14,3.52l21.24,55.61Zm-1.68-85.53a19.39,19.39,0,0,0-1.32-7.75,12.8,12.8,0,0,0-3.43-4.75,11.6,11.6,0,0,0-4.67-2.38,21.85,21.85,0,0,0-5-.61H609v31.5h8.27a15.75,15.75,0,0,0,10.47-3.78Q632.21,564.72,632.2,556.27ZM766,579.15a102.24,102.24,0,0,1-3.35,27,65,65,0,0,1-9.5,20.86,43.53,43.53,0,0,1-15.05,13.37,44.29,44.29,0,0,1-39.95,0A43.53,43.53,0,0,1,683.06,627a65,65,0,0,1-9.5-20.86,111.33,111.33,0,0,1-.09-53.85,62.88,62.88,0,0,1,9.42-20.6,41.69,41.69,0,0,1,35.2-17.86,42.41,42.41,0,0,1,20,4.66,43.23,43.23,0,0,1,15.05,13.2,64.22,64.22,0,0,1,9.5,20.6A100.3,100.3,0,0,1,766,579.15Zm-28.87,0a86.51,86.51,0,0,0-1.23-15A48.49,48.49,0,0,0,732.25,552a22.52,22.52,0,0,0-5.89-8,12.64,12.64,0,0,0-8.27-2.9,13,13,0,0,0-8.36,2.9,22,22,0,0,0-6,8,46.55,46.55,0,0,0-3.52,12.06,93.18,93.18,0,0,0-1.14,15,94.74,94.74,0,0,0,1.14,15.13,46.45,46.45,0,0,0,3.52,12.15,22.78,22.78,0,0,0,6,8.09,12.67,12.67,0,0,0,8.36,3,12.36,12.36,0,0,0,8.27-3,23.32,23.32,0,0,0,5.89-8.09,48.35,48.35,0,0,0,3.61-12.15A88,88,0,0,0,737.09,579.15Zm95.75-32.21a22.4,22.4,0,0,0-7.39-5.72,20.13,20.13,0,0,0-8.8-2,13.43,13.43,0,0,0-8.54,3q-3.78,3-3.78,9.88a11.22,11.22,0,0,0,3.87,9.07,61.75,61.75,0,0,0,11.44,7.14c2.83,1.42,5.82,3.09,8.94,5a41.19,41.19,0,0,1,8.6,7.14,36.18,36.18,0,0,1,6.47,10.13,35,35,0,0,1,2.56,14A45.78,45.78,0,0,1,843,622.32,35.64,35.64,0,0,1,834.43,635,36.11,36.11,0,0,1,822,642.59a42.89,42.89,0,0,1-14.64,2.56,48.71,48.71,0,0,1-20.51-4.23,50.49,50.49,0,0,1-14.87-9.85L786.38,610a32.18,32.18,0,0,0,9.32,6.77,24.47,24.47,0,0,0,10.74,2.56,12.05,12.05,0,0,0,8.62-3.35q3.53-3.34,3.52-9.33a12.22,12.22,0,0,0-4.22-9.77A63,63,0,0,0,802,589.18a78.05,78.05,0,0,1-9.59-5.46,35.47,35.47,0,0,1-7.92-7.21,31.88,31.88,0,0,1-5.37-9.86,41.23,41.23,0,0,1-1.94-13.37,42.71,42.71,0,0,1,3.43-17.87,35,35,0,0,1,9-12.23,36.83,36.83,0,0,1,12.32-7,42.26,42.26,0,0,1,13.64-2.29,47.9,47.9,0,0,1,18.3,3.32,38.61,38.61,0,0,1,13.56,9.09Zm84.83,94.86V589.71h-29V641.8h-28V517.2h28v47.16h29V517.2h28V641.8Z" transform="translate(-72.32 -13.4)"/><text x="-72.32" y="-13.4"/><line class="cls-2" x1="222.51" y1="223" x2="254.51" y2="239"/><path class="cls-3" d="M363.4,221.81l.72,1.89a27.39,27.39,0,0,0,8.71,11.78h0a28.11,28.11,0,0,0-8.84,12.1l-.59,1.56-.58-1.56a28.11,28.11,0,0,0-8.84-12.1h0a28.14,28.14,0,0,0,8.84-12.11Z" transform="translate(-72.32 -13.4)"/><path class="cls-3" d="M468.7,265.25l1.09,2.84a41.25,41.25,0,0,0,13.13,17.79h0a42.49,42.49,0,0,0-13.33,18.27l-.89,2.36-.89-2.36a42.49,42.49,0,0,0-13.33-18.27h0a42.46,42.46,0,0,0,13.33-18.28Z" transform="translate(-72.32 -13.4)"/><path class="cls-3" d="M356.3,300.12l1.23,3.2a46.43,46.43,0,0,0,14.79,20h0a47.68,47.68,0,0,0-15,20.58l-1,2.65-1-2.65a47.74,47.74,0,0,0-15-20.58h0a47.86,47.86,0,0,0,15-20.58Z" transform="translate(-72.32 -13.4)"/><polygon points="644.81 616.02 610 565.66 644.81 515.3 679.62 565.66 644.81 616.02"/><polygon class="cls-4" points="947.06 466.56 912.25 416.19 947.06 365.83 981.87 416.19 947.06 466.56"/><rect class="cls-3" x="372.66" y="591.27" width="94.43" height="94.43" rx="8.33" transform="translate(-244.78 142.29) rotate(-17.49)"/><path class="cls-4" d="M461.07,650.22a9.72,9.72,0,1,1-13.47-2.72A9.73,9.73,0,0,1,461.07,650.22Zm-77.61-37.54a9.72,9.72,0,1,0,12.88,4.78A9.71,9.71,0,0,0,383.46,612.68Zm32,16.9a9.72,9.72,0,1,0,12.89,4.79A9.72,9.72,0,0,0,415.49,629.58Z" transform="translate(-72.32 -13.4)"/><rect class="cls-3" x="915.57" y="848.17" width="69.57" height="69.57" rx="6.14" transform="translate(-418.75 835.78) rotate(-41.4)"/><path class="cls-4" d="M955.17,877.45a7.16,7.16,0,1,0,.63,10.1A7.17,7.17,0,0,0,955.17,877.45Z" transform="translate(-72.32 -13.4)"/></g></g></svg>