<?xml version="1.0" standalone="no"?>
<!DOCTYPE svg PUBLIC "-//W3C//DTD SVG 20010904//EN"
 "http://www.w3.org/TR/2001/REC-SVG-20010904/DTD/svg10.dtd">
<svg version="1.0" xmlns="http://www.w3.org/2000/svg"
 width="213.000000pt" height="204.000000pt" viewBox="0 0 213.000000 204.000000"
 preserveAspectRatio="xMidYMid meet">
<metadata>
Created by potrace 1.16, written by Peter Selinger 2001-2019
</metadata>
<g transform="translate(0.000000,204.000000) scale(0.100000,-0.100000)"
fill="#000000" stroke="none">
<path d="M875 1933 c-161 -13 -349 -65 -483 -132 l-80 -40 -7 -174 c-16 -381
28 -670 134 -894 88 -182 203 -341 317 -433 98 -79 266 -190 278 -183 140 82
308 216 377 300 261 317 357 665 334 1210 l-7 174 -77 38 c-218 109 -504 158
-786 134z m269 -213 c17 -6 26 -17 26 -32 l0 -22 -20 22 c-44 47 -119 17 -134
-54 -14 -65 43 -133 101 -122 24 4 33 78 9 78 -8 0 -18 5 -21 10 -4 6 17 10
57 9 53 0 59 -2 41 -11 -18 -9 -23 -20 -23 -48 0 -44 -10 -50 -80 -50 -87 0
-130 38 -130 114 0 76 97 136 174 106z m-314 -9 c0 -5 -9 -11 -20 -14 -18 -5
-20 -14 -20 -85 0 -72 2 -83 22 -96 21 -15 20 -16 -37 -16 -50 0 -56 2 -41 13
14 10 16 25 14 82 l-3 70 -30 -73 c-16 -41 -34 -74 -38 -75 -4 -1 -23 32 -42
73 l-35 75 0 -72 c0 -57 3 -74 17 -81 12 -7 5 -11 -30 -13 -26 -2 -47 -1 -47
3 0 5 6 8 14 8 19 0 26 32 26 117 0 60 -3 72 -17 76 -10 3 0 5 23 6 l41 1 28
-65 c15 -36 30 -65 34 -65 3 0 17 28 30 63 13 34 29 65 35 69 16 11 76 10 76
-1z m263 -400 l28 -1 -3 -82 -3 -83 -85 -2 c-47 -1 -91 3 -97 9 -14 11 -18
125 -5 145 8 13 51 20 102 18 19 -1 48 -3 63 -4z m-130 -262 l55 60 57 -61 57
-61 62 62 62 61 52 -59 c33 -38 52 -69 52 -85 0 -43 -48 -178 -91 -255 -42
-75 -176 -225 -223 -251 -24 -12 -29 -10 -82 31 -118 90 -230 262 -273 418
l-20 73 56 64 57 64 61 -60 62 -61 56 60z"/>
<path d="M784 938 c-30 -48 17 -157 68 -158 21 0 26 4 21 16 -5 14 1 16 38 12
24 -3 53 -8 64 -13 18 -8 18 -7 7 8 -8 9 -11 21 -7 27 4 6 -6 10 -24 10 -32 0
-41 16 -19 38 9 9 9 12 -1 12 -7 0 -9 5 -5 12 5 8 2 9 -12 4 -10 -4 -31 -10
-46 -13 -23 -5 -28 -2 -28 15 0 12 -9 26 -19 32 -25 13 -28 13 -37 -2z"/>
<path d="M1057 934 c-16 -16 -7 -91 13 -109 10 -9 19 -20 18 -24 -2 -21 5 -28
32 -28 21 0 29 5 26 13 -7 17 37 26 69 14 37 -14 50 -13 36 3 -6 8 -8 17 -4
20 3 4 -5 7 -20 7 -29 0 -44 17 -29 32 5 5 8 18 5 28 -4 16 -8 17 -37 5 -36
-15 -52 -10 -57 20 -4 20 -38 32 -52 19z"/>
<path d="M929 740 c-21 -12 -15 -91 8 -108 10 -7 19 -17 19 -22 1 -6 2 -14 3
-20 0 -5 15 -10 32 -10 24 0 30 3 25 16 -5 14 1 15 36 12 24 -3 51 -8 62 -13
16 -7 17 -6 7 13 -8 15 -8 22 2 25 6 3 -5 6 -25 6 -38 1 -49 16 -28 37 5 5 5
15 1 23 -7 10 -13 10 -29 2 -32 -17 -52 -13 -61 13 -11 27 -31 37 -52 26z"/>
</g>
</svg>
