<?xml version="1.0" standalone="no"?>
<!DOCTYPE svg PUBLIC "-//W3C//DTD SVG 20010904//EN"
 "http://www.w3.org/TR/2001/REC-SVG-20010904/DTD/svg10.dtd">
<svg version="1.0" xmlns="http://www.w3.org/2000/svg"
 width="480.000000pt" height="360.000000pt" viewBox="0 0 480.000000 360.000000"
 preserveAspectRatio="xMidYMid meet">
<metadata>
Created by potrace 1.16, written by Peter Selinger 2001-2019
</metadata>
<g transform="translate(0.000000,360.000000) scale(0.100000,-0.100000)"
fill="#000000" stroke="none">
<path d="M665 2209 c-33 -10 -68 -22 -79 -25 -17 -7 -18 -18 -13 -173 4 -153
7 -172 35 -246 16 -44 44 -108 62 -142 62 -118 215 -262 264 -249 13 3 57 37
98 75 170 160 249 382 231 650 -6 90 -7 90 -117 116 -96 23 -403 19 -481 -6z
m308 -25 l37 -7 0 -73 0 -74 -90 0 -90 0 0 74 c0 74 0 75 28 79 46 7 75 7 115
1z m267 -313 c0 -34 -35 -143 -67 -206 -54 -109 -144 -216 -226 -270 -27 -17
-27 -17 -84 26 -114 88 -218 247 -259 397 l-17 62 49 54 c27 30 53 54 59 55 5
1 33 -23 63 -51 l53 -53 49 53 c27 28 53 52 58 52 6 0 31 -24 56 -52 l45 -53
58 58 58 58 52 -58 c29 -32 53 -64 53 -72z"/>
<path d="M690 1796 c0 -25 5 -48 11 -51 5 -4 14 -18 19 -31 7 -18 17 -24 40
-24 19 0 29 5 28 13 -3 14 43 16 82 3 21 -8 23 -7 13 6 -7 8 -10 18 -6 21 3 4
-5 7 -20 7 -29 0 -44 17 -29 32 19 19 3 38 -25 27 -38 -14 -50 -11 -57 16 -5
18 -13 25 -31 25 -23 0 -25 -4 -25 -44z"/>
<path d="M954 1832 c-17 -11 -13 -75 6 -97 10 -11 19 -26 22 -34 6 -20 58 -24
58 -4 0 12 9 14 38 11 20 -3 46 -9 57 -13 18 -8 18 -7 7 8 -8 9 -10 22 -6 28
5 9 2 10 -9 6 -31 -12 -47 2 -40 35 6 30 5 31 -23 24 -51 -13 -64 -10 -64 13
0 10 -7 22 -16 25 -19 7 -17 7 -30 -2z"/>
<path d="M833 1653 c-8 -3 -13 -23 -13 -48 0 -34 5 -47 20 -55 11 -6 20 -20
20 -30 0 -15 7 -20 30 -20 22 0 28 4 24 15 -7 18 39 21 81 5 23 -9 26 -8 21 6
-3 8 -6 18 -6 20 0 2 -8 4 -19 4 -23 0 -46 25 -32 34 13 9 2 38 -13 33 -49
-18 -55 -18 -68 9 -14 29 -25 36 -45 27z"/>
<path d="M2981 2159 c-171 -30 -281 -158 -281 -327 0 -97 24 -156 90 -222 75
-75 136 -95 285 -95 121 0 192 16 231 52 22 20 24 30 24 111 0 96 7 112 51
112 36 0 58 26 38 44 -11 11 -49 12 -174 7 -153 -6 -160 -7 -163 -27 -3 -22
19 -34 65 -34 42 0 56 -27 50 -97 -8 -81 -17 -97 -65 -112 -32 -11 -47 -11
-78 -1 -107 35 -168 92 -197 183 -21 67 -21 91 -1 173 23 89 80 154 159 179
97 30 172 4 216 -75 14 -24 30 -40 41 -40 15 0 18 9 18 63 0 68 -4 78 -37 95
-29 16 -206 23 -272 11z"/>
<path d="M3766 2146 c-68 -26 -79 -41 -45 -67 24 -18 24 -19 27 -251 4 -216 2
-234 -15 -249 -39 -35 -94 -28 -126 15 -4 6 -7 88 -6 181 2 142 0 170 -12 173
-8 1 -23 -6 -34 -16 -11 -9 -41 -26 -67 -36 -53 -19 -63 -45 -25 -61 21 -9 22
-16 25 -133 l3 -123 -36 -15 c-44 -18 -45 -49 -2 -48 15 0 131 1 257 2 223 2
230 3 230 22 0 11 -5 20 -11 20 -6 0 -24 9 -40 21 l-29 20 -2 282 c-3 241 -5
282 -18 284 -8 1 -42 -8 -74 -21z"/>
<path d="M4058 2147 c-80 -31 -89 -42 -56 -70 l26 -22 6 -231 c6 -213 6 -231
-11 -246 -10 -9 -27 -18 -38 -20 -29 -5 -27 -43 3 -42 12 0 72 1 132 2 90 2
110 5 110 17 0 8 -18 24 -40 35 l-40 20 -1 143 c-2 248 -8 417 -14 427 -8 13
-10 13 -77 -13z"/>
<path d="M2174 2143 c-95 -4 -101 -9 -133 -98 -13 -33 -29 -73 -36 -90 -8 -16
-30 -70 -48 -118 -37 -96 -38 -97 -77 -12 -12 28 -40 86 -60 130 -21 44 -47
101 -58 126 -12 26 -27 49 -34 51 -10 3 -173 2 -210 -1 -5 -1 -8 -9 -8 -19 0
-13 14 -23 48 -33 l47 -15 -1 -70 c-1 -38 -5 -145 -11 -237 -10 -185 -7 -178
-78 -202 -16 -5 -30 -17 -30 -25 0 -13 23 -15 142 -15 131 0 143 2 143 18 0
10 -8 20 -17 23 -80 25 -80 25 -88 126 -3 51 -5 138 -3 192 l3 100 99 -218
c85 -185 102 -216 119 -214 16 2 38 47 108 223 l88 220 1 -115 c0 -63 3 -152
7 -197 l6 -83 -46 -20 c-51 -23 -63 -35 -46 -45 13 -9 328 -10 336 -1 13 12
-8 33 -44 44 -72 22 -72 21 -73 271 -1 204 0 224 17 237 10 7 30 14 44 14 31
0 54 23 45 45 -3 10 -17 14 -38 13 -18 -1 -70 -4 -114 -5z"/>
<path d="M2447 1946 c-85 -31 -138 -94 -158 -185 -9 -44 -8 -60 6 -97 34 -90
109 -144 201 -144 50 0 151 41 161 66 8 22 -15 34 -44 23 -14 -5 -46 -9 -73
-9 -126 0 -184 162 -98 271 20 25 57 41 78 34 11 -3 33 -20 50 -36 22 -22 37
-29 57 -27 24 3 28 8 31 39 4 52 -22 71 -105 75 -43 3 -82 -1 -106 -10z"/>
</g>
</svg>
