<?xml version="1.0" standalone="no"?>
<!DOCTYPE svg PUBLIC "-//W3C//DTD SVG 20010904//EN"
 "http://www.w3.org/TR/2001/REC-SVG-20010904/DTD/svg10.dtd">
<svg version="1.0" xmlns="http://www.w3.org/2000/svg"
 width="512.000000pt" height="330.000000pt" viewBox="0 0 512.000000 330.000000"
 preserveAspectRatio="xMidYMid meet">
<metadata>
Created by potrace 1.16, written by Peter Selinger 2001-2019
</metadata>
<g transform="translate(0.000000,330.000000) scale(0.100000,-0.100000)"
fill="#000000" stroke="none">
<path d="M1122 3243 c-11 -27 -22 -57 -24 -68 -2 -11 -14 -25 -28 -32 -17 -9
-20 -13 -8 -13 19 0 58 -45 58 -67 0 -23 -49 -65 -73 -62 -12 2 -32 -2 -44 -9
-31 -17 -99 -15 -117 4 -29 29 -10 94 27 94 27 1 -20 20 -49 20 -17 0 -38 8
-48 19 -16 18 -56 35 -56 24 0 -7 140 -256 148 -265 4 -4 39 0 77 8 39 8 115
15 170 15 88 0 126 -4 222 -26 19 -4 31 11 95 127 40 72 74 135 76 139 6 14
-37 -3 -54 -22 -10 -11 -31 -19 -48 -19 -29 0 -76 -19 -49 -20 19 0 43 -30 43
-54 0 -28 -35 -66 -61 -66 -11 0 -36 7 -57 16 -20 9 -47 16 -59 15 -27 -3 -73
40 -73 69 0 24 33 60 58 61 11 0 8 4 -10 10 -20 8 -28 19 -33 48 -7 40 -39
101 -54 101 -5 0 -18 -21 -29 -47z"/>
<path d="M2690 2940 l0 -230 30 0 29 0 3 153 3 152 24 -152 25 -153 32 0 c39
0 37 -5 60 155 9 66 20 129 25 140 4 11 8 -50 8 -137 l1 -158 30 0 30 0 0 230
0 230 -49 0 -48 0 -23 -160 c-13 -88 -27 -157 -31 -153 -4 5 -17 77 -30 161
l-23 152 -48 0 -48 0 0 -230z"/>
<path d="M3083 3155 c-33 -23 -43 -75 -43 -215 0 -182 17 -224 94 -237 77 -12
126 39 126 132 0 46 0 46 -32 43 -31 -3 -33 -5 -36 -48 -4 -61 -35 -86 -66
-54 -13 13 -16 42 -16 158 0 156 7 181 51 174 21 -3 24 -9 27 -45 3 -42 4 -43
38 -43 31 0 34 2 34 30 0 42 -24 96 -48 109 -30 16 -104 13 -129 -4z"/>
<path d="M3335 3146 c-32 -32 -37 -68 -33 -240 l3 -148 34 -30 c30 -27 39 -30
79 -25 29 3 53 13 70 30 23 23 25 35 30 126 l5 101 -52 0 c-50 0 -51 -1 -51
-30 0 -20 5 -30 15 -30 12 0 15 -13 15 -60 0 -48 -4 -61 -19 -70 -25 -13 -27
-13 -45 6 -13 13 -16 42 -16 163 0 155 4 171 46 171 24 0 34 -17 34 -61 0 -27
3 -29 35 -29 39 0 44 14 25 82 -14 49 -43 68 -103 68 -37 0 -53 -5 -72 -24z"/>
<path d="M3570 2935 l0 -235 35 0 35 0 0 235 0 235 -35 0 -35 0 0 -235z"/>
<path d="M3700 2940 l0 -230 95 0 95 0 0 30 0 30 -65 0 -65 0 0 200 0 200 -30
0 -30 0 0 -230z"/>
<path d="M3920 2940 l0 -230 95 0 95 0 0 30 0 30 -60 0 -60 0 0 200 0 200 -35
0 -35 0 0 -230z"/>
<path d="M1015 2871 c-30 -5 -36 -8 -22 -13 29 -12 18 -53 -13 -53 -21 0 -25
5 -25 28 1 27 -9 35 -20 18 -3 -5 0 -21 7 -36 11 -25 15 -26 62 -20 136 17
137 17 125 31 -17 20 -3 44 25 44 27 0 37 -17 25 -42 -7 -14 -1 -17 44 -22 28
-4 69 -9 89 -12 31 -5 39 -2 53 20 17 25 13 46 -7 46 -5 0 -8 -7 -4 -15 15
-39 -28 -61 -55 -29 -11 14 -10 19 8 34 22 17 21 17 -30 24 -62 7 -206 6 -262
-3z"/>
<path d="M1017 2780 c-27 -5 -51 -11 -54 -14 -15 -15 95 -27 216 -24 139 3
180 12 146 30 -23 14 -248 19 -308 8z"/>
<path d="M850 2404 c0 -202 -3 -255 -13 -251 -7 2 -116 66 -242 140 -126 75
-230 135 -231 134 -1 -1 -68 -114 -149 -251 -132 -226 -145 -250 -128 -260 9
-6 112 -64 228 -129 115 -65 214 -122 218 -126 5 -5 -93 -68 -217 -141 -123
-72 -232 -137 -240 -143 -13 -10 5 -47 129 -262 80 -137 149 -251 153 -253 5
-1 116 58 248 133 l239 135 3 -270 2 -270 305 0 305 0 0 271 c0 229 2 270 14
266 8 -3 114 -63 236 -132 183 -104 225 -124 235 -113 16 16 305 488 305 497
0 3 -108 65 -240 136 -132 72 -240 132 -239 135 0 3 101 61 226 130 124 69
232 130 241 136 13 9 -7 47 -128 250 -79 131 -146 242 -150 247 -3 4 -113 -53
-243 -128 -130 -74 -241 -135 -247 -135 -6 0 -10 88 -10 255 l0 255 -305 0
-305 0 0 -256z m359 72 c9 -11 10 -80 5 -269 l-7 -254 40 -40 c108 -108 110
-220 5 -320 l-55 -54 -5 -114 -4 -114 36 -36 c20 -19 36 -43 36 -52 0 -9 -18
-33 -40 -53 -51 -47 -54 -83 -10 -125 39 -37 38 -59 -5 -102 -31 -31 -35 -41
-35 -89 0 -30 -4 -54 -9 -54 -9 0 -21 118 -21 205 0 39 -5 56 -20 70 -11 10
-20 26 -20 35 0 10 9 29 20 43 13 16 20 40 20 66 0 38 -3 42 -42 62 -60 28
-93 72 -91 120 2 49 15 74 70 130 l44 46 -7 170 -7 170 -45 23 c-127 68 -165
123 -166 245 -1 53 4 80 20 110 29 56 89 96 147 98 47 2 47 2 47 38 0 19 5 40
12 47 16 16 73 15 87 -2z m618 -301 c13 -9 23 -28 25 -48 3 -28 7 -32 36 -35
20 -2 47 5 68 17 44 26 47 26 34 1 -13 -24 -2 -26 28 -4 12 8 22 12 22 9 0
-17 -36 -65 -57 -76 -21 -11 -22 -14 -9 -28 12 -12 22 -12 51 -4 36 11 44 6
23 -15 -9 -9 -8 -16 5 -30 24 -27 21 -37 -6 -19 -33 22 -97 37 -124 31 -25 -7
-31 -29 -10 -37 6 -2 9 -8 5 -12 -5 -5 -20 -3 -34 4 -19 8 -30 9 -38 1 -14
-14 -39 -13 -30 1 3 6 0 15 -7 20 -12 7 -12 10 -1 18 10 6 4 14 -22 29 -36 21
-53 58 -42 88 3 8 1 24 -4 35 -9 15 -6 24 14 44 29 29 43 31 73 10z m-1413
-21 c9 -8 16 -28 16 -44 0 -20 6 -31 20 -35 24 -8 84 10 100 31 19 21 32 17
20 -7 -16 -29 -7 -33 23 -8 15 11 27 18 27 14 0 -18 -32 -64 -55 -79 -36 -24
-21 -39 32 -33 35 4 41 2 33 -9 -8 -9 -7 -19 5 -38 21 -31 19 -31 -36 -6 -43
19 -109 27 -122 13 -4 -3 0 -15 10 -25 15 -17 15 -18 -10 -18 -14 0 -29 4 -32
10 -4 6 -15 4 -29 -5 -23 -15 -24 -14 -29 12 -3 15 -1 31 5 34 5 4 -4 11 -20
17 -38 13 -56 45 -49 87 3 18 1 37 -5 43 -8 8 -6 18 6 36 19 30 65 35 90 10z
m1404 -782 c7 -5 14 -23 17 -42 2 -18 10 -37 17 -42 18 -11 67 0 101 24 20 14
27 16 27 6 0 -8 -6 -20 -12 -27 -11 -11 -9 -11 12 -1 14 7 28 18 32 24 4 6 10
7 13 4 11 -10 -26 -65 -52 -79 -36 -19 -21 -34 31 -32 44 1 46 0 33 -15 -13
-15 -13 -19 -1 -30 27 -25 13 -31 -28 -12 -63 29 -165 24 -118 -5 6 -3 10 -10
10 -16 0 -13 -37 -11 -46 2 -4 8 -9 8 -17 0 -16 -16 -37 -13 -37 4 0 8 -6 15
-12 15 -8 1 -5 7 6 15 18 13 17 14 -7 20 -42 11 -60 39 -54 85 3 22 1 40 -4
40 -14 0 -11 23 7 48 15 22 57 29 82 14z m-1415 -19 c8 -10 17 -31 19 -48 3
-26 8 -30 36 -33 24 -2 46 5 73 22 37 25 53 24 27 -2 -21 -21 -2 -23 25 -1 45
35 34 -7 -13 -52 -37 -35 -39 -39 -21 -48 10 -6 20 -9 22 -7 2 2 17 6 32 10
25 6 27 5 18 -12 -7 -14 -6 -25 5 -40 19 -27 17 -27 -37 -2 -46 20 -114 27
-124 11 -3 -5 2 -17 11 -26 15 -14 13 -15 -22 -14 -22 1 -48 -1 -58 -6 -16 -7
-18 -5 -13 8 3 8 1 18 -6 20 -9 3 -9 7 1 19 11 13 9 17 -13 22 -36 9 -59 49
-52 91 3 19 1 37 -4 40 -14 9 -11 19 11 43 25 26 61 28 83 5z"/>
<path d="M1052 2295 c-34 -24 -52 -68 -52 -125 0 -67 20 -108 70 -143 l41 -29
-3 154 c-3 165 -8 176 -56 143z"/>
<path d="M2714 2517 c-58 -50 -38 -168 39 -234 46 -38 69 -76 65 -109 -7 -60
-70 -56 -76 5 -3 27 -7 31 -33 31 -27 0 -29 -2 -29 -41 0 -59 42 -99 104 -99
60 0 95 30 103 87 8 63 -3 90 -61 152 -60 63 -76 89 -76 124 0 55 66 60 77 6
4 -24 10 -29 34 -29 24 0 29 4 29 25 0 38 -27 85 -56 95 -44 17 -91 12 -120
-13z"/>
<path d="M2920 2505 c0 -33 2 -35 35 -35 l35 0 0 -200 0 -200 35 0 35 0 0 200
0 200 40 0 c39 0 40 1 40 35 l0 35 -110 0 -110 0 0 -35z"/>
<path d="M3177 2533 c-11 -10 -8 -355 3 -395 14 -49 43 -68 103 -68 37 0 53 5
72 24 31 31 37 77 33 276 l-3 165 -30 0 -30 0 -5 -194 c-4 -170 -7 -195 -22
-205 -13 -8 -23 -8 -35 0 -16 10 -18 33 -21 208 l-2 196 -29 0 c-15 0 -31 -3
-34 -7z"/>
<path d="M3447 2533 c-4 -3 -7 -109 -7 -235 l0 -228 65 0 c74 0 128 18 144 48
7 13 11 88 11 189 0 190 -5 205 -68 223 -42 11 -135 14 -145 3z m141 -226 l3
-157 -25 -11 c-53 -24 -56 -14 -56 166 l0 166 38 -3 37 -3 3 -158z"/>
<path d="M3719 2536 c-2 -2 -3 -108 -1 -235 l3 -231 94 0 95 0 0 30 c0 29 -1
29 -62 32 l-63 3 0 70 0 70 48 3 c45 3 47 5 47 33 0 28 -1 29 -50 29 l-50 0 0
65 0 65 65 0 65 0 0 35 0 35 -93 0 c-52 0 -96 -2 -98 -4z"/>
<path d="M3960 2305 l0 -235 30 0 30 0 0 167 c0 91 2 164 5 161 3 -3 25 -77
49 -164 l43 -159 36 -3 37 -3 0 235 0 236 -30 0 -29 0 -3 -137 c-2 -76 -6
-131 -10 -123 -3 8 -21 70 -39 138 l-32 122 -44 0 -43 0 0 -235z"/>
<path d="M4230 2505 c0 -33 2 -35 35 -35 l35 0 0 -200 0 -200 35 0 35 0 0 200
0 200 41 0 c39 0 40 1 37 33 l-3 32 -107 3 -108 3 0 -36z"/>
<path d="M3863 1896 c-53 -24 -58 -44 -58 -226 0 -185 5 -203 62 -227 46 -19
93 -10 124 23 21 23 24 36 27 125 l4 99 -51 0 c-50 0 -51 -1 -51 -30 0 -20 5
-30 15 -30 13 0 15 -11 13 -62 -3 -58 -5 -63 -27 -66 -43 -7 -51 19 -51 168 0
149 8 175 51 168 21 -3 24 -9 27 -45 3 -42 4 -43 39 -43 l36 0 -5 51 c-8 84
-80 128 -155 95z"/>
<path d="M4663 1899 c-55 -16 -63 -46 -63 -231 0 -185 6 -205 63 -227 30 -11
45 -12 77 -2 49 15 70 51 70 121 0 49 -1 50 -30 50 -28 0 -30 -2 -30 -38 0
-49 -19 -75 -51 -70 l-24 3 0 165 0 165 24 3 c30 5 51 -20 51 -60 0 -24 4 -28
30 -28 28 0 30 2 30 40 0 46 -14 82 -39 97 -27 17 -73 22 -108 12z"/>
<path d="M2690 1670 l0 -230 95 0 95 0 0 30 0 30 -60 0 -60 0 0 70 0 70 50 0
c49 0 50 1 50 30 0 29 -1 30 -50 30 l-50 0 0 70 0 70 60 0 60 0 0 30 0 30 -95
0 -95 0 0 -230z"/>
<path d="M2930 1670 l0 -230 30 0 30 0 0 157 c0 86 2 154 5 151 5 -5 55 -278
55 -300 0 -5 15 -8 34 -8 39 0 34 -15 63 190 l18 125 3 -157 3 -158 34 0 35 0
0 230 0 230 -50 0 c-57 0 -48 21 -79 -188 -10 -67 -20 -125 -23 -128 -3 -2
-15 60 -27 138 -30 192 -23 178 -82 178 l-49 0 0 -230z"/>
<path d="M3300 1670 l0 -230 95 0 95 0 0 30 c0 29 -1 29 -62 32 l-63 3 -3 68
-3 67 56 0 c54 0 55 0 55 29 0 29 -2 30 -52 33 l-53 3 0 65 0 65 63 3 c61 3
62 3 62 32 l0 30 -95 0 -95 0 0 -230z"/>
<path d="M3540 1671 l0 -231 35 0 35 0 0 95 c0 94 0 95 24 95 44 0 56 -24 56
-111 l0 -79 35 0 35 0 0 74 c0 81 -13 131 -37 140 -14 6 -13 9 5 26 26 24 36
76 28 134 -10 66 -32 80 -132 85 l-84 3 0 -231z"/>
<path d="M4070 1670 l0 -230 100 0 100 0 0 30 0 30 -65 0 -65 0 0 70 0 70 50
0 c49 0 50 1 50 30 0 29 -1 30 -50 30 l-50 0 0 70 0 70 65 0 65 0 0 30 0 30
-100 0 -100 0 0 -230z"/>
<path d="M4320 1670 l0 -230 30 0 30 0 2 163 3 162 44 -162 44 -163 39 0 38 0
0 230 0 230 -36 0 -35 0 2 -126 c1 -69 -1 -127 -3 -129 -2 -2 -19 54 -38 126
l-34 129 -43 0 -43 0 0 -230z"/>
<path d="M4835 1888 c2 -7 22 -75 45 -150 32 -110 40 -152 40 -217 l0 -81 35
0 35 0 0 73 c0 58 9 105 45 223 25 82 45 153 45 157 0 5 -14 7 -32 5 -31 -3
-32 -4 -57 -100 -14 -54 -28 -98 -31 -98 -3 0 -17 44 -31 98 l-25 97 -37 3
c-27 2 -36 0 -32 -10z"/>
<path d="M2690 1035 l0 -236 33 3 32 3 3 93 3 93 31 -3 c38 -4 46 -22 47 -120
l1 -68 36 0 c36 0 36 1 30 31 -3 17 -6 60 -6 95 0 51 -4 68 -20 84 l-20 20 20
20 c16 16 20 33 20 93 0 66 -3 76 -26 98 -22 20 -38 24 -105 28 l-79 3 0 -237z"/>
<path d="M2960 1035 l0 -235 95 0 95 0 0 35 0 35 -60 0 -60 0 0 70 0 70 50 0
c49 0 50 1 50 30 0 29 -1 30 -50 30 l-50 0 0 65 0 65 60 0 60 0 0 35 0 35 -95
0 -95 0 0 -235z"/>
<path d="M3233 1255 c-13 -9 -27 -34 -33 -55 -17 -62 2 -113 64 -179 30 -31
59 -67 65 -79 16 -31 6 -69 -20 -77 -27 -9 -49 11 -49 46 0 26 -3 29 -35 29
-30 0 -35 -3 -35 -24 0 -69 44 -116 110 -116 59 0 95 31 105 91 9 51 -15 102
-80 170 -58 61 -73 95 -55 128 20 38 70 20 70 -26 0 -19 5 -23 29 -23 17 0 33
4 36 10 11 18 -15 88 -40 104 -31 20 -104 21 -132 1z"/>
<path d="M3452 1039 l3 -234 33 -3 32 -3 0 90 0 91 35 0 c87 0 123 57 111 175
-9 89 -33 109 -136 114 l-80 3 2 -233z"/>
<path d="M3733 1246 l-28 -24 0 -186 c0 -175 1 -187 21 -206 27 -27 94 -37
135 -20 49 21 59 58 59 223 0 156 -8 197 -45 221 -38 25 -109 21 -142 -8z
m107 -55 c5 -11 10 -81 10 -156 0 -75 -5 -145 -10 -156 -12 -21 -40 -25 -58
-7 -17 17 -17 309 0 326 18 18 46 14 58 -7z"/>
<path d="M3970 1035 l0 -235 30 0 30 0 1 168 c0 92 3 160 7 152 3 -8 24 -82
47 -165 l41 -150 37 -3 37 -3 0 235 0 236 -30 0 -29 0 -3 -137 c-2 -76 -6
-131 -10 -123 -4 8 -21 70 -39 138 l-32 122 -43 0 -44 0 0 -235z"/>
<path d="M4294 1258 c-29 -14 -44 -49 -44 -104 0 -58 9 -75 82 -151 50 -53 59
-67 56 -94 -6 -64 -70 -64 -76 0 -3 28 -6 31 -39 31 l-36 0 7 -40 c11 -70 43
-100 107 -100 50 0 87 26 100 69 20 66 5 105 -67 182 -57 61 -64 73 -64 109 0
28 5 43 16 47 24 9 49 -10 52 -41 3 -22 8 -26 38 -26 28 0 34 4 34 20 0 33
-27 88 -48 99 -26 14 -90 13 -118 -1z"/>
<path d="M4504 1257 c-2 -7 -3 -111 -2 -232 l3 -220 98 -3 97 -3 0 35 0 35
-62 3 -63 3 0 65 0 65 53 3 c50 3 52 4 52 32 0 28 -2 29 -52 32 l-53 3 -3 63
-3 62 66 0 65 0 0 35 0 35 -95 0 c-68 0 -97 -4 -101 -13z"/>
<path d="M2670 600 c0 -28 3 -30 35 -30 l35 0 0 -200 0 -200 35 0 35 0 0 200
0 200 40 0 c38 0 40 2 40 30 l0 30 -110 0 -110 0 0 -30z"/>
<path d="M2930 400 l0 -230 95 0 95 0 0 30 0 30 -60 0 -60 0 0 69 0 70 48 3
c45 3 47 4 50 36 l3 32 -50 0 -51 0 0 65 0 65 60 0 60 0 0 30 0 30 -95 0 -95
0 0 -230z"/>
<path d="M3225 618 c-2 -7 -18 -103 -35 -213 -17 -110 -33 -208 -36 -217 -4
-15 1 -18 30 -18 33 0 36 3 36 28 0 44 12 54 61 50 43 -3 44 -4 47 -40 3 -37
4 -38 42 -38 27 0 38 4 35 13 -2 6 -18 100 -35 207 -41 267 -31 240 -91 240
-31 0 -51 -5 -54 -12z"/>
<path d="M3440 400 l0 -230 30 0 30 0 0 157 c0 86 3 154 6 150 5 -5 53 -272
54 -299 0 -8 70 -11 70 -4 0 18 43 292 46 295 2 2 4 -64 4 -147 l0 -152 35 0
35 0 0 230 0 230 -49 0 c-57 0 -51 12 -76 -160 -24 -171 -28 -172 -54 -14 -30
188 -24 174 -82 174 l-49 0 0 -230z"/>
<path d="M1130 519 c-13 -19 -25 -35 -26 -37 -1 -2 -12 1 -23 8 -19 10 -21 8
-21 -17 0 -15 5 -46 10 -68 5 -22 7 -41 4 -44 -2 -2 -18 9 -35 25 -27 26 -32
27 -42 13 -9 -11 -23 -14 -49 -11 l-37 4 6 -36 c3 -21 1 -42 -6 -49 -9 -11 1
-24 49 -61 45 -35 60 -54 60 -72 0 -26 7 -27 98 -8 21 4 22 1 22 -55 0 -33 5
-63 10 -66 6 -4 10 18 10 60 0 63 1 65 23 61 90 -19 97 -18 97 8 0 18 15 37
60 72 47 36 58 50 49 60 -7 8 -8 29 -4 53 l6 39 -36 -8 c-32 -7 -38 -6 -42 11
-5 17 -8 17 -43 -11 -21 -17 -40 -30 -43 -30 -3 0 1 24 9 53 20 77 19 90 -8
76 -22 -12 -34 -4 -64 47 -9 16 -12 14 -34 -17z"/>
</g>
</svg>
