<?xml version="1.0" standalone="no"?>
<!DOCTYPE svg PUBLIC "-//W3C//DTD SVG 20010904//EN"
 "http://www.w3.org/TR/2001/REC-SVG-20010904/DTD/svg10.dtd">
<svg version="1.0" xmlns="http://www.w3.org/2000/svg"
 width="1000.000000pt" height="288.000000pt" viewBox="0 0 1000.000000 288.000000"
 preserveAspectRatio="xMidYMid meet">
<metadata>
Created by potrace 1.16, written by Peter Selinger 2001-2019
</metadata>
<g transform="translate(0.000000,288.000000) scale(0.100000,-0.100000)"
fill="#000000" stroke="none">
<path d="M0 1440 l0 -1440 5000 0 5000 0 0 1440 0 1440 -5000 0 -5000 0 0
-1440z m5313 812 l2 -352 -37 0 -38 0 0 348 c0 192 3 352 7 356 4 4 20 6 35 4
l28 -3 3 -353z m137 3 l0 -355 -35 0 -35 0 0 348 c0 192 3 352 7 355 3 4 19 7
35 7 l28 0 0 -355z m1800 0 l0 -355 -35 0 c-32 0 -35 2 -35 30 l0 31 -37 -30
c-53 -42 -122 -57 -196 -41 -71 14 -105 42 -142 115 -25 50 -28 68 -28 144 0
76 3 94 29 146 42 84 88 118 169 123 85 6 128 -3 164 -33 34 -30 43 -31 40 -7
-1 9 -1 65 0 125 l1 107 35 0 35 0 0 -355z m1708 296 c5 -74 -5 -119 -33 -147
-43 -43 -76 -18 -40 30 20 26 20 76 0 76 -11 0 -15 11 -15 43 0 53 5 59 50 55
35 -3 35 -3 38 -57z m-2736 -3 c0 -7 2 -33 3 -58 4 -84 1 -80 51 -80 44 0 45
-1 42 -27 -3 -25 -8 -29 -48 -33 l-45 -5 -2 -179 c-1 -99 3 -188 8 -197 6 -12
24 -19 52 -21 37 -3 42 -6 42 -28 0 -20 -7 -26 -39 -33 -25 -6 -51 -6 -77 2
-53 16 -59 45 -59 274 l0 187 -35 0 c-32 0 -35 2 -35 30 0 28 3 30 35 30 l35
0 0 68 c0 38 3 72 7 75 11 12 63 7 65 -5z m2119 0 c0 -7 0 -32 -1 -55 -3 -72
5 -83 56 -83 42 0 44 -1 44 -29 0 -28 -2 -30 -47 -33 l-48 -3 -3 -184 c-2
-123 1 -188 9 -197 6 -7 29 -14 52 -16 37 -3 42 -6 42 -28 0 -20 -7 -26 -39
-33 -25 -6 -51 -6 -77 2 -53 16 -59 45 -59 273 l0 187 -32 3 c-28 2 -34 8 -36
31 -3 25 -1 27 32 27 l36 0 0 68 c0 38 3 72 7 75 11 12 63 7 64 -5z m-5968
-59 c204 -18 510 -89 574 -134 29 -20 54 -110 55 -196 0 -57 -5 -79 -28 -127
l-29 -57 -110 1 -111 2 7 -72 c4 -39 19 -136 32 -216 33 -190 54 -366 62 -517
6 -115 5 -125 -17 -169 -44 -88 -125 -122 -217 -91 -69 24 -887 43 -1042 24
-63 -8 -67 -7 -99 19 -51 44 -71 103 -69 203 2 82 11 148 58 396 11 60 18 111
16 114 -5 5 -35 -63 -35 -79 0 -27 -32 -70 -51 -70 -15 0 -19 -5 -15 -15 3 -9
-2 -22 -12 -31 -23 -20 -113 -82 -132 -91 -8 -4 -21 -15 -28 -25 -7 -10 -20
-18 -28 -18 -8 0 -23 -9 -33 -19 -28 -28 -94 -44 -181 -45 -136 -1 -219 47
-235 135 -8 45 3 69 61 129 24 25 57 76 75 115 17 39 43 85 57 104 14 19 31
57 37 85 9 41 16 51 32 51 12 0 25 3 29 8 4 4 15 7 24 7 20 0 48 67 55 131 3
26 36 131 53 172 13 29 30 44 77 68 33 17 76 48 95 69 26 28 53 43 101 58 107
33 292 72 386 81 130 12 447 13 586 0z m1329 -108 l30 -33 26 25 c43 39 66 47
143 47 71 0 73 -1 109 -39 20 -21 40 -53 44 -71 3 -18 6 -117 6 -221 l0 -189
-30 0 c-16 0 -33 -1 -36 -2 -4 -2 -7 88 -8 199 -1 188 -2 203 -22 230 -17 22
-30 29 -67 31 -62 4 -100 -17 -126 -71 -19 -39 -21 -61 -21 -215 l0 -172 -40
0 -40 0 0 195 c0 242 -8 265 -91 265 -55 0 -98 -26 -119 -72 -17 -37 -20 -66
-20 -215 l0 -173 -40 0 -40 0 0 255 0 255 40 0 c34 0 40 -3 40 -20 0 -20 2
-20 38 5 33 24 44 26 115 23 75 -3 80 -5 109 -37z m725 24 c58 -24 89 -65 107
-137 6 -27 5 -28 -29 -28 -28 0 -38 5 -44 23 -5 12 -23 38 -39 57 -29 34 -33
35 -97 35 -65 0 -67 -1 -105 -41 -86 -92 -80 -262 12 -339 24 -20 40 -25 86
-25 75 0 113 24 138 84 17 41 22 46 52 46 27 0 32 -4 32 -22 -1 -39 -36 -104
-72 -131 -46 -36 -111 -51 -178 -43 -76 9 -128 41 -164 100 -27 42 -31 59 -34
141 -3 69 0 106 12 143 19 57 70 116 118 137 44 19 159 19 205 0z m470 -10
c23 -14 44 -31 44 -38 1 -7 4 2 8 18 5 26 11 30 44 33 l37 3 0 -254 c0 -228
-2 -262 -20 -320 -16 -52 -29 -73 -61 -100 -46 -40 -73 -47 -172 -47 -82 0
-141 24 -182 72 -35 41 -31 82 7 86 22 3 32 -4 50 -32 38 -59 142 -85 206 -52
55 29 83 69 89 131 l6 58 -21 -21 c-31 -31 -124 -55 -180 -47 -132 20 -195
107 -196 270 -1 180 70 264 223 265 62 0 81 -4 118 -25z m1113 5 c43 -22 80
-80 80 -125 0 -21 -5 -25 -30 -25 -24 0 -33 7 -50 39 -27 54 -55 71 -116 71
-70 0 -106 -28 -102 -78 4 -48 35 -69 149 -98 76 -20 101 -31 128 -59 30 -29
35 -41 35 -83 2 -101 -74 -158 -209 -156 -88 1 -136 21 -168 71 -29 45 -43
103 -24 104 6 0 22 2 34 3 16 2 26 -7 39 -36 27 -61 56 -78 129 -78 81 0 115
23 115 80 0 51 -34 75 -137 96 -135 28 -173 61 -173 150 0 42 5 59 27 85 37
44 76 58 161 59 54 0 83 -5 112 -20z m1617 9 c38 -14 81 -56 105 -102 26 -51
41 -146 27 -164 -9 -10 -55 -13 -195 -13 l-184 0 0 -30 c0 -44 36 -108 73
-130 48 -30 131 -27 172 4 18 14 38 38 44 54 13 30 57 47 82 31 27 -16 -36
-116 -96 -151 -56 -32 -181 -32 -242 0 -168 88 -154 422 21 498 37 16 154 18
193 3z m470 0 c45 -17 83 -59 89 -101 4 -20 7 -121 8 -223 l1 -185 -37 0 -37
0 -3 205 c-3 197 -4 205 -26 227 -19 19 -33 23 -87 23 -61 0 -67 -2 -101 -36
-46 -46 -53 -82 -54 -271 l0 -148 -35 0 -35 0 0 255 0 255 35 0 c31 0 35 -3
35 -25 l0 -25 47 30 c39 25 57 30 109 30 35 0 75 -5 91 -11z m650 -10 c40 -28
66 -70 67 -107 1 -33 -2 -37 -26 -40 -24 -3 -31 3 -50 42 -24 51 -53 66 -125
66 -80 0 -123 -78 -70 -127 12 -12 58 -30 104 -42 144 -35 187 -70 187 -151 0
-83 -50 -133 -151 -152 -124 -23 -227 27 -251 122 -10 41 -7 48 27 55 22 4 36
-9 60 -57 21 -43 53 -58 122 -58 75 0 109 25 109 81 0 34 -5 42 -32 59 -18 11
-67 27 -108 36 -133 29 -170 62 -170 149 0 41 6 59 28 87 15 20 38 41 52 46
38 16 201 10 227 -9z m-3567 -244 l0 -255 -40 0 -40 0 0 255 0 255 40 0 40 0
0 -255z m1220 78 c0 -255 12 -283 121 -283 47 0 61 4 87 28 57 51 62 74 62
262 l0 170 35 0 35 0 0 -255 0 -255 -35 0 c-30 0 -35 3 -35 25 l0 24 -25 -23
c-25 -23 -90 -47 -130 -47 -35 -1 -97 19 -123 38 -56 42 -62 70 -62 290 l0
203 35 0 35 0 0 -177z m-1942 -505 l-3 -83 -67 -3 -68 -3 0 86 0 85 70 0 71 0
-3 -82z m1302 -148 c0 -126 3 -230 6 -230 3 0 24 15 47 34 80 64 143 89 239
94 172 9 294 -50 361 -173 21 -39 22 -49 22 -415 l0 -375 -62 -3 -63 -3 0 320
c0 293 -8 414 -29 431 -3 3 -11 14 -17 25 -27 51 -195 104 -251 80 -10 -5 -21
-7 -26 -7 -14 3 -93 -38 -129 -68 -20 -17 -49 -56 -65 -88 l-28 -57 -5 -315
-5 -315 -62 -3 -63 -3 0 651 0 650 65 0 65 0 0 -230z m1340 -420 l0 -651 -62
3 -63 3 -3 648 -2 647 65 0 65 0 0 -650z m298 568 l-3 -83 -70 0 -70 0 -3 83
-3 82 76 0 76 0 -3 -82z m-666 -145 l3 -128 86 -1 c47 -1 90 -4 95 -7 5 -3 9
-25 9 -49 l0 -43 -95 -5 -95 -5 0 -351 c0 -423 -7 -399 118 -392 l78 5 -3 -51
-3 -51 -55 -13 c-63 -14 -148 -9 -190 13 -16 8 -39 29 -52 47 -23 33 -23 33
-26 416 l-3 382 -70 0 -70 0 3 51 3 52 65 1 65 1 3 115 c1 63 4 121 7 128 3 8
25 12 64 12 l60 0 3 -127z m-2738 -134 c38 -15 76 -41 104 -69 78 -80 76 -68
77 -490 l0 -375 -60 0 -60 0 -5 350 c-6 367 -8 385 -53 434 -65 70 -217 88
-321 38 -79 -38 -128 -91 -151 -164 -16 -49 -20 -106 -24 -358 l-6 -300 -60 0
-60 0 -3 468 c-2 370 0 467 10 468 7 0 36 1 63 2 l50 0 3 -51 c2 -29 6 -52 9
-52 3 0 29 17 57 39 63 47 66 49 129 72 74 28 218 22 301 -12z m1171 7 c86
-38 110 -52 157 -94 l48 -44 0 66 0 66 66 0 65 0 -3 -492 c-3 -484 -4 -494
-26 -558 -64 -181 -212 -269 -449 -270 -97 0 -215 25 -283 61 -85 44 -157 148
-151 217 1 8 21 12 66 12 l65 0 22 -46 c43 -93 137 -130 308 -122 205 10 292
100 314 325 l5 53 -52 -43 c-100 -81 -258 -121 -387 -97 -231 42 -370 230
-370 502 0 135 48 286 113 356 45 49 149 105 232 126 47 11 221 0 260 -18z
m2997 -13 c70 -33 117 -76 151 -138 22 -39 22 -48 22 -415 l0 -375 -60 0 -60
0 -5 350 c-5 324 -6 353 -25 390 -52 103 -225 146 -347 84 -92 -46 -120 -77
-159 -176 -14 -35 -17 -89 -18 -340 -1 -164 -6 -302 -10 -306 -5 -5 -32 -7
-62 -5 l-54 3 -3 468 -2 467 45 1 c25 1 53 2 63 3 14 1 18 -9 20 -51 2 -29 5
-53 8 -53 3 0 28 17 57 39 106 79 144 91 273 87 88 -2 109 -7 166 -33z m913
-1 c158 -74 237 -208 247 -417 l3 -70 -389 -3 -389 -2 7 -59 c10 -86 55 -172
115 -220 77 -61 125 -75 230 -69 81 5 95 9 147 41 58 37 124 116 124 149 0 16
9 18 75 18 41 0 75 -2 75 -4 0 -19 -37 -100 -65 -142 -44 -66 -84 -100 -163
-136 -127 -59 -287 -61 -421 -5 -119 49 -199 138 -238 264 -27 87 -24 307 5
385 43 117 136 223 231 265 86 37 117 43 226 40 101 -2 116 -5 180 -35z
m-4627 -460 l2 -473 -62 3 -63 3 -3 464 c-1 275 2 467 7 470 5 3 33 6 63 6
l53 -1 3 -472z m2937 2 l0 -469 -44 -3 c-25 -2 -54 -1 -65 2 -21 5 -21 7 -18
463 1 252 4 463 6 468 2 6 30 9 62 9 l59 -2 0 -468z m-6180 -184 c0 -11 -14
-16 -57 -18 -37 -2 -58 -7 -58 -15 0 -7 -3 -21 -6 -32 -5 -19 -1 -20 35 -17
35 4 45 0 72 -27 29 -29 31 -36 27 -82 -6 -63 -24 -81 -87 -87 -46 -4 -53 -2
-81 27 -18 17 -30 37 -27 44 6 18 37 21 37 3 0 -36 71 -54 105 -26 19 16 19
70 1 95 -17 24 -74 25 -92 0 -8 -11 -19 -15 -30 -11 -13 5 -15 14 -9 44 9 47
10 50 19 90 l8 33 71 -3 c56 -2 72 -6 72 -18z m363 -78 c2 -69 6 -92 16 -92
23 0 27 -27 5 -33 -14 -4 -19 -14 -19 -36 0 -24 -4 -31 -19 -31 -15 0 -21 8
-23 33 l-3 32 -60 1 c-45 1 -60 5 -60 16 0 25 129 208 145 205 12 -2 16 -22
18 -95z m276 77 c14 -11 26 -30 26 -42 1 -18 5 -15 20 15 21 40 58 54 109 43
32 -7 71 -46 72 -73 0 -9 7 -1 15 20 25 59 107 76 156 31 20 -18 25 -82 7
-100 -9 -9 -8 -16 5 -28 18 -18 21 -76 6 -106 -16 -29 -73 -50 -111 -39 -41
12 -69 38 -69 64 0 17 -5 13 -25 -16 -18 -26 -35 -39 -59 -44 -59 -11 -106 12
-106 52 0 27 27 33 36 9 18 -46 83 -37 104 14 15 37 9 47 -18 32 -47 -25 -106
-3 -124 46 -7 18 -15 33 -19 33 -15 0 -18 -34 -4 -50 22 -24 19 -86 -4 -109
-32 -32 -86 -42 -127 -25 -37 15 -61 52 -51 78 8 20 30 12 42 -16 23 -50 115
-37 115 16 0 28 -20 47 -55 50 -14 2 -28 6 -32 9 -11 11 6 37 21 31 8 -3 24 0
36 6 16 9 20 19 18 43 -3 30 -5 32 -43 32 -33 0 -42 -4 -53 -27 -17 -36 -42
-37 -42 -3 0 65 97 99 154 54z m667 4 c16 -10 29 -24 29 -33 0 -10 8 -5 23 13
17 22 34 30 69 34 40 5 50 2 72 -20 19 -19 26 -37 26 -65 0 -45 -24 -76 -86
-111 -22 -12 -46 -31 -52 -42 -12 -18 -9 -19 57 -19 50 0 72 -4 82 -16 11 -14
0 -15 -107 -15 -65 0 -137 -2 -159 -5 -76 -9 -113 35 -114 136 -2 129 72 195
160 143z m380 -80 c-2 -75 1 -93 12 -93 10 0 16 16 20 53 7 75 39 125 84 133
20 4 48 3 62 -2 32 -12 59 -61 41 -77 -9 -9 -16 -5 -32 16 -26 36 -71 37 -94
2 -8 -13 -13 -28 -10 -34 3 -5 0 -11 -6 -14 -7 -2 -10 -7 -7 -11 3 -3 21 1 39
10 30 15 35 15 66 1 63 -30 82 -119 35 -161 -47 -43 -137 -27 -163 28 -15 35
-51 23 -46 -15 4 -28 -10 -43 -30 -31 -5 4 -12 21 -14 37 -3 27 -6 30 -43 31
-22 1 -50 2 -63 3 l-23 1 23 40 c53 91 122 181 136 178 12 -2 15 -20 13 -95z"/>
<path d="M6953 2346 c-72 -41 -93 -86 -93 -198 0 -96 17 -140 70 -175 43 -30
121 -31 168 -3 91 56 104 250 23 341 -34 38 -42 42 -91 45 -33 2 -64 -2 -77
-10z"/>
<path d="M1234 2137 c-6 -7 -8 -21 -4 -32 4 -12 -3 -44 -17 -80 -13 -33 -25
-69 -26 -81 -2 -23 -90 -114 -110 -114 -8 0 -18 -23 -25 -57 -11 -53 -80 -188
-121 -238 -15 -18 -51 -89 -51 -100 0 -2 16 -7 35 -11 61 -11 118 4 176 47
162 121 223 225 217 369 -3 82 8 98 58 86 42 -11 104 -80 104 -116 0 -80 43 8
60 124 6 38 9 70 7 72 -2 2 -19 0 -38 -5 -19 -5 -57 -12 -85 -15 -46 -6 -55
-3 -82 19 -34 28 -57 68 -67 115 -7 32 -14 36 -31 17z"/>
<path d="M2120 1919 c-47 -10 -100 -18 -117 -19 -23 0 -33 -5 -33 -15 0 -8 -5
-15 -11 -15 -21 0 -51 -89 -44 -131 4 -21 11 -41 16 -45 20 -12 7 -24 -28 -25
l-38 -1 30 -10 c17 -6 47 -23 67 -39 20 -16 44 -29 52 -29 8 0 17 -4 20 -9 3
-5 15 -11 26 -14 16 -4 23 1 31 20 10 28 35 26 31 -3 -2 -17 4 -19 53 -19 37
0 55 4 55 13 0 6 8 12 18 12 10 0 31 14 48 32 l29 32 -27 -17 c-15 -9 -34 -17
-42 -17 -21 0 -10 25 17 37 12 6 29 22 36 37 13 23 12 28 -2 44 -23 25 -21 42
3 42 16 0 18 4 11 18 -5 9 -16 34 -25 55 -8 20 -20 37 -25 37 -5 0 -22 10 -38
23 l-28 24 -85 -18z"/>
<path d="M4732 2349 c-91 -36 -130 -192 -77 -306 31 -67 71 -93 142 -93 46 0
58 4 91 35 45 40 62 88 62 172 0 97 -29 156 -92 189 -30 16 -91 17 -126 3z"/>
<path d="M7474 2351 c-32 -14 -81 -79 -92 -122 l-10 -39 154 0 154 0 0 30 c0
38 -20 77 -54 109 -28 27 -113 39 -152 22z"/>
<path d="M4965 1361 c-110 -30 -182 -87 -227 -179 -29 -60 -33 -78 -36 -174
-4 -90 -1 -116 18 -170 27 -79 51 -118 97 -159 99 -86 237 -105 351 -48 126
62 190 179 192 349 3 168 -60 289 -182 351 -63 32 -157 45 -213 30z"/>
<path d="M8815 1363 c-37 -8 -110 -45 -146 -74 -40 -32 -103 -143 -114 -201
l-7 -38 316 0 c265 0 318 2 322 14 10 26 -25 134 -56 178 -68 93 -205 146
-315 121z"/>
<path d="M2404 745 c-20 -49 -18 -55 14 -40 56 28 132 -16 132 -76 l0 -31 33
27 c17 14 48 36 67 49 58 36 51 106 -10 106 -29 0 -60 -27 -60 -53 0 -21 -28
-23 -36 -3 -3 8 -11 13 -18 10 -7 -3 -18 7 -24 21 -9 20 -19 25 -47 25 -32 0
-38 -4 -51 -35z"/>
</g>
</svg>
