<?xml version="1.0" standalone="no"?>
<!DOCTYPE svg PUBLIC "-//W3C//DTD SVG 20010904//EN"
 "http://www.w3.org/TR/2001/REC-SVG-20010904/DTD/svg10.dtd">
<svg version="1.0" xmlns="http://www.w3.org/2000/svg"
 width="1518.000000pt" height="1518.000000pt" viewBox="0 0 1518.000000 1518.000000"
 preserveAspectRatio="xMidYMid meet">
<metadata>
Created by potrace 1.16, written by Peter Selinger 2001-2019
</metadata>
<g transform="translate(0.000000,1518.000000) scale(0.100000,-0.100000)"
fill="#000000" stroke="none">
<path d="M11983 12139 c-158 -68 -364 -143 -461 -170 -76 -21 -83 -24 -90 -53
-15 -56 -4 -75 70 -122 50 -32 73 -55 84 -80 12 -29 14 -195 12 -1177 -3
-1131 -3 -1142 -24 -1177 -25 -44 -56 -59 -139 -67 -51 -5 -69 -11 -80 -27
-19 -26 -19 -76 -1 -101 13 -19 21 -20 270 -12 141 5 371 5 512 0 289 -9 274
-13 274 69 0 52 -13 68 -57 68 -17 0 -55 5 -82 11 -63 13 -95 48 -111 121 -8
38 -11 425 -9 1395 0 738 -1 1346 -5 1351 -14 23 -58 15 -163 -29z"/>
<path d="M13163 12139 c-158 -68 -364 -143 -461 -170 -76 -21 -83 -24 -90 -53
-15 -56 -4 -75 70 -122 50 -32 73 -55 84 -80 12 -29 14 -195 12 -1177 -3
-1131 -3 -1142 -24 -1177 -25 -44 -56 -59 -139 -67 -51 -5 -69 -11 -80 -27
-19 -26 -19 -76 -1 -101 13 -19 21 -20 270 -12 141 5 371 5 512 0 289 -9 274
-13 274 69 0 52 -13 68 -57 68 -17 0 -55 5 -82 11 -63 13 -95 48 -111 121 -8
38 -11 425 -9 1395 0 738 -1 1346 -5 1351 -14 23 -58 15 -163 -29z"/>
<path d="M8745 12009 c-473 -23 -863 -176 -1152 -453 -255 -243 -395 -548
-422 -916 -32 -447 101 -825 393 -1116 166 -165 316 -256 557 -335 224 -73
403 -100 682 -100 276 -1 569 37 797 102 57 16 145 37 195 46 49 9 93 21 97
27 4 6 8 26 8 43 0 26 -6 36 -29 47 -53 28 -63 75 -69 321 -4 221 6 367 29
418 18 40 52 57 148 77 86 17 86 17 95 53 9 36 -1 98 -17 99 -4 0 -152 -2
-330 -6 -177 -3 -461 -2 -632 2 -272 7 -312 6 -323 -8 -22 -26 -25 -61 -9 -94
15 -32 16 -33 119 -45 221 -26 283 -53 306 -129 16 -52 16 -551 1 -622 -13
-63 -54 -112 -106 -129 -100 -32 -331 -23 -485 20 -358 99 -601 373 -706 794
-41 165 -47 223 -47 485 1 227 3 266 23 360 65 299 192 530 372 678 83 67 240
144 355 173 130 33 363 33 483 1 253 -68 431 -233 537 -497 37 -90 58 -108
119 -101 63 7 67 16 51 136 -8 58 -19 179 -24 270 -6 91 -14 198 -17 238 l-6
72 -31 0 c-18 0 -100 13 -183 30 -277 54 -508 72 -779 59z"/>
<path d="M1516 11945 c-18 -18 -22 -86 -6 -115 7 -12 27 -20 62 -25 155 -21
240 -74 280 -173 22 -55 23 -65 21 -342 -2 -304 -9 -451 -48 -1150 -29 -513
-45 -665 -78 -730 -28 -55 -80 -84 -192 -105 -44 -9 -90 -18 -102 -20 -40 -9
-40 -125 0 -137 7 -2 98 0 202 4 148 6 450 3 770 -7 19 0 36 75 25 110 -10 31
-12 31 -103 44 -140 19 -190 36 -225 76 -17 19 -35 52 -39 72 -18 86 3 1718
24 1787 7 25 16 13 53 -74 18 -41 114 -250 212 -465 404 -875 530 -1166 640
-1470 21 -60 40 -111 42 -112 1 -2 25 -7 53 -12 64 -13 120 1 133 32 5 12 55
135 111 272 56 138 166 394 244 570 157 353 563 1235 575 1248 10 11 23 -999
18 -1453 -3 -321 -5 -358 -21 -388 -25 -45 -80 -68 -197 -82 -73 -9 -99 -17
-112 -32 -25 -28 -22 -72 5 -101 l22 -23 250 8 c237 8 901 2 936 -8 27 -7 49
23 49 67 0 66 -10 75 -92 83 -149 14 -206 48 -233 139 -32 105 -55 784 -55
1598 0 594 0 599 50 669 30 42 112 77 225 96 60 11 105 23 113 33 18 22 15 86
-5 108 -17 18 -29 19 -312 10 -174 -6 -359 -6 -452 -1 l-158 9 -6 -35 c-13
-69 -124 -388 -183 -525 -84 -196 -526 -1146 -598 -1285 -32 -63 -63 -115 -69
-115 -21 1 -237 413 -410 780 -386 822 -390 831 -426 965 -11 41 -23 107 -26
145 l-5 70 -137 -8 c-132 -7 -772 0 -796 9 -7 3 -20 -2 -29 -11z"/>
<path d="M10648 11850 c-103 -18 -200 -97 -234 -191 -19 -53 -21 -159 -4 -214
6 -23 27 -62 45 -87 93 -128 315 -140 450 -25 80 67 115 204 81 321 -40 136
-187 222 -338 196z"/>
<path d="M10884 10954 c-42 -29 -276 -125 -441 -180 -93 -31 -171 -62 -175
-68 -4 -6 -8 -28 -8 -48 0 -29 6 -41 31 -60 83 -63 109 -92 119 -130 7 -26 10
-212 8 -551 -3 -453 -5 -516 -20 -549 -21 -46 -61 -67 -144 -75 -36 -3 -72
-12 -80 -20 -17 -17 -18 -76 -3 -105 11 -20 15 -20 318 -14 168 3 398 3 509
-2 186 -6 205 -5 213 10 13 25 11 104 -3 115 -7 6 -41 13 -74 16 -79 6 -113
23 -138 67 -21 34 -21 48 -23 809 l-2 775 -23 12 c-29 17 -38 16 -64 -2z"/>
<path d="M6314 10899 c-409 -29 -753 -262 -883 -597 -82 -214 -82 -484 0 -690
77 -194 243 -361 438 -442 239 -98 541 -98 757 0 147 66 278 183 354 316 36
63 37 87 5 119 -23 24 -85 36 -85 17 0 -4 -23 -34 -51 -65 -34 -39 -71 -67
-117 -89 -66 -33 -69 -33 -207 -33 -123 1 -147 3 -200 24 -178 71 -302 206
-372 406 -25 74 -27 91 -28 240 0 180 12 238 71 362 46 97 119 174 202 215 57
28 77 33 142 33 65 0 85 -5 141 -32 36 -18 90 -55 121 -82 51 -44 80 -75 177
-188 110 -128 236 161 150 343 -29 61 -56 80 -144 103 -151 37 -310 51 -471
40z"/>
<path d="M3148 8049 c-1102 -74 -1936 -835 -2092 -1909 -66 -453 5 -963 189
-1357 162 -347 438 -653 770 -853 170 -103 403 -198 605 -249 410 -101 905
-101 1335 1 468 111 867 345 1137 667 267 320 426 699 484 1156 20 157 22 487
5 630 -63 517 -266 958 -592 1284 -381 381 -877 592 -1486 631 -164 11 -187
11 -355 -1z m341 -304 c209 -44 386 -148 552 -323 264 -277 433 -690 506
-1231 22 -159 25 -689 5 -856 -52 -441 -150 -752 -315 -1000 -95 -142 -280
-299 -423 -359 -278 -116 -621 -109 -890 18 -50 24 -120 63 -155 86 -83 56
-240 215 -306 311 -153 222 -269 520 -337 859 -53 261 -60 353 -61 700 0 351
9 456 61 690 163 738 601 1151 1193 1124 57 -3 133 -11 170 -19z"/>
<path d="M7532 8049 c-584 -42 -1018 -297 -1213 -715 -129 -274 -138 -656 -22
-926 144 -333 404 -576 890 -832 314 -165 471 -273 614 -423 181 -190 260
-371 262 -598 1 -195 -54 -336 -183 -466 -130 -132 -287 -191 -510 -192 -237
-1 -454 95 -666 295 -182 173 -350 426 -424 638 -13 38 -35 77 -53 94 -28 26
-34 28 -94 24 -55 -3 -68 -8 -94 -34 l-30 -30 11 -180 c20 -335 74 -613 150
-770 l40 -84 83 -39 c388 -186 958 -254 1440 -171 615 105 1049 463 1167 962
30 130 41 283 30 417 -29 333 -152 586 -403 828 -170 165 -299 248 -742 483
-302 159 -418 234 -527 343 -104 102 -172 204 -211 316 -26 74 -30 100 -30
186 1 326 233 557 593 589 139 13 288 -22 415 -96 93 -54 247 -209 318 -318
63 -98 134 -238 167 -328 28 -76 56 -95 143 -95 43 0 65 5 85 20 l27 20 -1
179 c0 177 -11 304 -40 479 -18 109 -53 257 -64 268 -4 5 -43 17 -86 27 -44
10 -140 34 -215 53 -160 42 -292 63 -484 77 -154 11 -179 11 -343 -1z"/>
<path d="M10755 7973 c-417 -6 -1295 -47 -1332 -63 -28 -12 -47 -71 -38 -125
10 -71 27 -83 130 -95 178 -21 247 -55 289 -144 52 -109 51 -87 51 -1736 0
-1641 1 -1616 -49 -1726 -43 -94 -96 -119 -335 -158 -102 -17 -149 -29 -157
-41 -29 -39 -24 -162 8 -190 10 -8 66 -9 213 -4 293 10 961 10 1100 -1 809
-62 1473 -3 1951 176 742 276 1227 852 1353 1604 95 569 -8 1108 -293 1534
-374 558 -939 848 -1828 941 -186 19 -558 35 -753 33 -82 -2 -222 -4 -310 -5z
m750 -309 c824 -112 1319 -634 1420 -1500 17 -149 20 -473 5 -625 -70 -701
-375 -1224 -845 -1449 -191 -91 -388 -133 -630 -133 -189 0 -294 20 -409 80
-162 85 -228 200 -256 450 -8 69 -10 541 -8 1568 3 1405 4 1472 22 1512 27 64
87 94 221 112 88 12 336 4 480 -15z"/>
</g>
</svg>
