<?xml version="1.0" standalone="no"?>
<!DOCTYPE svg PUBLIC "-//W3C//DTD SVG 20010904//EN"
 "http://www.w3.org/TR/2001/REC-SVG-20010904/DTD/svg10.dtd">
<svg version="1.0" xmlns="http://www.w3.org/2000/svg"
 width="1900.000000pt" height="475.000000pt" viewBox="0 0 1900.000000 475.000000"
 preserveAspectRatio="xMidYMid meet">
<metadata>
Created by potrace 1.16, written by Peter Selinger 2001-2019
</metadata>
<g transform="translate(0.000000,475.000000) scale(0.100000,-0.100000)"
fill="#000000" stroke="none">
<path d="M0 2375 l0 -2375 9500 0 9500 0 0 2375 0 2375 -9500 0 -9500 0 0
-2375z m10117 955 c150 -36 317 -126 432 -234 81 -77 199 -240 248 -342 139
-293 125 -616 -37 -894 -103 -177 -266 -317 -463 -399 -136 -56 -193 -62 -591
-62 -349 0 -364 1 -456 25 -115 29 -186 60 -282 121 -163 106 -326 305 -411
503 -104 244 -93 540 30 787 110 219 309 392 543 472 128 43 191 48 574 46
289 -3 338 -5 413 -23z m-3162 -114 c25 -11 36 -23 43 -48 27 -102 -76 -171
-149 -99 -47 47 -34 127 25 151 30 12 42 12 81 -4z m1133 -22 c31 -36 30 -97
-3 -129 -56 -56 -155 -16 -155 62 0 92 99 134 158 67z m3133 15 c5 -8 8 -25 5
-39 -2 -14 0 -33 5 -42 6 -12 6 -25 -1 -38 -9 -16 -21 -20 -65 -20 l-55 0 0
81 0 82 51 -5 c28 -3 55 -12 60 -19z m439 11 c0 -5 -20 -10 -45 -10 -41 0 -45
-2 -45 -25 0 -22 4 -25 39 -25 22 0 43 -4 46 -10 4 -6 -12 -10 -39 -10 -42 0
-46 -2 -46 -25 0 -22 4 -25 39 -25 22 0 45 -2 53 -5 9 -3 23 19 44 67 17 39
35 73 40 75 6 2 27 -33 46 -77 20 -44 32 -80 27 -80 -5 0 -12 7 -15 15 -4 10
-21 15 -54 15 -33 0 -50 -5 -54 -15 -4 -11 -22 -15 -76 -15 l-70 0 0 80 0 80
55 0 c30 0 55 -4 55 -10z m-3396 -16 c24 -23 20 -60 -8 -81 l-24 -18 26 -27
c40 -43 17 -47 -26 -5 -47 46 -72 48 -72 8 0 -17 -4 -33 -10 -36 -6 -4 -10 27
-10 84 l0 91 54 0 c36 0 60 -5 70 -16z m3017 -322 c22 -24 29 -42 29 -72 0
-85 -40 -120 -140 -120 l-60 0 0 116 0 116 71 -4 c65 -3 74 -6 100 -36z m285
-24 l49 -63 5 60 c4 52 8 60 25 60 19 0 20 -8 23 -112 2 -103 1 -113 -15 -113
-10 1 -40 30 -68 66 l-50 64 -3 -65 c-3 -62 -4 -65 -27 -65 l-25 0 0 108 c0
148 10 156 86 60z m309 37 c0 -15 -8 -21 -32 -23 l-33 -3 0 -90 c0 -88 0 -89
-25 -89 -25 0 -25 1 -25 90 l0 90 -35 0 c-31 0 -35 3 -35 25 l0 26 93 -3 c84
-3 92 -5 92 -23z m193 -2 c3 -22 0 -23 -62 -23 -59 0 -66 -2 -66 -20 0 -16 8
-19 58 -22 50 -3 57 -6 60 -25 3 -22 0 -23 -57 -23 -54 0 -61 -2 -61 -20 0
-16 8 -19 63 -22 56 -3 62 -5 65 -25 3 -22 1 -23 -87 -23 l-91 0 0 108 c0 60
3 112 7 116 4 4 43 5 88 4 74 -3 80 -5 83 -25z m193 -2 c26 -32 24 -77 -5
-106 l-24 -24 29 -27 c37 -35 36 -44 0 -44 -22 0 -37 9 -57 35 -14 19 -35 35
-45 35 -15 0 -19 -7 -19 -35 0 -31 -3 -35 -25 -35 l-25 0 0 116 0 116 76 -4
c65 -3 79 -7 95 -27z m94 -18 c10 -27 25 -64 33 -83 l14 -35 32 80 c25 62 37
81 54 83 31 5 28 -15 -17 -128 -36 -88 -41 -95 -66 -95 -26 0 -31 8 -71 100
-24 55 -43 106 -44 113 0 6 11 12 24 12 19 0 27 -9 41 -47z m353 20 c3 -22 0
-23 -57 -23 -54 0 -61 -2 -61 -20 0 -18 7 -20 55 -20 52 0 55 -1 55 -25 0 -24
-3 -25 -55 -25 -48 0 -55 -2 -55 -20 0 -18 7 -20 60 -20 57 0 60 -1 60 -25 0
-25 -1 -25 -85 -25 l-85 0 0 115 0 116 83 -3 c76 -3 82 -5 85 -25z m120 -34
l47 -62 5 59 c4 52 8 59 28 62 22 3 22 2 22 -112 0 -141 -6 -144 -82 -49 l-53
67 -3 -67 c-3 -64 -4 -67 -27 -67 l-25 0 0 108 c0 60 3 112 7 115 16 17 36 3
81 -54z m310 34 c3 -20 -1 -23 -32 -23 l-36 0 0 -90 c0 -89 0 -90 -25 -90 -25
0 -25 1 -25 90 l0 90 -35 0 c-27 0 -35 4 -35 18 0 30 10 33 100 30 80 -3 85
-4 88 -25z m270 13 c85 -44 72 -182 -21 -213 -99 -33 -187 66 -142 161 29 61
102 84 163 52z m169 -46 l48 -60 5 58 c4 50 8 57 28 60 22 3 22 2 22 -112 0
-141 -7 -145 -82 -49 l-53 67 -3 -67 c-3 -64 -4 -67 -27 -67 l-25 0 0 108 c0
148 12 156 87 62z m-8880 -34 c26 -23 27 -26 11 -42 -16 -16 -19 -16 -51 0
-56 26 -102 17 -95 -20 2 -12 16 -21 43 -26 73 -14 80 -17 103 -38 24 -23 30
-77 11 -112 -13 -24 -67 -48 -111 -48 -41 0 -97 28 -116 57 -13 21 -12 23 11
34 22 10 30 8 53 -10 45 -36 121 -20 113 24 -3 14 -21 23 -72 35 -77 19 -94
32 -103 77 -5 27 -1 37 24 63 27 27 37 30 91 30 49 0 65 -4 88 -24z m271 15
c19 -1 23 -6 20 -28 -3 -28 -4 -28 -80 -31 -75 -3 -78 -4 -78 -27 0 -24 2 -25
75 -25 l75 0 0 -30 0 -30 -75 0 -75 0 0 -30 0 -30 80 0 80 0 0 -30 0 -30 -110
0 -110 0 0 149 0 149 88 -3 c48 -1 97 -3 110 -4z m115 -6 c8 -8 25 -30 37 -50
12 -19 25 -35 28 -35 4 0 19 20 35 44 27 43 70 67 88 49 5 -5 -12 -39 -36 -76
l-46 -67 41 -60 c57 -84 58 -90 21 -90 -26 0 -36 8 -63 50 -18 27 -36 50 -39
50 -4 0 -21 -22 -39 -50 -26 -41 -37 -50 -61 -50 -16 0 -29 5 -29 11 0 6 20
40 45 75 l45 65 -49 67 c-27 37 -47 70 -44 74 8 13 51 9 66 -7z m695 3 c12
-16 122 -265 122 -278 0 -6 -14 -10 -30 -10 -23 0 -33 6 -40 25 -9 24 -14 25
-85 25 -71 0 -76 -2 -87 -25 -8 -18 -19 -25 -40 -25 -15 0 -28 5 -28 12 0 14
108 256 123 276 5 6 20 12 32 12 12 0 27 -6 33 -12z m560 -101 c44 -114 38
-115 92 21 31 80 33 82 66 82 l34 0 -19 -47 c-11 -27 -38 -91 -60 -143 -39
-92 -41 -95 -72 -95 -32 0 -33 1 -89 140 -56 135 -57 140 -36 146 11 3 26 4
33 1 7 -2 30 -49 51 -105z m560 85 c41 -30 65 -94 57 -151 -5 -34 -16 -55 -45
-83 -35 -35 -42 -38 -96 -38 -33 0 -70 6 -84 13 -68 34 -93 149 -47 218 46 69
147 89 215 41z m1097 11 c38 -18 44 -33 20 -53 -12 -10 -21 -10 -41 -1 -69 31
-134 -6 -134 -78 0 -53 7 -69 41 -86 36 -19 57 -19 93 0 26 14 31 14 48 -1 25
-23 23 -28 -15 -49 -26 -13 -48 -17 -97 -13 -55 4 -66 8 -91 36 -115 129 21
319 176 245z m-2625 -88 c0 -88 2 -98 25 -120 13 -14 34 -25 45 -25 12 0 32
11 45 25 23 22 25 32 25 120 l0 95 30 0 30 0 0 -95 c0 -152 -29 -195 -130
-195 -101 0 -130 43 -130 195 l0 95 30 0 30 0 0 -95z m620 -20 l0 -114 73 -3
c69 -3 72 -4 72 -28 0 -25 -1 -25 -102 -28 l-103 -3 0 146 0 145 30 0 30 0 0
-115z m628 -27 l-3 -143 -27 -3 -28 -3 0 145 0 146 30 0 31 0 -3 -142z m432
27 l0 -114 73 -3 c69 -3 72 -4 72 -28 0 -25 -1 -25 -102 -28 l-103 -3 0 146 0
145 30 0 30 0 0 -115z m400 90 c0 -28 -7 -30 -102 -26 l-58 3 0 -31 0 -31 75
0 75 0 0 -30 0 -30 -75 0 -75 0 0 -30 0 -30 80 0 80 0 0 -30 0 -30 -110 0
-110 0 0 145 0 145 110 0 110 0 0 -25z m161 -55 l64 -79 3 79 3 80 29 0 30 0
0 -145 c0 -137 -1 -145 -19 -145 -13 0 -43 31 -88 89 l-68 89 -5 -86 -5 -87
-28 0 -29 0 -1 143 -2 142 26 0 c20 0 40 -17 90 -80z m669 55 c0 -21 -5 -25
-32 -26 -124 -3 -123 -2 -126 -31 l-3 -27 78 -3 c77 -3 78 -3 81 -30 l3 -28
-81 0 -81 0 3 -27 c3 -28 4 -28 81 -31 l77 -3 0 -30 0 -30 -107 3 -108 3 -3
143 -3 142 111 0 110 0 0 -25z m2973 -286 c39 -20 57 -51 57 -101 0 -38 -6
-54 -28 -79 -27 -30 -33 -32 -98 -33 l-69 -1 -3 113 -3 112 61 0 c34 0 71 -5
83 -11z m252 -14 c0 -18 -8 -20 -62 -23 -55 -3 -63 -6 -63 -22 0 -18 7 -20 61
-20 57 0 60 -1 57 -22 -3 -20 -10 -23 -60 -26 -50 -3 -58 -6 -58 -22 0 -18 7
-20 59 -20 51 0 59 -3 64 -21 7 -27 -5 -31 -94 -27 l-74 3 -3 113 -3 113 88
-3 c80 -3 88 -5 88 -23z m249 4 c34 -27 36 -82 4 -116 -17 -18 -32 -23 -69
-23 -47 0 -48 -1 -51 -32 -2 -25 -8 -33 -23 -33 -19 0 -20 8 -23 113 l-3 112
69 0 c55 0 75 -4 96 -21z m208 7 c40 -30 42 -94 4 -125 -14 -12 -13 -16 9 -43
31 -37 31 -48 1 -48 -16 0 -36 14 -60 41 -40 48 -63 47 -68 -3 -2 -25 -8 -33
-23 -33 -19 0 -20 7 -22 100 -1 55 0 106 2 113 6 17 134 16 157 -2z m223 -11
c0 -17 -8 -20 -57 -23 -50 -3 -58 -6 -58 -22 0 -17 7 -20 55 -20 52 0 55 -1
55 -25 0 -24 -3 -25 -55 -25 -48 0 -55 -3 -55 -20 0 -16 8 -19 58 -22 49 -3
57 -6 57 -23 0 -18 -8 -20 -82 -23 l-83 -3 0 116 0 116 83 -3 c74 -3 82 -5 82
-23z m98 -55 c15 -41 29 -76 31 -77 2 -2 16 32 33 74 26 67 34 78 57 81 14 2
26 0 26 -4 0 -3 -21 -56 -46 -116 -43 -100 -48 -109 -71 -106 -22 3 -31 18
-69 113 -24 60 -44 111 -44 113 0 2 12 2 27 0 24 -3 31 -12 56 -78z m337 55
c0 -24 -3 -25 -60 -25 -53 0 -60 -2 -60 -20 0 -16 8 -19 58 -22 49 -3 57 -6
57 -23 0 -17 -8 -20 -57 -23 -50 -3 -58 -6 -58 -22 0 -18 7 -20 61 -20 57 0
60 -1 57 -22 -3 -22 -8 -23 -83 -23 l-80 0 -3 113 -3 112 86 0 c84 0 85 0 85
-25z m125 -38 l50 -62 3 63 c3 59 5 63 25 60 21 -3 22 -8 25 -107 4 -147 -10
-153 -93 -44 l-50 67 -3 -73 c-2 -62 -5 -72 -20 -69 -15 3 -17 19 -20 116 -2
102 -1 112 15 112 10 0 41 -28 68 -63z m303 41 c-2 -18 -11 -24 -35 -26 l-33
-3 0 -90 c0 -82 -2 -89 -20 -89 -21 0 -33 29 -29 71 1 13 1 43 1 66 -2 39 -4
42 -34 45 -25 2 -34 8 -36 26 -3 21 -1 22 93 22 94 0 96 -1 93 -22z m299 -13
c33 -33 35 -38 31 -87 -7 -67 -48 -108 -108 -108 -77 0 -120 41 -120 115 0 74
41 114 114 115 42 0 53 -5 83 -35z m148 -28 l50 -62 3 63 c3 59 5 63 25 60 21
-3 22 -8 25 -107 4 -147 -10 -153 -93 -44 l-50 67 -3 -72 c-3 -64 -5 -72 -22
-72 -19 0 -20 8 -20 115 0 140 10 146 85 52z m365 38 c0 -24 -3 -25 -60 -25
-53 0 -60 -2 -60 -20 0 -18 7 -20 54 -20 57 0 70 -7 60 -34 -5 -12 -20 -16
-60 -16 -47 0 -54 -2 -54 -20 0 -18 7 -20 60 -20 57 0 60 -1 60 -25 0 -25 -1
-25 -85 -25 l-85 0 0 115 0 115 85 0 c84 0 85 0 85 -25z m210 0 c0 -22 -4 -25
-36 -25 -35 0 -35 -1 -34 -37 1 -21 2 -62 1 -91 -1 -49 -3 -53 -23 -50 -22 3
-23 7 -22 91 l1 87 -34 0 c-29 0 -33 3 -33 25 0 25 1 25 90 25 89 0 90 0 90
-25z m-9421 -173 c33 -24 36 -38 11 -52 -16 -8 -25 -7 -42 5 -28 19 -68 19
-94 1 -17 -13 -17 -16 -4 -30 9 -9 40 -20 70 -26 69 -13 100 -41 100 -90 0
-90 -141 -130 -220 -63 -36 30 -37 40 -6 55 20 8 28 7 41 -6 33 -32 109 -33
122 -1 9 25 -14 42 -77 54 -66 13 -100 44 -100 90 1 76 126 116 199 63z m1160
-1 c33 -23 36 -37 11 -51 -16 -8 -25 -7 -42 5 -28 19 -68 19 -94 1 -17 -13
-17 -16 -4 -30 9 -9 40 -20 70 -26 70 -13 100 -41 100 -92 0 -47 -24 -73 -80
-88 -52 -14 -104 -4 -141 27 -35 30 -36 40 -5 55 20 8 28 7 41 -6 47 -47 156
-20 115 29 -7 8 -28 17 -49 20 -58 10 -101 33 -111 61 -15 37 -13 50 13 79 38
45 124 52 176 16z m721 -6 c25 -23 25 -32 0 -45 -16 -8 -26 -7 -42 5 -47 32
-129 7 -98 -30 7 -8 28 -17 49 -20 86 -15 121 -44 121 -101 0 -89 -161 -123
-231 -48 -24 25 -24 26 -5 40 25 18 42 18 49 0 14 -35 127 -28 127 8 0 22 -23
35 -81 46 -61 12 -86 31 -95 76 -12 62 62 109 149 93 21 -3 46 -14 57 -24z
m-2413 5 c61 -39 56 -151 -8 -172 -9 -3 -1 -20 29 -54 l42 -49 -35 -3 c-31 -3
-41 3 -83 49 -60 65 -82 63 -82 -6 0 -46 0 -46 -32 -43 l-33 3 -3 134 c-1 74
0 141 3 149 7 19 170 12 202 -8z m291 -18 l3 -33 -58 1 c-101 3 -103 2 -103
-25 0 -23 3 -24 78 -27 75 -3 77 -4 77 -28 0 -24 -2 -25 -77 -28 l-78 -3 0
-29 0 -30 80 0 80 0 0 -30 0 -30 -110 0 -110 0 0 144 0 145 38 4 c20 2 69 4
107 3 l70 -1 3 -33z m533 0 c40 -45 41 -102 0 -142 -22 -23 -41 -30 -89 -36
l-61 -6 -3 -37 c-3 -31 -7 -36 -30 -39 l-28 -3 0 144 c0 79 3 147 8 151 4 4
44 6 90 4 80 -3 85 -4 113 -36z m269 23 c96 -50 104 -210 14 -266 -46 -28
-119 -30 -165 -3 -91 53 -91 200 0 261 40 27 107 31 151 8z m360 -135 c0 -188
-5 -191 -109 -59 l-71 91 0 -91 0 -91 -29 0 c-27 0 -29 3 -35 53 -7 60 -7 158
1 205 4 25 10 32 28 32 17 0 40 -21 87 -80 l63 -80 3 85 3 85 29 0 30 0 0
-150z m1534 125 c28 -19 46 -69 39 -108 -9 -46 -48 -71 -116 -77 l-62 -5 -3
-42 c-3 -40 -5 -43 -33 -43 l-29 0 0 144 0 145 38 4 c63 8 139 -1 166 -18z
m238 15 c55 -16 81 -54 75 -110 -7 -65 -40 -90 -117 -90 l-59 0 -3 -42 c-3
-40 -5 -43 -33 -43 l-30 0 -3 142 -3 142 43 4 c83 7 93 7 130 -3z m318 -8 c49
-24 83 -92 76 -150 -12 -88 -62 -134 -147 -134 -89 0 -149 59 -149 147 0 118
115 190 220 137z m312 -4 c10 -5 25 -23 34 -40 21 -41 5 -101 -33 -121 l-26
-14 41 -45 c23 -25 42 -48 42 -52 0 -3 -15 -6 -34 -6 -29 0 -41 8 -76 51 -56
66 -84 65 -88 -3 -3 -46 -5 -48 -33 -48 l-29 0 0 143 c0 79 3 147 7 150 8 9
173 -3 195 -15z m-1862 -13 c0 -25 -1 -25 -80 -25 l-80 0 0 -30 0 -30 75 0 75
0 0 -30 0 -30 -75 0 -75 0 0 -30 0 -30 81 0 80 0 -3 -27 -3 -28 -107 -3 -108
-3 0 146 0 145 110 0 110 0 0 -25z m550 -79 c0 -97 2 -106 22 -120 31 -22 64
-20 88 4 17 17 20 33 20 120 l0 100 31 0 31 0 -4 -116 -3 -116 -33 -29 c-27
-25 -41 -29 -88 -29 -50 0 -59 3 -90 34 -26 26 -34 43 -35 73 0 21 -3 65 -5
98 -6 75 -2 85 36 85 l30 0 0 -104z m1620 79 c0 -23 -4 -25 -45 -25 l-45 0 0
-120 0 -120 -30 0 -30 0 0 120 0 120 -45 0 c-41 0 -45 2 -45 25 l0 25 120 0
120 0 0 -25z m3925 -169 c38 -16 43 -27 20 -46 -12 -10 -19 -10 -27 -2 -19 19
-66 14 -88 -8 -24 -24 -26 -77 -3 -102 17 -19 68 -24 93 -8 9 5 19 5 27 -2 17
-14 14 -18 62 85 37 82 42 88 67 85 24 -3 33 -15 75 -110 l48 -108 -29 0 c-20
0 -31 6 -35 20 -5 17 -15 20 -60 20 -44 0 -56 -4 -65 -20 -8 -15 -20 -20 -43
-20 -18 1 -50 -2 -73 -5 -74 -13 -134 36 -134 108 0 52 25 96 63 112 41 18 60
18 102 1z m717 -25 c55 -61 42 -153 -27 -185 -42 -20 -68 -20 -110 -1 -38 19
-55 51 -55 106 0 51 13 75 53 100 45 28 103 20 139 -20z m504 29 c8 0 14 -9
14 -20 0 -18 -7 -20 -60 -20 -57 0 -60 -1 -60 -25 0 -24 3 -25 54 -25 57 0 70
-7 60 -34 -5 -12 -20 -16 -60 -16 -47 0 -54 -2 -54 -20 0 -18 7 -20 60 -20 53
0 60 -2 60 -20 0 -18 -7 -20 -85 -20 l-85 0 0 110 0 109 58 4 c31 1 63 2 70 0
8 -2 20 -3 28 -3z m972 1 c6 -1 12 -10 12 -21 0 -16 -7 -20 -35 -20 l-35 0 0
-90 c0 -89 0 -90 -25 -90 -25 0 -25 1 -25 90 l0 90 -35 0 c-28 0 -35 4 -35 19
0 24 25 30 105 26 33 -2 66 -4 73 -4z m238 -1 c37 0 44 -3 44 -20 0 -16 -8
-19 -62 -22 -55 -3 -63 -5 -63 -23 0 -17 8 -20 58 -23 54 -3 58 -5 55 -25 -3
-19 -10 -22 -53 -25 -47 -3 -70 -16 -59 -34 3 -4 32 -8 65 -8 52 0 59 -2 59
-20 0 -19 -7 -20 -91 -20 l-91 0 4 107 3 108 30 6 c17 4 36 5 43 3 8 -2 34 -4
58 -4z m186 0 c61 0 92 -89 44 -127 l-23 -19 29 -34 29 -35 -28 -3 c-21 -3
-35 4 -60 32 -43 47 -63 47 -63 1 0 -31 -3 -35 -25 -35 l-25 0 0 109 c0 120 2
123 60 116 19 -3 47 -5 62 -5z m194 0 c57 0 64 -2 64 -20 0 -18 -7 -20 -60
-20 -57 0 -60 -1 -60 -25 0 -24 3 -25 60 -25 53 0 60 -2 60 -20 0 -16 -8 -19
-57 -22 -50 -3 -58 -6 -58 -23 0 -17 8 -20 58 -23 49 -3 57 -6 57 -22 0 -18
-7 -20 -85 -20 l-85 0 0 108 c0 111 4 127 28 117 7 -3 43 -5 78 -5z m-3735
-29 c25 -25 29 -37 29 -81 0 -44 -4 -56 -29 -81 -27 -27 -35 -29 -100 -29
l-71 0 0 110 0 110 71 0 c65 0 73 -2 100 -29z m287 7 c3 -16 -5 -18 -62 -18
-64 0 -66 -1 -66 -25 0 -24 3 -25 61 -25 57 0 60 -1 57 -22 -3 -20 -8 -22 -48
-20 -51 3 -76 -9 -67 -31 4 -11 23 -17 64 -19 46 -2 59 -7 61 -20 3 -16 -6
-18 -82 -18 l-86 0 0 110 0 111 82 -3 c70 -3 83 -6 86 -20z m171 8 c49 -26 66
-98 36 -156 -21 -41 -43 -50 -119 -50 l-66 0 0 110 0 110 60 0 c34 0 73 -6 89
-14z m121 -57 c0 -85 11 -109 48 -109 44 0 52 16 52 102 0 77 0 78 25 78 25 0
25 -1 25 -84 0 -68 -4 -88 -20 -109 -25 -32 -69 -42 -116 -27 -46 16 -64 56
-64 150 0 68 1 70 25 70 24 0 25 -2 25 -71z m770 51 c0 -16 -7 -20 -35 -20
l-35 0 0 -90 c0 -89 0 -90 -25 -90 -25 0 -25 1 -25 90 l0 90 -35 0 c-28 0 -35
4 -35 20 0 19 7 20 95 20 88 0 95 -1 95 -20z m441 -37 l44 -58 5 55 c4 49 7
55 28 55 22 0 23 -4 28 -88 8 -150 -13 -164 -91 -60 l-50 67 -3 -67 c-3 -62
-5 -67 -25 -67 -21 0 -22 4 -21 88 0 48 1 97 2 110 3 40 37 26 83 -35z m490 0
l44 -57 5 55 c4 47 8 54 28 57 22 3 22 2 22 -107 0 -99 -2 -111 -17 -111 -10
1 -40 31 -68 67 l-50 67 -3 -67 c-3 -64 -4 -67 -27 -67 l-25 0 0 110 c0 109 0
110 24 110 17 0 36 -16 67 -57z m285 11 l32 -45 33 45 c25 36 39 46 61 46 l28
0 0 -110 0 -110 -25 0 c-24 0 -25 2 -25 73 -1 67 -2 71 -16 52 -8 -11 -24 -31
-35 -45 l-19 -25 -35 40 -34 40 -3 -65 c-3 -59 -5 -65 -25 -68 -23 -3 -23 -2
-23 107 l0 111 28 0 c21 0 34 -10 58 -46z m359 -59 c25 -55 45 -103 45 -107 0
-17 -46 -7 -58 12 -9 16 -23 20 -62 20 -39 0 -52 -4 -60 -20 -10 -19 -65 -30
-58 -11 2 5 23 55 48 110 42 96 46 102 73 99 24 -3 32 -14 72 -103z m-7181
-199 c43 -18 52 -34 33 -54 -13 -13 -21 -13 -42 -4 -45 21 -84 15 -117 -18
-27 -27 -30 -36 -25 -71 10 -74 63 -103 133 -74 34 14 39 14 55 0 19 -18 19
-18 94 158 28 65 31 67 65 67 l36 0 58 -132 c32 -73 58 -137 59 -143 1 -5 -10
-11 -25 -13 -21 -3 -30 3 -43 27 -15 30 -18 31 -85 31 -67 0 -70 -1 -85 -30
-15 -30 -56 -42 -70 -21 -3 6 -17 6 -36 -1 -17 -6 -55 -8 -85 -6 -63 5 -106
38 -125 96 -42 128 80 240 205 188z m896 -4 c73 -36 101 -129 63 -209 -25 -55
-66 -75 -140 -71 -49 3 -68 9 -89 28 -131 121 8 332 166 252z m-2070 -135 l0
-144 -83 -1 c-79 -1 -85 0 -109 26 -46 49 -45 112 1 158 23 23 32 26 78 22
l53 -5 0 44 c0 41 1 43 30 43 l30 0 0 -143z m342 113 l-4 -30 -79 0 c-77 0
-79 -1 -79 -25 0 -23 3 -24 78 -27 76 -3 77 -3 80 -30 l3 -28 -81 0 -81 0 3
-27 c3 -28 4 -28 81 -31 l77 -3 0 -30 0 -30 -107 3 -108 3 -3 143 -3 142 114
0 114 0 -5 -30z m228 14 c60 -36 83 -117 52 -187 -30 -67 -59 -82 -161 -82
l-86 0 -3 143 -3 142 87 0 c62 0 94 -5 114 -16z m160 -82 c0 -109 8 -128 56
-138 25 -5 37 -1 53 15 19 19 21 33 21 121 l0 100 30 0 30 0 0 -111 0 -111
-35 -35 c-34 -34 -37 -35 -97 -31 -53 4 -65 9 -89 36 -28 31 -29 36 -29 142
l0 110 30 0 30 0 0 -98z m990 73 c0 -22 -4 -25 -40 -25 l-39 0 -3 -117 -3
-118 -27 -3 -27 -3 -3 118 -3 118 -45 5 c-37 4 -46 9 -48 28 -3 22 -2 22 117
22 l121 0 0 -25z m90 -121 l0 -145 -27 3 -28 3 -3 143 -3 142 31 0 30 0 0
-146z m495 66 c33 -44 63 -79 68 -80 4 0 7 36 7 80 0 79 0 80 25 80 l25 0 0
-146 c0 -178 -3 -179 -105 -50 l-70 88 -5 -89 c-5 -86 -6 -88 -30 -88 l-25 0
-3 143 -3 142 28 0 c23 -1 39 -15 88 -80z m-2832 -1 l37 1 0 -103 0 -104 -86
-1 c-78 -1 -88 1 -110 23 -19 19 -24 34 -24 75 0 28 5 60 11 71 15 29 68 50
104 43 17 -4 47 -6 68 -5z m5921 -3 c44 -18 66 -51 66 -98 0 -83 -41 -118
-140 -118 l-60 0 0 108 c0 60 3 112 7 115 11 12 93 7 127 -7z m256 -11 c0 -24
-3 -25 -60 -25 -52 0 -60 -2 -60 -19 0 -21 26 -31 83 -31 30 0 37 -4 37 -20 0
-18 -7 -20 -60 -20 -53 0 -60 -2 -60 -20 0 -18 7 -20 60 -20 57 0 60 -1 60
-25 0 -25 -1 -25 -85 -25 l-85 0 0 108 c0 60 3 112 7 115 3 4 42 7 85 7 77 0
78 0 78 -25z m156 -47 c15 -40 31 -77 34 -81 4 -4 20 27 37 70 26 67 34 78 54
78 29 0 29 -2 -23 -128 -38 -90 -43 -98 -66 -95 -22 3 -31 17 -69 108 -23 58
-43 108 -43 113 0 4 11 7 24 7 21 0 28 -10 52 -72z m431 52 c59 -36 67 -137
14 -184 -45 -41 -129 -36 -168 9 -17 20 -23 39 -23 77 0 44 4 54 34 84 40 40
92 46 143 14z m121 -73 l3 -87 54 0 c52 0 55 -1 55 -25 0 -25 -1 -25 -80 -25
l-80 0 0 108 c0 60 3 112 7 116 4 4 14 5 23 4 12 -3 16 -21 18 -91z m306 77
c10 -27 -3 -34 -65 -34 -57 0 -60 -1 -57 -22 3 -20 10 -23 61 -26 49 -3 57 -6
57 -22 0 -18 -7 -20 -60 -20 -53 0 -60 -2 -60 -20 0 -18 7 -20 59 -20 45 0 60
-4 65 -16 11 -28 -4 -34 -85 -34 l-79 0 0 115 0 115 79 0 c63 0 80 -3 85 -16z
m123 -46 l48 -63 5 60 c4 53 8 60 28 63 22 3 22 2 22 -112 0 -141 -6 -145 -82
-50 l-53 66 -3 -66 c-3 -63 -4 -66 -27 -66 l-25 0 0 108 c0 149 12 157 87 60z
m304 46 c25 -12 28 -18 18 -30 -8 -10 -22 -12 -45 -8 -52 10 -81 -2 -93 -36
-22 -64 29 -116 92 -92 26 10 34 9 46 -3 20 -19 6 -34 -43 -45 -85 -19 -146
28 -146 112 0 43 4 54 34 84 39 39 86 45 137 18z m217 -11 c3 -22 0 -23 -57
-23 -58 0 -61 -1 -61 -25 0 -24 3 -25 61 -25 52 0 60 -2 57 -17 -2 -14 -15
-19 -61 -21 -49 -3 -57 -6 -57 -22 0 -18 7 -20 60 -20 57 0 60 -1 60 -25 0
-25 -1 -25 -85 -25 l-85 0 0 108 c0 60 3 112 7 116 4 4 41 5 83 4 69 -3 75 -5
78 -25z m243 8 c19 -16 21 -22 12 -32 -10 -10 -18 -10 -38 -1 -34 16 -60 15
-74 -2 -15 -18 3 -31 53 -39 49 -8 76 -32 76 -69 0 -61 -81 -94 -148 -61 -20
10 -38 25 -40 34 -4 24 28 32 49 14 25 -23 84 -16 84 9 0 15 -12 23 -50 32
-81 21 -105 72 -53 117 28 24 99 23 129 -2z m219 -6 c0 -24 -3 -25 -60 -25
-53 0 -60 -2 -60 -20 0 -16 8 -19 58 -22 50 -3 57 -6 60 -25 3 -22 0 -23 -57
-23 -54 0 -61 -2 -61 -20 0 -18 7 -20 60 -20 57 0 60 -1 60 -25 0 -25 -1 -25
-85 -25 l-85 0 0 108 c0 60 3 112 7 115 3 4 42 7 85 7 77 0 78 0 78 -25z m98
-10 c12 -19 26 -35 31 -35 5 0 19 16 31 35 15 24 29 35 46 35 32 0 30 -7 -10
-65 -19 -27 -32 -53 -29 -59 4 -6 19 -30 35 -53 34 -51 34 -53 3 -53 -17 0
-32 10 -47 35 -13 19 -26 35 -30 35 -3 0 -16 -16 -28 -35 -17 -27 -28 -35 -52
-35 l-30 0 40 56 41 57 -35 51 c-40 60 -41 66 -11 66 14 0 30 -12 45 -35z
m202 -38 c0 -82 16 -117 54 -117 36 0 45 19 48 105 3 74 5 80 26 83 21 3 22 1
22 -88 0 -83 -2 -93 -25 -115 -37 -37 -106 -37 -145 1 -21 20 -25 35 -28 99
-5 87 0 105 28 105 18 0 20 -6 20 -73z m358 46 c3 -20 -1 -22 -60 -25 -50 -2
-63 -6 -66 -20 -3 -15 4 -18 41 -18 58 0 77 -8 77 -31 0 -17 -8 -19 -60 -19
-53 0 -60 -2 -60 -20 0 -16 8 -19 63 -22 54 -3 62 -5 62 -23 0 -18 -8 -20 -82
-23 l-83 -3 0 116 0 116 83 -3 c76 -3 82 -5 85 -25z m70 -66 l3 -87 54 0 c52
0 55 -1 55 -25 0 -25 -1 -25 -80 -25 l-80 0 0 108 c0 60 3 112 7 116 4 4 14 5
23 4 12 -3 16 -21 18 -91z m190 1 l3 -87 52 -3 c45 -3 52 -6 55 -25 3 -22 1
-23 -77 -23 l-81 0 0 116 c0 114 0 115 23 112 21 -3 22 -8 25 -90z m300 65 c3
-22 0 -23 -57 -23 -54 0 -61 -2 -61 -20 0 -17 7 -20 48 -20 55 0 77 -11 69
-34 -5 -12 -20 -16 -62 -16 -48 0 -55 -2 -55 -20 0 -18 7 -20 60 -20 57 0 60
-1 60 -25 0 -25 -1 -25 -85 -25 l-85 0 0 115 0 116 83 -3 c76 -3 82 -5 85 -25z
m-9393 7 c4 -6 15 -6 31 0 42 16 64 12 95 -19 27 -27 29 -35 29 -105 l0 -76
-30 0 -29 0 -3 73 c-3 72 -3 72 -33 75 -40 5 -55 -19 -55 -90 0 -58 0 -58 -30
-58 l-30 0 0 98 c0 54 3 102 7 105 10 10 41 8 48 -3z"/>
<path d="M9251 3325 c-315 -69 -559 -271 -683 -567 -85 -202 -89 -459 -11
-669 31 -85 39 -86 13 -2 -29 93 -42 244 -31 344 27 234 84 401 183 534 160
215 376 334 659 364 l84 8 -75 1 c-41 0 -104 -6 -139 -13z"/>
<path d="M9591 3169 c-105 -42 -195 -105 -283 -197 -168 -176 -249 -396 -235
-635 8 -121 23 -182 72 -285 91 -192 272 -354 472 -423 51 -17 55 -17 108 1
439 151 681 668 510 1093 -53 132 -172 280 -288 359 -79 54 -218 118 -253 118
-16 0 -62 -14 -103 -31z"/>
<path d="M9130 3169 c-63 -28 -204 -176 -263 -275 -57 -97 -110 -241 -127
-347 -23 -144 6 -390 56 -476 10 -16 13 -18 9 -6 -61 188 -36 542 53 736 68
150 176 283 303 371 32 23 23 22 -31 -3z"/>
<path d="M9361 3170 c-58 -27 -186 -156 -249 -253 -123 -189 -176 -438 -139
-652 9 -49 26 -115 37 -145 11 -30 18 -41 14 -25 -20 100 -25 151 -25 244 2
309 87 537 271 722 47 47 99 95 115 107 37 27 32 27 -24 2z"/>
<path d="M10298 3115 c84 -78 210 -242 257 -335 132 -265 140 -561 20 -836
l-25 -59 30 35 c44 50 125 222 146 310 27 107 25 307 -4 413 -58 214 -216 399
-432 507 l-65 32 73 -67z"/>
<path d="M10098 3083 c147 -148 252 -320 298 -486 55 -199 41 -423 -39 -621
-19 -47 -33 -86 -31 -86 10 0 91 133 119 194 90 197 98 446 22 636 -72 178
-218 334 -394 424 -29 14 -54 26 -57 26 -2 0 35 -39 82 -87z"/>
<path d="M8974 3084 c-104 -69 -231 -220 -284 -337 -174 -384 -53 -814 290
-1030 35 -22 34 -21 -16 43 -192 243 -268 473 -243 735 20 213 103 401 243
553 32 34 56 62 53 62 -2 0 -22 -12 -43 -26z"/>
<path d="M9195 3076 c-71 -47 -186 -172 -233 -252 -108 -181 -143 -379 -107
-588 19 -107 50 -186 110 -275 47 -72 188 -212 244 -245 30 -17 27 -11 -31 65
-165 216 -228 389 -228 622 0 251 81 466 240 640 34 37 60 67 58 67 -2 0 -26
-15 -53 -34z"/>
<path d="M10118 3005 c129 -146 215 -398 215 -635 0 -183 -46 -336 -146 -487
-42 -63 -162 -187 -232 -241 -17 -12 -21 -18 -10 -13 45 22 160 127 221 204
36 45 83 119 105 163 116 238 125 528 24 776 -41 100 -152 249 -208 280 -12 6
2 -15 31 -47z"/>
<path d="M10343 3010 c153 -170 245 -480 218 -730 -13 -119 -53 -242 -112
-346 -47 -82 -171 -222 -239 -269 -22 -15 -38 -30 -36 -33 8 -8 121 85 176
145 247 270 314 657 171 1000 -16 40 -43 92 -59 115 -41 59 -120 146 -146 160
-11 6 0 -12 27 -42z"/>
<path d="M10550 3047 c0 -5 17 -29 38 -55 130 -158 205 -383 205 -617 0 -287
-102 -496 -353 -715 -15 -13 -9 -11 15 5 237 164 391 496 371 800 -12 195 -94
397 -210 520 -36 39 -65 66 -66 62z"/>
<path d="M10575 2678 c59 -216 40 -477 -50 -666 -50 -105 -99 -176 -190 -271
l-80 -84 63 34 c159 86 253 227 307 459 36 153 18 387 -39 510 -9 19 -14 27
-11 18z"/>
<path d="M10805 2675 c19 -60 35 -178 35 -265 0 -207 -65 -409 -184 -566 -106
-142 -250 -252 -411 -314 -44 -18 -114 -45 -155 -61 -41 -16 -100 -36 -130
-44 l-55 -15 100 5 c290 14 553 168 717 420 105 162 150 313 150 510 1 126
-24 266 -58 323 -8 15 -12 18 -9 7z"/>
<path d="M10354 2650 c25 -135 28 -176 23 -289 -11 -245 -95 -437 -271 -620
l-81 -84 61 32 c132 69 210 166 269 331 58 163 72 346 40 502 -14 70 -51 186
-41 128z"/>
<path d="M8548 2381 c-10 -36 8 -205 30 -281 26 -89 63 -176 97 -230 40 -63
139 -164 211 -216 76 -55 228 -127 310 -148 114 -29 113 -13 -1 24 -237 77
-431 243 -534 455 -43 89 -89 255 -100 355 -5 48 -8 59 -13 41z"/>
<path d="M8785 2290 c4 -131 32 -244 92 -370 29 -60 56 -94 132 -170 93 -93
133 -121 196 -136 24 -6 18 2 -35 41 -216 160 -342 386 -380 680 -8 64 -9 60
-5 -45z"/>
<path d="M9015 2285 c4 -133 30 -237 88 -355 34 -70 58 -102 136 -180 93 -93
133 -121 196 -136 24 -6 18 2 -35 41 -208 155 -345 395 -380 670 -8 64 -9 61
-5 -40z"/>
<path d="M8870 1636 c0 -3 28 -25 63 -49 146 -104 315 -165 482 -173 l100 -5
-100 31 c-55 16 -109 30 -121 30 -73 0 -294 85 -391 150 -18 12 -33 19 -33 16z"/>
<path d="M6883 3200 c-45 -18 -55 -72 -22 -114 24 -30 63 -34 97 -10 33 23 31
86 -4 113 -29 23 -38 24 -71 11z"/>
<path d="M7976 3189 c-52 -41 -23 -129 44 -129 65 0 93 78 45 125 -30 30 -54
31 -89 4z"/>
<path d="M13323 2870 c-25 -10 -43 -39 -43 -70 0 -29 44 -70 74 -70 29 0 66
42 66 75 0 47 -53 82 -97 65z"/>
<path d="M6745 2765 c-42 -41 -29 -131 22 -154 38 -17 69 -13 100 13 24 20 28
32 27 70 -1 62 -32 96 -86 96 -28 0 -46 -7 -63 -25z"/>
<path d="M13220 2480 c-23 -23 -27 -78 -7 -102 21 -27 62 -30 91 -7 50 39 23
129 -39 129 -14 0 -34 -9 -45 -20z"/>
<path d="M5092 2293 c-19 -7 -42 -58 -42 -91 0 -38 32 -79 68 -87 71 -15 125
52 103 127 -7 21 -20 42 -31 48 -19 10 -75 12 -98 3z"/>
<path d="M7552 2295 c-60 -26 -72 -106 -23 -156 74 -73 182 12 141 111 -14 34
-19 38 -59 50 -17 5 -39 3 -59 -5z"/>
<path d="M12796 2104 c-23 -23 -29 -59 -15 -86 16 -31 28 -38 66 -38 57 0 85
78 43 120 -24 24 -72 26 -94 4z"/>
<path d="M7785 1778 c-48 -56 -20 -141 50 -154 61 -11 104 27 105 94 0 58 -33
92 -89 92 -32 0 -44 -6 -66 -32z"/>
<path d="M6285 1798 c-3 -8 -5 -48 -3 -89 l3 -74 35 -3 c73 -5 121 49 100 112
-14 45 -28 55 -83 62 -36 5 -48 3 -52 -8z"/>
<path d="M11990 1737 c-14 -7 -28 -26 -34 -45 -12 -43 17 -86 62 -90 66 -7 97
74 47 123 -27 28 -39 30 -75 12z"/>
</g>
</svg>
