<?xml version="1.0" standalone="no"?>
<!DOCTYPE svg PUBLIC "-//W3C//DTD SVG 20010904//EN"
 "http://www.w3.org/TR/2001/REC-SVG-20010904/DTD/svg10.dtd">
<svg version="1.0" xmlns="http://www.w3.org/2000/svg"
 width="1287.000000pt" height="809.000000pt" viewBox="0 0 1287.000000 809.000000"
 preserveAspectRatio="xMidYMid meet">
<metadata>
Created by potrace 1.16, written by Peter Selinger 2001-2019
</metadata>
<g transform="translate(0.000000,809.000000) scale(0.100000,-0.100000)"
fill="#000000" stroke="none">
<path d="M10740 3150 l0 -200 -75 0 -75 0 0 170 c0 98 -4 170 -9 170 -5 0 -11
10 -13 23 -2 17 -11 23 -37 25 -39 4 -81 -14 -81 -35 0 -7 -4 -13 -10 -13 -6
0 -9 -63 -8 -172 l1 -173 7 165 c7 195 12 210 74 210 41 0 43 -2 54 -39 7 -21
12 -101 12 -179 0 -77 3 -147 6 -156 8 -22 139 -23 160 -2 11 12 14 54 14 210
0 124 -4 196 -10 196 -6 0 -10 -73 -10 -200z"/>
</g>
</svg>
