<?xml version="1.0" standalone="no"?>
<!DOCTYPE svg PUBLIC "-//W3C//DTD SVG 20010904//EN"
 "http://www.w3.org/TR/2001/REC-SVG-20010904/DTD/svg10.dtd">
<svg version="1.0" xmlns="http://www.w3.org/2000/svg"
 width="900.000000pt" height="900.000000pt" viewBox="0 0 900.000000 900.000000"
 preserveAspectRatio="xMidYMid meet">
<metadata>
Created by potrace 1.16, written by Peter Selinger 2001-2019
</metadata>
<g transform="translate(0.000000,900.000000) scale(0.100000,-0.100000)"
fill="#000000" stroke="none">
<path d="M3525 8225 c-49 -17 -120 -92 -175 -184 -83 -139 -152 -354 -184
-576 -72 -482 -11 -1048 119 -1107 14 -6 28 -22 32 -35 15 -60 -33 -207 -83
-254 l-23 -22 -138 17 c-139 17 -237 39 -260 58 -24 19 -13 40 57 115 48 51
83 102 112 159 37 75 42 95 46 170 3 64 0 95 -13 129 -24 63 -68 105 -110 105
-42 0 -55 -20 -55 -84 0 -61 15 -96 41 -96 18 0 20 -4 14 -32 -11 -56 -61
-154 -100 -197 -34 -37 -42 -41 -69 -35 -113 24 -304 161 -596 428 -80 73
-167 149 -195 170 -27 20 -71 59 -97 87 -25 27 -55 49 -66 49 -25 0 -93 -50
-126 -93 -57 -74 -52 -139 12 -179 31 -20 50 -23 122 -22 47 0 99 4 117 9 27
6 43 1 97 -29 121 -68 306 -228 341 -296 14 -27 14 -30 -4 -40 -11 -5 -73 -10
-138 -10 -194 1 -424 38 -513 84 -65 33 -95 38 -155 26 -65 -13 -130 -58 -152
-105 -15 -31 -15 -36 0 -59 21 -32 79 -43 257 -51 317 -14 501 -55 655 -144
87 -50 255 -223 360 -371 241 -340 352 -445 485 -457 81 -8 150 26 222 107 44
51 54 57 71 48 11 -5 32 -8 48 -6 27 4 30 1 48 -46 22 -59 42 -175 71 -406 25
-203 45 -320 66 -389 8 -29 14 -55 12 -56 -7 -8 -417 308 -515 397 -37 33 -49
38 -90 38 -61 0 -119 -27 -177 -80 -187 -173 -194 -444 -17 -668 23 -29 40
-52 38 -52 -2 0 -31 11 -65 25 -34 14 -77 25 -95 25 -60 0 -315 68 -337 90
-33 33 -108 21 -131 -21 -9 -18 -8 -29 6 -55 20 -38 57 -54 124 -55 l46 -1
-30 -13 c-59 -27 -350 -8 -459 30 -57 20 -133 18 -183 -4 -35 -16 -43 -25 -49
-57 -4 -20 -3 -53 2 -73 8 -32 13 -36 44 -39 26 -2 47 5 79 26 l43 29 87 -23
c249 -69 310 -103 388 -215 28 -41 60 -93 72 -116 33 -66 19 -88 -139 -215
-141 -113 -170 -150 -155 -198 14 -45 116 -66 175 -35 29 15 33 23 45 96 12
79 133 156 356 226 87 28 133 48 152 67 14 14 35 26 47 26 64 0 180 -109 376
-355 140 -176 239 -283 300 -323 23 -16 112 -53 196 -82 193 -66 555 -205 825
-316 114 -47 231 -91 258 -96 75 -16 111 3 179 95 74 100 102 123 166 130 104
12 213 85 294 196 19 25 71 114 116 196 45 83 93 166 107 185 35 48 115 130
127 130 15 0 -1 -125 -39 -306 -43 -204 -52 -302 -34 -364 8 -29 12 -87 10
-165 -2 -111 -1 -124 21 -165 31 -57 107 -99 194 -107 58 -5 61 -4 112 36 61
49 172 180 267 316 162 231 370 614 431 790 15 44 40 100 55 125 86 143 178
495 179 681 l0 46 68 31 c135 61 223 71 271 33 66 -54 103 -52 163 8 32 32 38
45 38 80 0 39 -3 43 -37 58 -34 14 -50 14 -143 3 -58 -7 -141 -15 -186 -17
-74 -5 -83 -3 -107 19 -36 31 -71 166 -71 268 0 87 24 150 117 316 55 98 58
102 97 108 58 9 90 26 96 52 7 28 -18 68 -62 95 -30 18 -38 19 -70 9 -43 -15
-112 -74 -125 -108 -10 -27 -114 -179 -157 -230 l-28 -34 -33 124 c-55 202
-100 291 -161 323 -111 57 -155 -44 -96 -217 30 -86 31 -99 11 -137 -29 -57
-103 -80 -361 -111 -284 -35 -347 -56 -426 -143 -39 -42 -50 -49 -60 -39 -16
16 -15 176 3 277 6 39 14 113 16 166 4 87 2 103 -27 192 -41 121 -120 264
-261 471 l-110 161 37 3 c54 5 217 -23 307 -53 48 -15 97 -40 128 -65 77 -61
147 -74 236 -44 56 19 335 200 440 286 158 128 243 279 243 429 0 56 -1 58
-47 96 -27 22 -122 95 -213 163 -210 157 -364 308 -410 402 -29 59 -32 75 -28
131 3 49 10 75 31 106 28 42 28 42 12 96 -22 77 -57 115 -105 115 -21 0 -48
-8 -61 -19 -13 -10 -40 -26 -59 -36 -45 -23 -50 -31 -50 -81 0 -34 11 -58 64
-138 70 -105 92 -171 81 -235 l-7 -40 -91 72 c-120 94 -218 188 -264 249 -36
50 -37 50 -80 44 -123 -17 -188 -102 -153 -202 10 -27 16 -31 79 -40 139 -22
311 -131 486 -308 55 -56 128 -142 162 -193 59 -88 102 -187 88 -201 -4 -4
-43 -7 -88 -7 -90 1 -213 33 -256 66 -47 37 -142 15 -185 -44 -13 -17 -21 -43
-21 -68 0 -34 6 -46 33 -70 39 -35 61 -36 172 -8 88 23 139 22 175 -5 18 -13
18 -14 -3 -49 -73 -116 -295 -91 -642 74 -69 33 -166 83 -216 110 l-92 51 -20
71 c-12 40 -33 118 -47 175 -55 221 -108 353 -174 436 -107 133 -595 510 -876
675 -176 103 -393 154 -500 116z"/>
<path d="M5290 2159 c-36 -12 -85 -23 -110 -26 -44 -5 -80 -26 -80 -46 0 -5
-28 -35 -63 -67 -34 -32 -69 -69 -76 -84 -19 -35 -27 -33 -34 9 -17 103 -137
186 -297 205 -47 6 -175 9 -285 8 l-200 -3 -3 -487 -2 -488 140 0 c105 0 140
3 141 13 0 6 0 90 0 185 0 95 4 170 8 167 5 -2 66 -86 136 -185 l128 -180 173
0 c96 0 174 2 174 5 0 3 -53 67 -118 143 -64 75 -138 162 -164 192 l-47 56 50
17 c27 10 65 31 84 48 l34 30 6 -38 c14 -92 40 -168 75 -222 21 -32 43 -62 49
-65 18 -11 13 -24 -11 -28 -13 -2 -24 -11 -26 -23 -3 -16 -1 -18 9 -7 23 22
67 13 118 -23 120 -87 242 -116 462 -113 129 2 153 5 163 20 7 9 42 32 78 51
l67 35 14 -42 c17 -53 53 -61 86 -20 21 27 71 170 71 204 0 51 13 49 49 -8
106 -163 307 -252 541 -239 223 12 380 107 468 282 20 41 36 107 47 203 6 48
9 52 24 39 32 -29 119 -66 226 -97 131 -38 175 -66 175 -114 0 -52 -61 -96
-134 -96 -50 0 -125 26 -190 65 -45 27 -61 33 -68 23 -5 -7 -31 -53 -59 -101
-60 -103 -62 -98 61 -146 108 -42 184 -54 303 -49 181 9 291 67 349 186 29 59
33 76 33 152 0 72 -4 92 -25 128 -40 71 -117 113 -315 171 -87 26 -117 48
-117 86 0 56 84 93 169 75 26 -6 67 -20 91 -32 24 -11 45 -19 47 -17 8 9 105
181 105 188 0 11 -143 58 -218 72 -35 7 -102 9 -153 7 -114 -7 -195 -44 -263
-119 -68 -75 -95 -198 -67 -297 l10 -32 -270 0 -269 0 0 -105 0 -105 114 0
115 0 -11 -32 c-28 -85 -125 -135 -243 -126 -73 6 -130 34 -175 84 -129 147
-93 400 70 488 45 25 65 29 125 29 92 0 162 -35 209 -104 l31 -46 129 49 c72
27 132 51 134 53 13 12 -94 137 -148 173 -105 71 -156 85 -315 90 -160 5 -216
-5 -323 -53 -86 -40 -180 -125 -225 -203 l-30 -53 -28 49 c-43 75 -129 146
-249 205 l-104 51 -156 3 c-135 2 -164 0 -220 -18z m-732 -214 c62 -19 82 -44
82 -105 0 -25 -7 -55 -15 -67 -18 -25 -100 -53 -157 -53 l-38 0 0 120 0 120
38 0 c21 0 62 -7 90 -15z"/>
<path d="M3490 2092 c0 -64 2 -70 31 -98 18 -16 46 -51 64 -79 114 -178 92
-407 -54 -564 -39 -42 -41 -47 -41 -108 l0 -63 140 0 140 0 0 190 0 190 155 0
155 0 0 110 0 110 -155 0 -155 0 0 80 0 80 170 0 170 0 0 110 0 110 -310 0
-310 0 0 -68z"/>
<path d="M1190 1671 l0 -481 140 0 140 0 2 183 3 182 129 -182 130 -183 453 0
453 0 0 105 0 105 -170 0 -171 0 3 83 3 82 158 3 157 3 0 104 0 105 -160 0
-160 0 0 80 0 80 170 0 170 0 0 105 0 105 -305 0 -305 0 0 -440 c0 -265 -4
-440 -9 -440 -9 0 -261 291 -264 305 -1 3 22 14 51 24 61 21 102 57 140 121
24 40 27 55 27 141 0 89 -2 99 -30 145 -32 50 -103 102 -175 126 -22 7 -136
13 -307 15 l-273 4 0 -480z m446 266 c39 -20 58 -65 51 -120 -9 -65 -64 -97
-169 -97 l-48 0 0 121 0 122 68 -5 c37 -3 81 -12 98 -21z"/>
<path d="M2692 1668 l3 -483 240 0 c195 1 252 4 305 18 320 85 482 393 350
663 -42 85 -137 177 -237 228 -95 48 -156 56 -421 56 l-242 0 2 -482z m493
243 c105 -47 154 -122 155 -235 0 -127 -38 -194 -137 -242 -45 -22 -74 -29
-145 -32 l-88 -4 0 272 0 273 83 -5 c55 -3 98 -12 132 -27z"/>
<path d="M1290 1053 c-29 -11 -60 -47 -60 -69 0 -34 42 -61 117 -74 74 -13 93
-23 93 -51 0 -25 -30 -39 -85 -39 -39 0 -52 5 -75 30 -48 51 -83 32 -40 -23
45 -56 209 -54 240 4 28 51 -8 91 -98 109 -31 6 -67 15 -79 20 -32 13 -30 48
3 60 46 18 84 12 112 -18 34 -36 66 -33 50 4 -7 14 -24 32 -39 40 -27 14 -109
18 -139 7z"/>
<path d="M1677 1054 c-4 -4 -7 -51 -7 -105 0 -87 2 -101 23 -124 45 -53 179
-52 225 0 21 25 22 35 20 128 -3 94 -4 102 -23 102 -18 0 -20 -8 -23 -100 -3
-122 -12 -135 -87 -135 -75 0 -84 13 -87 135 -2 81 -6 100 -18 103 -9 1 -19 0
-23 -4z"/>
<path d="M3061 1043 c-45 -22 -71 -67 -71 -124 0 -80 61 -132 156 -132 101 0
171 64 160 147 -9 77 -72 126 -161 126 -27 0 -65 -8 -84 -17z m171 -52 c63
-71 18 -171 -77 -171 -65 0 -102 22 -116 69 -15 51 -2 90 42 119 48 34 112 26
151 -17z"/>
<path d="M4727 1053 c-4 -3 -7 -64 -7 -135 l0 -128 25 0 c24 0 24 1 27 101 l3
100 83 -100 c64 -79 88 -101 107 -101 l26 0 -3 133 c-3 124 -4 132 -23 132
-19 0 -20 -7 -20 -103 0 -56 -2 -102 -5 -101 -3 0 -43 47 -89 105 -76 95 -104
117 -124 97z"/>
<path d="M5978 1054 c-3 -3 13 -62 36 -132 38 -113 45 -127 67 -130 22 -2 27
5 53 80 52 149 43 146 86 28 32 -90 41 -105 61 -108 22 -3 27 6 67 125 24 70
43 131 42 136 0 4 -9 7 -20 7 -16 0 -25 -19 -54 -107 -19 -62 -37 -102 -40
-93 -3 8 -19 53 -34 99 -47 139 -73 137 -121 -9 -21 -66 -36 -98 -41 -89 -4 8
-18 50 -30 94 -13 44 -28 86 -33 93 -10 13 -30 16 -39 6z"/>
<path d="M6630 1049 c-64 -26 -101 -100 -80 -163 44 -133 266 -133 310 0 21
64 -16 138 -83 163 -35 13 -113 13 -147 0z m155 -49 c46 -43 41 -130 -9 -165
-11 -9 -43 -15 -71 -15 -58 0 -87 16 -105 59 -22 55 6 123 60 144 31 13 101
-1 125 -23z"/>
<path d="M7500 925 c0 -128 1 -135 20 -135 17 0 20 7 20 44 0 37 5 48 28 66
l27 22 62 -67 c51 -54 67 -66 88 -63 25 3 24 6 -45 80 l-71 77 65 48 c36 26
65 51 66 54 0 4 -11 7 -24 7 -14 0 -58 -27 -107 -65 l-84 -65 -3 66 c-3 58 -5
66 -22 66 -19 0 -20 -8 -20 -135z"/>
<path d="M2140 920 l0 -130 25 0 c24 0 25 3 25 55 l0 55 74 0 c59 0 78 4 100
21 34 27 36 77 3 107 -21 20 -34 22 -125 22 l-102 0 0 -130z"/>
<path d="M2570 920 l0 -130 25 0 c24 0 25 3 25 55 l0 55 74 0 c91 0 126 21
126 76 0 62 -24 74 -145 74 l-105 0 0 -130z"/>
<path d="M3480 920 l0 -130 25 0 c24 0 25 3 25 55 l0 55 69 0 c78 0 87 -6 97
-68 6 -36 10 -42 31 -42 19 0 24 4 19 16 -3 9 -6 29 -6 45 0 16 -8 37 -18 47
-18 18 -18 20 5 46 27 32 24 60 -9 89 -17 14 -40 17 -129 17 l-109 0 0 -130z"/>
<path d="M3902 1038 c3 -8 26 -14 56 -16 l52 -3 0 -115 0 -114 25 0 25 0 0
115 0 115 55 0 c42 0 55 3 55 15 0 13 -22 15 -136 15 -104 0 -135 -3 -132 -12z"/>
<path d="M5190 920 l0 -130 115 0 c96 0 115 3 115 15 0 12 -17 15 -90 15 l-90
0 0 45 0 45 85 0 c69 0 85 3 85 15 0 12 -16 15 -85 15 l-85 0 0 40 0 40 90 0
c73 0 90 3 90 15 0 12 -19 15 -115 15 l-115 0 0 -130z"/>
<path d="M5570 1035 c0 -12 13 -15 55 -15 l55 0 0 -115 c0 -108 1 -115 20
-115 19 0 20 7 20 115 l0 114 57 3 c34 2 58 8 61 16 3 9 -28 12 -132 12 -114
0 -136 -2 -136 -15z"/>
<path d="M7050 920 c0 -123 1 -130 20 -130 18 0 20 7 20 55 l0 55 68 0 c37 0
73 -4 80 -8 7 -5 16 -28 20 -53 6 -38 11 -44 35 -47 25 -3 26 -2 17 23 -5 14
-10 36 -10 47 0 12 -7 29 -16 39 -14 16 -14 19 5 38 29 29 27 65 -5 90 -23 18
-41 21 -130 21 l-104 0 0 -130z"/>
</g>
</svg>
