<?xml version="1.0" standalone="no"?>
<!DOCTYPE svg PUBLIC "-//W3C//DTD SVG 20010904//EN"
 "http://www.w3.org/TR/2001/REC-SVG-20010904/DTD/svg10.dtd">
<svg version="1.0" xmlns="http://www.w3.org/2000/svg"
 width="2000.000000pt" height="643.000000pt" viewBox="0 0 2000.000000 643.000000"
 preserveAspectRatio="xMidYMid meet">
<metadata>
Created by potrace 1.16, written by Peter Selinger 2001-2019
</metadata>
<g transform="translate(0.000000,643.000000) scale(0.100000,-0.100000)"
fill="#000000" stroke="none">
<path d="M9065 4609 c-154 -20 -353 -83 -475 -151 -197 -110 -379 -307 -493
-533 -178 -356 -214 -745 -108 -1157 101 -391 304 -655 631 -823 237 -121 491
-170 760 -145 389 35 672 174 889 436 172 208 273 447 310 733 15 117 13 378
-3 486 -98 634 -500 1060 -1086 1150 -103 16 -313 18 -425 4z m378 -505 c225
-50 390 -201 474 -433 123 -336 116 -671 -18 -976 -117 -268 -328 -404 -626
-405 -216 0 -373 58 -499 184 -110 111 -177 249 -225 466 -31 136 -33 391 -6
510 64 275 173 465 322 564 57 39 163 82 230 96 72 14 272 11 348 -6z"/>
<path d="M15230 4614 c-452 -57 -751 -277 -846 -625 -24 -88 -24 -280 0 -368
62 -227 231 -394 501 -496 100 -37 299 -95 534 -155 282 -71 394 -118 475
-196 58 -56 80 -108 80 -189 -1 -155 -100 -257 -304 -312 -87 -24 -335 -24
-432 0 -146 36 -267 116 -324 214 -33 55 -64 153 -64 201 0 21 -4 43 -8 50 -7
9 -71 12 -288 10 l-279 -3 2 -78 c3 -129 30 -233 90 -352 135 -265 392 -431
776 -501 132 -25 425 -25 572 -1 365 60 631 228 750 473 100 205 113 472 31
657 -74 169 -233 320 -419 399 -94 40 -156 58 -417 123 -535 133 -639 174
-698 274 -21 37 -26 56 -25 110 2 154 94 256 270 297 93 22 302 14 391 -14
161 -52 253 -156 277 -315 4 -25 13 -51 20 -57 8 -7 106 -9 286 -8 l274 3 -3
77 c-6 182 -91 378 -216 504 -79 78 -211 155 -351 204 -160 57 -243 71 -440
75 -99 2 -196 1 -215 -1z"/>
<path d="M17655 4609 c-372 -48 -675 -252 -779 -527 -39 -103 -48 -157 -49
-277 -1 -185 52 -330 167 -452 149 -160 335 -243 799 -359 269 -67 360 -95
452 -143 179 -92 238 -238 160 -397 -43 -89 -150 -154 -309 -189 -94 -21 -301
-16 -403 9 -206 51 -341 183 -374 366 -6 36 -13 75 -15 88 l-4 22 -279 0
c-233 0 -280 -2 -284 -14 -3 -8 -1 -59 4 -113 36 -358 259 -623 635 -752 357
-122 872 -97 1179 57 307 153 469 431 452 771 -4 64 -13 139 -21 167 -53 187
-224 375 -428 468 -79 37 -173 64 -513 151 -424 108 -523 143 -588 209 -44 44
-61 100 -54 181 9 120 73 201 196 251 57 23 85 27 196 31 147 5 237 -9 335
-53 105 -47 191 -164 206 -280 4 -27 11 -55 17 -61 7 -10 75 -13 277 -13 225
0 270 2 280 15 27 33 -20 277 -75 385 -117 231 -398 403 -745 455 -103 16
-323 18 -435 4z"/>
<path d="M11012 4548 c-17 -17 -17 -2669 0 -2686 17 -17 519 -17 536 0 9 9 12
233 12 947 0 561 4 931 9 926 5 -6 34 -82 64 -170 57 -164 145 -416 262 -750
37 -104 104 -298 150 -430 185 -533 177 -513 199 -527 20 -14 420 -9 438 5 8
6 57 134 108 282 51 149 130 380 177 515 47 135 109 315 138 400 140 409 238
686 246 695 5 5 9 -375 9 -936 0 -722 3 -948 12 -957 17 -17 519 -17 536 0 17
17 17 2669 0 2686 -18 18 -811 17 -826 0 -5 -7 -39 -105 -75 -218 -36 -113
-86 -268 -111 -345 -197 -612 -268 -831 -335 -1040 -42 -132 -81 -240 -86
-240 -5 0 -12 11 -16 25 -4 14 -50 151 -103 305 -139 408 -399 1176 -458 1350
-27 83 -57 156 -66 163 -22 17 -802 18 -820 0z"/>
<path d="M1250 1039 c-60 -26 -90 -71 -90 -133 0 -63 33 -97 115 -120 187 -52
194 -55 210 -87 22 -42 5 -93 -38 -116 -43 -23 -144 -22 -186 3 -28 17 -61 67
-61 93 0 6 -14 11 -31 11 -30 0 -31 -1 -25 -32 9 -47 45 -94 91 -120 56 -32
171 -32 236 0 79 38 110 123 69 190 -28 46 -71 69 -177 93 -102 24 -143 50
-143 94 0 111 193 128 244 21 12 -27 23 -36 41 -36 31 0 38 12 24 47 -36 96
-170 141 -279 92z"/>
<path d="M6380 1039 c-96 -43 -141 -113 -148 -232 -10 -161 56 -264 187 -292
50 -11 136 3 173 28 43 30 87 94 95 140 5 32 3 37 -14 37 -24 0 -37 -14 -66
-71 -32 -63 -64 -82 -137 -82 -52 0 -65 4 -98 30 -63 51 -77 85 -77 188 0 74
4 98 22 131 31 58 81 87 152 88 70 0 116 -23 138 -69 17 -35 44 -52 63 -40 35
21 -23 108 -93 141 -65 30 -136 31 -197 3z"/>
<path d="M9183 1045 c-36 -15 -53 -41 -53 -82 0 -35 -18 -60 -45 -65 -32 -5
-26 -42 7 -46 36 -4 38 -13 41 -187 2 -133 3 -140 22 -140 19 0 20 7 22 140 4
178 5 183 46 187 24 2 32 8 32 23 0 15 -8 21 -35 25 -31 4 -35 9 -38 36 -4 37
19 64 54 64 14 0 27 7 31 16 12 32 -37 49 -84 29z"/>
<path d="M11963 1042 c-156 -64 -209 -309 -96 -442 84 -97 224 -116 322 -43
27 21 35 23 42 12 5 -8 9 -19 9 -25 0 -17 27 -25 38 -11 5 7 10 64 11 128 2
91 -1 118 -12 128 -10 8 -47 11 -113 9 -98 -3 -99 -3 -99 -28 0 -24 3 -25 80
-30 l80 -5 -3 -30 c-14 -127 -179 -186 -281 -99 -96 83 -96 276 1 359 80 67
180 57 250 -26 28 -34 48 -49 62 -47 31 5 29 21 -6 74 -26 39 -44 53 -88 71
-66 27 -139 29 -197 5z"/>
<path d="M13183 1043 c-102 -36 -136 -155 -62 -217 28 -24 59 -35 193 -71 69
-19 106 -52 106 -94 0 -122 -247 -131 -286 -11 -8 24 -19 36 -34 38 -33 5 -40
-9 -25 -53 20 -57 75 -101 142 -115 139 -29 263 38 263 142 0 87 -36 118 -177
154 -106 26 -143 47 -157 87 -20 57 59 115 140 102 49 -7 88 -34 106 -73 9
-19 21 -27 38 -27 22 0 25 4 23 30 -7 96 -147 152 -270 108z"/>
<path d="M16553 1043 c-84 -29 -124 -116 -86 -183 28 -47 59 -64 178 -95 113
-29 145 -51 145 -100 0 -69 -74 -110 -171 -95 -60 9 -86 27 -110 78 -16 33
-26 42 -46 42 -24 0 -25 -3 -20 -36 8 -51 30 -79 83 -110 40 -23 59 -28 123
-28 63 0 84 4 120 24 62 35 84 69 83 125 -1 86 -45 123 -190 156 -118 27 -144
47 -140 102 2 34 9 45 38 65 64 44 159 18 202 -54 14 -24 27 -34 44 -34 57 0
9 100 -66 138 -52 26 -123 28 -187 5z"/>
<path d="M3247 1044 c-11 -11 -8 -512 2 -518 5 -4 16 -3 25 0 15 6 16 35 14
263 -3 222 -5 256 -18 259 -9 1 -19 0 -23 -4z"/>
<path d="M3757 1043 c-19 -31 -196 -506 -192 -513 20 -32 59 7 80 77 22 73 31
78 144 75 111 -4 122 -10 146 -82 19 -58 45 -84 75 -75 12 4 19 12 17 18 -3 7
-46 118 -97 247 -50 129 -96 241 -102 248 -11 13 -64 17 -71 5z m46 -75 c45
-119 77 -220 72 -228 -7 -12 -144 -13 -162 -2 -10 6 -3 37 30 125 41 114 50
130 60 105z"/>
<path d="M5653 1043 c-10 -3 -13 -64 -13 -253 0 -259 3 -280 44 -264 15 6 16
32 14 263 -3 267 -4 272 -45 254z"/>
<path d="M9767 1044 c-4 -4 -7 -121 -7 -261 0 -221 2 -254 16 -260 28 -11 34
12 37 138 3 136 10 160 59 185 34 18 102 14 122 -6 7 -7 12 -66 14 -158 2 -81
7 -151 12 -155 4 -5 18 -6 30 -2 22 7 22 9 18 159 -4 168 -13 195 -70 215 -47
17 -80 13 -132 -13 -32 -16 -49 -20 -52 -12 -2 6 -5 47 -6 91 -2 63 -6 80 -18
83 -9 1 -19 0 -23 -4z"/>
<path d="M10797 1043 c-4 -3 -7 -120 -7 -260 0 -217 2 -254 15 -259 8 -4 22
-1 30 6 12 10 15 48 15 213 0 132 3 198 10 191 5 -5 42 -95 81 -199 74 -195
83 -215 103 -215 26 1 39 24 87 151 89 241 101 269 110 269 5 0 9 -88 9 -204
0 -172 2 -205 15 -210 8 -3 22 -3 30 0 13 5 15 41 13 263 -3 255 -3 256 -25
259 -12 2 -34 -3 -48 -11 -22 -11 -39 -46 -101 -213 -63 -167 -94 -237 -94
-213 0 19 -153 406 -166 421 -17 18 -64 25 -77 11z"/>
<path d="M12557 1043 c-4 -3 -7 -118 -7 -253 0 -208 2 -250 15 -260 12 -10 18
-10 30 0 13 10 15 52 15 260 0 217 -2 249 -16 254 -20 8 -29 8 -37 -1z"/>
<path d="M12725 1040 c-9 -15 -6 -503 4 -513 4 -4 15 -5 24 -1 16 6 17 30 15
263 -3 229 -5 256 -20 259 -9 2 -19 -2 -23 -8z"/>
<path d="M14497 1043 c-4 -3 -7 -46 -7 -95 0 -48 -3 -88 -6 -88 -3 0 -17 9
-31 20 -73 57 -193 25 -241 -65 -23 -43 -21 -159 3 -208 38 -80 156 -114 233
-67 39 24 42 24 42 6 0 -17 24 -28 45 -20 13 5 15 43 15 259 0 221 -2 254 -16
259 -20 8 -29 8 -37 -1z m-66 -199 c38 -19 59 -68 59 -137 0 -164 -188 -201
-230 -46 -36 134 62 240 171 183z"/>
<path d="M18363 1012 c-7 -4 -13 -30 -15 -57 -3 -47 -5 -50 -33 -55 -22 -4
-30 -11 -30 -25 0 -14 9 -21 30 -25 l30 -5 3 -141 c3 -156 8 -170 67 -174 55
-4 65 -1 65 20 0 15 -7 20 -29 20 -17 0 -33 5 -36 10 -8 13 -11 257 -3 265 3
3 19 7 34 8 22 2 30 8 32 25 3 19 -1 22 -27 22 -37 0 -53 26 -45 68 5 23 2 32
-13 40 -10 6 -24 7 -30 4z"/>
<path d="M5830 974 c0 -48 -16 -74 -45 -74 -20 0 -25 -5 -25 -25 0 -21 5 -25
29 -25 17 0 31 -6 35 -16 3 -9 6 -71 6 -139 0 -68 3 -130 6 -139 7 -18 61 -37
89 -31 11 2 23 4 28 4 4 1 7 10 7 21 0 15 -7 20 -28 20 -15 0 -33 5 -40 12
-13 13 -17 235 -4 255 4 6 21 13 37 15 22 2 31 9 33 26 3 18 -1 22 -25 22 -40
0 -53 17 -53 67 0 39 -2 43 -25 43 -22 0 -25 -4 -25 -36z"/>
<path d="M7608 958 c-3 -49 -5 -53 -30 -56 -22 -3 -28 -9 -28 -27 0 -18 6 -24
28 -27 l27 -3 5 -141 c3 -95 9 -146 18 -157 20 -23 91 -33 109 -14 19 19 9 37
-21 37 -41 0 -47 19 -44 151 l3 124 35 5 c32 5 36 10 32 39 -1 6 -17 11 -34
13 -32 3 -33 4 -36 56 -3 50 -4 52 -32 52 -28 0 -29 -2 -32 -52z"/>
<path d="M9548 958 c-3 -48 -5 -53 -28 -57 -47 -6 -48 -48 -2 -53 l27 -3 5
-142 c6 -164 11 -176 82 -177 37 -1 43 2 46 21 3 18 -2 22 -30 25 l-33 3 -5
118 c-6 141 -2 157 40 157 25 0 30 4 30 25 0 21 -5 25 -29 25 -36 0 -45 13
-46 65 0 36 -3 40 -27 43 -26 3 -27 1 -30 -50z"/>
<path d="M13588 958 c-3 -52 -4 -53 -36 -56 -28 -3 -33 -7 -30 -25 2 -15 12
-23 33 -27 l30 -5 5 -148 c5 -162 5 -161 72 -172 44 -8 58 -1 58 26 0 13 -7
19 -22 19 -46 0 -49 9 -46 146 l3 129 33 3 c26 3 32 7 32 28 0 20 -5 24 -29
24 -36 0 -44 11 -45 64 -1 37 -4 41 -28 44 -26 3 -27 1 -30 -50z"/>
<path d="M15490 971 c0 -57 -8 -71 -42 -71 -25 0 -29 -4 -26 -22 2 -17 12 -24
33 -28 l30 -5 2 -130 c4 -165 5 -172 46 -183 54 -15 82 -10 85 16 3 18 -1 22
-26 22 -48 0 -53 15 -50 151 l3 124 35 5 c27 4 35 10 35 25 0 15 -8 21 -30 23
-37 5 -45 16 -45 70 0 38 -2 42 -25 42 -22 0 -25 -4 -25 -39z"/>
<path d="M1724 892 c-74 -35 -110 -106 -101 -201 10 -109 71 -171 170 -171 68
0 118 22 141 62 35 59 -3 79 -46 24 -61 -77 -197 -39 -201 56 l-2 33 140 5
140 5 -2 37 c-3 50 -36 111 -74 139 -43 30 -113 35 -165 11z m132 -51 c40 -24
61 -77 36 -90 -21 -11 -185 -12 -203 -1 -19 13 8 69 45 91 40 24 83 24 122 0z"/>
<path d="M2914 899 c-37 -11 -70 -45 -79 -81 -6 -24 -4 -28 15 -28 12 0 36 16
54 35 29 30 40 35 80 35 53 0 86 -25 86 -64 0 -34 -15 -42 -107 -59 -45 -9
-93 -23 -107 -32 -57 -38 -55 -140 4 -170 46 -24 131 -19 173 9 l36 25 16 -25
c13 -20 23 -24 48 -22 37 4 49 33 18 43 -20 6 -21 14 -21 133 0 81 -5 136 -13
152 -25 51 -119 73 -203 49z m156 -227 c0 -63 -52 -112 -120 -112 -33 0 -80
37 -80 63 0 47 69 83 163 86 36 1 37 0 37 -37z"/>
<path d="M4145 896 c-50 -19 -75 -49 -75 -90 0 -61 29 -81 173 -121 88 -24
104 -79 33 -113 -42 -21 -101 -7 -140 34 -49 51 -91 42 -64 -13 23 -48 73 -73
145 -73 77 0 128 21 148 61 18 33 19 60 4 92 -14 32 -36 43 -126 68 -110 29
-143 67 -91 103 40 28 93 20 137 -19 25 -23 45 -33 55 -29 9 3 16 10 16 15 0
20 -25 60 -47 75 -35 22 -120 27 -168 10z"/>
<path d="M4528 903 c-33 -5 -75 -44 -84 -77 -16 -65 23 -102 136 -130 80 -21
110 -39 110 -70 0 -77 -146 -85 -195 -10 -16 25 -31 29 -53 15 -12 -7 -11 -14
3 -40 25 -49 69 -71 142 -71 73 0 105 11 138 46 54 58 19 142 -66 164 -22 5
-58 15 -81 21 -75 19 -101 62 -56 93 40 28 93 20 137 -19 45 -41 77 -39 66 4
-16 64 -87 91 -197 74z"/>
<path d="M4919 901 c-49 -16 -71 -33 -85 -66 -19 -45 -19 -45 16 -45 18 0 30
5 30 13 0 44 108 74 155 43 28 -18 35 -66 12 -84 -7 -6 -44 -16 -82 -23 -117
-20 -156 -50 -157 -120 0 -36 5 -48 31 -71 26 -24 40 -28 87 -28 39 0 68 7 95
22 l39 22 16 -23 c12 -16 24 -21 47 -19 37 4 49 33 18 43 -18 5 -20 17 -23
145 -3 136 -4 140 -30 167 -22 22 -38 27 -85 29 -32 2 -70 0 -84 -5z m144
-231 c-2 -39 -29 -79 -64 -98 -27 -15 -93 -10 -114 8 -21 17 -19 73 3 93 23
21 85 36 137 34 39 -2 40 -3 38 -37z"/>
<path d="M6885 903 c-35 -9 -85 -53 -106 -95 -44 -86 -15 -216 60 -265 48 -32
144 -32 191 0 34 22 71 76 63 90 -10 17 -40 4 -69 -29 -26 -32 -36 -37 -76
-38 -75 -2 -128 43 -128 108 l0 25 143 3 142 3 -2 33 c0 19 -12 55 -25 80 -35
70 -113 104 -193 85z m105 -60 c45 -26 66 -87 33 -96 -24 -7 -163 -7 -186 0
-27 7 -14 51 25 86 38 32 85 36 128 10z"/>
<path d="M7278 881 c-46 -29 -47 -30 -50 -8 -2 14 -11 23 -26 25 l-22 3 2
-188 c3 -180 4 -188 23 -188 19 0 20 8 25 130 6 141 14 166 60 190 44 23 87
19 115 -10 24 -23 25 -29 25 -164 0 -83 4 -142 10 -146 6 -3 20 -3 31 0 20 7
21 12 17 159 -4 166 -10 185 -64 211 -49 23 -94 19 -146 -14z"/>
<path d="M7975 903 c-11 -3 -37 -18 -57 -34 l-38 -30 0 31 c0 25 -4 30 -25 30
-17 0 -25 -6 -26 -17 -3 -124 3 -349 10 -356 5 -5 17 -7 25 -4 13 5 16 23 16
85 0 163 21 210 103 232 32 9 37 15 37 40 0 30 -5 32 -45 23z"/>
<path d="M8159 887 c-76 -41 -116 -144 -89 -236 24 -86 84 -131 171 -131 81 0
133 33 153 98 12 38 -32 28 -69 -15 -29 -34 -38 -38 -78 -37 -57 1 -94 25
-113 71 -26 60 -20 63 131 63 155 0 157 1 136 79 -30 111 -141 161 -242 108z
m139 -47 c29 -18 52 -54 52 -81 0 -10 -213 -13 -223 -3 -12 13 17 67 47 85 40
24 83 24 124 -1z"/>
<path d="M8752 889 c-133 -66 -130 -288 5 -358 39 -20 136 -14 174 12 71 48
103 139 79 228 -17 60 -43 94 -93 118 -55 27 -111 27 -165 0z m139 -45 c42
-21 73 -93 66 -149 -12 -88 -52 -128 -124 -128 -36 0 -50 5 -76 31 -27 27 -32
40 -35 97 -5 79 10 120 52 146 38 23 77 24 117 3z"/>
<path d="M10253 890 c-91 -47 -128 -164 -83 -269 32 -73 75 -101 157 -101 72
0 109 18 142 67 40 62 -6 75 -55 16 -29 -34 -35 -37 -83 -36 -58 1 -90 22
-111 74 -23 54 -14 58 137 61 l138 3 -2 44 c-2 49 -37 110 -79 137 -40 27
-112 29 -161 4z m133 -49 c17 -11 36 -33 42 -50 15 -42 -4 -51 -110 -51 -104
0 -116 7 -98 50 26 64 106 88 166 51z"/>
<path d="M11525 903 c-94 -26 -151 -171 -110 -278 25 -68 72 -99 154 -103 53
-2 72 1 98 17 60 38 89 113 46 119 -17 3 -25 -4 -36 -30 -21 -49 -42 -62 -100
-61 -44 1 -55 5 -78 31 -49 55 -50 169 0 223 49 55 139 49 173 -11 18 -31 33
-36 57 -21 12 8 11 14 -5 41 -29 50 -63 71 -125 75 -30 2 -63 1 -74 -2z"/>
<path d="M14733 891 c-91 -43 -128 -164 -83 -270 32 -74 75 -101 159 -101 53
0 70 4 98 26 34 26 67 77 56 88 -15 15 -40 3 -69 -31 -29 -34 -35 -37 -84 -36
-44 1 -57 5 -82 30 -20 20 -30 41 -31 64 l-2 34 140 5 140 5 -3 40 c-10 126
-128 198 -239 146z m127 -46 c48 -25 69 -88 33 -99 -33 -10 -183 -3 -194 10
-18 22 19 81 61 97 28 10 71 7 100 -8z"/>
<path d="M15175 896 c-17 -7 -36 -20 -44 -29 -19 -24 -31 -21 -31 8 0 20 -5
25 -25 25 l-25 0 0 -185 c0 -159 2 -186 16 -192 28 -11 35 12 37 138 3 96 7
130 20 150 33 51 105 64 151 28 26 -20 26 -21 26 -164 0 -86 4 -146 10 -150 6
-3 19 -3 30 0 19 6 20 15 20 138 0 73 -5 149 -11 170 -18 66 -99 96 -174 63z"/>
<path d="M15760 899 c-48 -13 -80 -52 -80 -95 0 -60 43 -88 183 -118 34 -8 67
-40 67 -64 0 -36 -38 -57 -98 -56 -51 0 -58 3 -87 37 -49 56 -91 47 -60 -13
25 -48 70 -70 143 -70 78 0 126 19 146 59 41 79 4 130 -120 163 -84 22 -114
40 -114 69 0 40 83 64 132 38 12 -6 30 -22 42 -36 28 -32 60 -23 51 16 -15 65
-107 96 -205 70z"/>
<path d="M17036 900 c-16 -5 -42 -22 -59 -37 -89 -84 -74 -259 29 -319 112
-66 250 1 270 132 24 160 -92 268 -240 224z m133 -65 c38 -33 55 -84 48 -147
-11 -93 -76 -141 -154 -115 -49 16 -73 52 -80 119 -4 45 -1 65 16 101 24 49
49 65 103 66 25 1 46 -7 67 -24z"/>
<path d="M17443 891 c-26 -12 -52 -35 -70 -62 -24 -37 -28 -52 -28 -118 0 -91
25 -140 86 -171 101 -52 220 -7 244 93 6 22 4 27 -12 27 -21 0 -53 -29 -53
-48 0 -37 -114 -57 -157 -27 -33 23 -57 96 -49 151 11 86 50 124 125 124 42 0
66 -14 84 -50 14 -27 34 -35 56 -21 11 7 10 14 -3 43 -34 71 -136 98 -223 59z"/>
<path d="M18005 891 c-123 -63 -138 -254 -27 -338 38 -29 51 -33 104 -33 44 0
70 6 95 21 31 19 63 64 63 89 0 22 -36 8 -73 -27 -33 -34 -43 -38 -83 -36 -56
2 -91 24 -110 68 -25 62 -18 65 137 65 l139 0 0 35 c0 49 -21 94 -62 133 -47
44 -123 54 -183 23z m157 -70 c15 -17 28 -40 28 -51 0 -17 -9 -19 -106 -22
-115 -3 -122 0 -110 47 17 69 135 85 188 26z"/>
<path d="M2020 895 c0 -3 25 -39 55 -80 30 -40 55 -82 55 -93 0 -10 -27 -56
-60 -102 -40 -55 -57 -87 -50 -94 19 -19 59 13 106 84 26 38 50 70 53 70 3 0
26 -31 51 -70 27 -42 56 -74 73 -81 55 -23 50 4 -18 98 -36 50 -65 95 -65 100
0 5 25 43 55 83 30 40 55 77 55 82 0 13 -47 9 -62 -5 -7 -8 -29 -37 -48 -65
-19 -29 -38 -52 -41 -52 -4 0 -19 19 -34 43 -44 67 -66 87 -97 87 -15 0 -28
-2 -28 -5z"/>
<path d="M2427 893 c-11 -10 -8 -254 3 -295 15 -54 51 -78 115 -78 39 0 61 6
89 25 45 30 44 30 48 3 2 -15 10 -23 23 -23 19 0 20 8 23 188 l2 187 -25 0
-25 0 0 -115 c0 -167 -27 -217 -116 -219 -37 -1 -50 4 -65 23 -17 20 -19 40
-19 167 l0 144 -23 0 c-13 0 -27 -3 -30 -7z"/>
<path d="M5227 893 c-10 -9 -8 -230 2 -283 13 -64 47 -90 118 -90 44 0 63 5
89 25 39 30 44 31 44 6 0 -23 28 -35 46 -20 12 10 14 47 12 188 l-3 176 -27 3
-28 3 0 -113 c0 -191 -22 -224 -142 -219 -47 2 -58 40 -58 196 0 135 0 135
-23 135 -13 0 -27 -3 -30 -7z"/>
<path d="M12389 888 c-4 -100 2 -353 10 -361 5 -5 17 -7 25 -4 14 6 16 33 16
192 l0 185 -25 0 c-14 0 -25 -6 -26 -12z"/>
<path d="M13800 750 c0 -203 15 -230 127 -230 42 0 103 25 103 42 0 4 7 8 16
8 10 0 14 -6 11 -14 -8 -19 16 -38 37 -30 15 6 16 27 14 188 l-3 181 -25 0
-25 0 -5 -131 c-4 -101 -9 -136 -22 -157 -21 -31 -84 -52 -120 -38 -47 18 -53
35 -55 175 -1 72 -3 137 -3 144 0 6 -11 12 -25 12 l-25 0 0 -150z"/>
<path d="M17769 733 c-2 -216 -1 -221 34 -207 15 5 17 28 17 190 l0 184 -25 0
-25 0 -1 -167z"/>
<path d="M18539 853 c10 -26 42 -105 70 -176 60 -151 64 -186 21 -229 -20 -20
-37 -28 -50 -25 -26 7 -36 -24 -14 -40 10 -7 24 -13 30 -13 24 0 64 23 78 45
16 25 186 459 186 476 0 6 -12 9 -26 7 -25 -3 -31 -14 -77 -148 -28 -80 -52
-147 -54 -149 -7 -9 -17 13 -67 151 -51 142 -51 143 -84 146 l-32 3 19 -48z"/>
</g>
</svg>
