<?xml version="1.0" standalone="no"?>
<!DOCTYPE svg PUBLIC "-//W3C//DTD SVG 20010904//EN"
 "http://www.w3.org/TR/2001/REC-SVG-20010904/DTD/svg10.dtd">
<svg version="1.0" xmlns="http://www.w3.org/2000/svg"
 width="833.000000pt" height="833.000000pt" viewBox="0 0 833.000000 833.000000"
 preserveAspectRatio="xMidYMid meet">

<g transform="translate(0.000000,833.000000) scale(0.100000,-0.100000)"
>
<path d="M3995 8133 c-716 -43 -1387 -268 -1975 -659 -1341 -893 -2004 -2497
-1688 -4084 215 -1082 884 -2033 1835 -2608 490 -297 1015 -475 1613 -549 202
-24 664 -24 875 1 954 112 1785 527 2446 1221 559 588 932 1363 1043 2170 41
302 46 726 12 1010 -112 917 -512 1729 -1168 2370 -311 305 -623 528 -1007
719 -608 304 -1318 450 -1986 409z m-411 -1898 c781 -245 1420 -446 1421 -448
1 -2 -570 -1909 -587 -1957 -2 -8 -14 17 -25 55 -12 39 -144 478 -294 978
l-272 907 -342 0 -341 0 -279 -962 c-153 -530 -281 -968 -284 -975 -4 -7 -100
299 -214 680 -115 381 -247 820 -295 977 l-87 285 -73 3 c-39 2 -72 5 -72 9 0
8 272 886 277 896 3 5 15 6 27 3 11 -3 660 -206 1440 -451z m-1874 -2669 c148
-489 268 -891 266 -893 -4 -5 -978 296 -995 307 -7 3 63 243 180 620 255 825
271 877 275 865 2 -5 125 -410 274 -899z m1789 372 c20 -70 399 -1312 442
-1450 l40 -128 439 0 c242 0 440 -2 440 -4 0 -4 -107 -354 -151 -493 -6 -18
-16 -33 -22 -33 -30 -2 -1707 526 -1707 536 0 7 89 301 199 655 109 354 220
715 246 802 27 86 51 157 55 157 4 0 12 -19 19 -42z"/>
</g>
</svg>
